<svg xmlns="http://www.w3.org/2000/svg" width="306" height="73.333"><path fill="#000000" d="M210.357 70.035l6.307-15.435h3.571l6.284 15.435h-3.417l-1.125-2.889h-7.056l-1.146 2.889h-3.418zm5.601-5.622h4.983l-2.161-5.535c-.11-.309-.22-.617-.33-1.212-.11.595-.221.903-.354 1.212l-2.138 5.535zM235.1 54.292c1.653 0 3.308.353 4.74.992v3.153c-1.168-.771-2.733-1.19-4.3-1.19-2.756 0-5.468 1.455-5.468 5.071 0 4.101 3.021 5.137 5.292 5.137.661 0 1.234-.11 1.697-.286v-5.513h3.153v7.651a12.986 12.986 0 0 1-5.027 1.036c-4.321 0-8.488-2.359-8.488-8.025.001-5.601 4.168-8.026 8.401-8.026zM253.889 54.6v2.911h-7.563v3.285h6.901v2.889h-6.901v3.439h7.695v2.91h-11.003V54.6h10.871zM256.649 70.035V54.6h3.108l7.188 10.077a31.785 31.785 0 0 1-.066-2.117V54.6h3.308v15.435h-3.109l-7.188-10.076c.044.64.065 1.411.065 2.116v7.96h-3.306zM280.928 54.292c1.543 0 3.087.331 4.41.992v3.153c-.992-.771-2.426-1.213-3.859-1.213-2.712 0-5.445 1.544-5.445 5.27-.022 3.396 2.756 4.896 5.445 4.896 1.588 0 3.043-.441 3.969-1.279v3.241c-1.322.64-2.844.992-4.476.992-4.123 0-8.334-2.47-8.334-7.85.022-5.645 4.167-8.202 8.29-8.202zM292.375 70.035v-5.468l-6.042-9.967h3.727l3.947 6.924 3.946-6.924h3.727l-6.02 9.967v5.468h-3.285z"/><g><path fill="none" d="M100.969 34.145h-2.34v5.595h2.34c2.339 0 3.509-1.17 3.509-2.797-.001-1.628-1.171-2.798-3.509-2.798zM128.678 26.666c-2.39 0-4.37 1.58-4.37 4.12h8.19c.25-1.17-.36-4.12-3.82-4.12zM71.833 27.533a5.497 5.497 0 0 0-4.934 3.052v5.595a5.496 5.496 0 0 0 4.934 3.051c3.661 0 5.238-3 5.238-5.849 0-2.848-1.577-5.849-5.238-5.849zM42.237 26.669c-2.391 0-4.374 1.576-4.374 4.119h8.188c.255-1.17-.356-4.119-3.814-4.119zM212.38 28.042c-3.56 0-4.831 2.594-4.831 5.34s1.271 5.34 4.831 5.34c3.561 0 4.832-2.594 4.832-5.34s-1.272-5.34-4.832-5.34zM289.734 34.145h-2.34v5.595h2.34c2.339 0 3.509-1.17 3.509-2.797 0-1.628-1.17-2.798-3.509-2.798z"/><path fill="#000000" d="M13.354 33.382c0-4.17 3.103-5.645 6.51-5.645 2.187 0 4.526.712 6.204 1.678v-7.374c-2.237-1.068-4.882-1.679-7.526-1.679-6.968 0-14.088 3.916-14.088 13.528 0 8.646 6.662 12.46 13.478 12.46 3.103 0 5.95-.61 8.392-1.627v-7.375c-1.679.967-4.069 1.628-6.611 1.628-3.308.001-6.359-1.729-6.359-5.594zM42.034 20.413c-5.34 0-12.816 3.408-12.816 12.969 0 8.392 6.459 12.969 14.494 12.969 3.865 0 6.765-.56 9.053-1.373V38.57c-2.034.763-4.271 1.17-7.018 1.17-3.51 0-6.815-1.068-7.781-3.764h15.969c1.729-7.425-1.424-15.563-11.901-15.563zm4.018 10.375h-8.188c0-2.543 1.983-4.119 4.374-4.119 3.457 0 4.068 2.949 3.814 4.119zM74.172 20.413c-4.373 0-7.068 2.034-8.289 4.069v-3.307h-7.629v35.601H66.9V43.605c1.476 1.525 3.865 2.746 7.272 2.746 8.188 0 11.8-6.662 11.8-12.969 0-6.306-3.612-12.969-11.8-12.969zm-2.339 18.818a5.496 5.496 0 0 1-4.934-3.051v-5.595a5.497 5.497 0 0 1 4.934-3.052c3.661 0 5.238 3.001 5.238 5.849 0 2.849-1.577 5.849-5.238 5.849zM103.307 28.296h-4.679v-7.12h-8.646v24.412h13.324c6.612 0 10.07-3.865 10.07-8.646.002-4.781-3.456-8.646-10.069-8.646zm-2.338 11.443h-2.34v-5.595h2.34c2.339 0 3.509 1.17 3.509 2.798-.001 1.627-1.171 2.797-3.509 2.797zM128.478 20.416c-5.34 0-12.82 3.41-12.82 12.97 0 8.39 6.46 12.96 14.5 12.96 3.86 0 6.76-.56 9.05-1.37v-6.41c-2.03.77-4.27 1.17-7.02 1.17-3.51 0-6.81-1.07-7.78-3.76h15.97c1.73-7.43-1.42-15.56-11.9-15.56zm4.02 10.37h-8.19c0-2.54 1.98-4.12 4.37-4.12 3.46 0 4.07 2.95 3.82 4.12zM161.276 33.026c2.086-.661 3.916-2.441 3.916-5.289 0-3.153-2.288-7.375-11.544-7.375-3.51 0-7.272.865-9.46 2.085v6.612c1.729-1.018 5.544-2.137 8.341-2.137s3.764.865 3.764 1.933c0 1.322-1.526 1.78-3.814 1.78h-4.068v5.188h4.068c2.391 0 4.323.152 4.323 1.78 0 1.525-1.78 2.136-4.781 2.136-3 0-6.611-1.119-8.341-2.136v6.611c2.188 1.221 5.442 2.085 9.46 2.085 9.307 0 12.562-4.17 12.562-7.578-.001-2.796-1.476-4.779-4.426-5.695zM186.041 29.822h-7.629v-8.646h-8.646v24.412h8.646v-8.646h7.629v8.646h8.645V21.176h-8.645zM212.38 20.413c-7.323 0-13.731 4.323-13.731 12.969 0 8.646 6.408 12.969 13.731 12.969s13.731-4.322 13.731-12.969c0-8.646-6.408-12.969-13.731-12.969zm0 18.309c-3.56 0-4.831-2.594-4.831-5.34s1.271-5.34 4.831-5.34c3.561 0 4.832 2.594 4.832 5.34s-1.272 5.34-4.832 5.34zM237.753 33.382c0-4.17 3.103-5.645 6.51-5.645 2.187 0 4.526.712 6.204 1.678v-7.374c-2.237-1.068-4.882-1.679-7.526-1.679-6.968 0-14.088 3.916-14.088 13.528 0 8.646 6.662 12.46 13.478 12.46 3.103 0 5.95-.61 8.392-1.627v-7.375c-1.679.967-4.069 1.628-6.611 1.628-3.308.001-6.359-1.729-6.359-5.594zM253.26 28.296h7.12v17.292h8.645V28.296h7.12v-7.12H253.26zM292.073 28.296h-4.679v-7.12h-8.646v24.412h13.324c6.612 0 10.07-3.865 10.07-8.646.001-4.781-3.457-8.646-10.069-8.646zm-2.339 11.443h-2.34v-5.595h2.34c2.339 0 3.509 1.17 3.509 2.798 0 1.627-1.17 2.797-3.509 2.797zM119.893 16.292c2.737 0 4.829-1.891 4.829-4.779 0-2.887-2.091-4.779-4.829-4.779-2.687 0-4.779 1.892-4.779 4.779.001 2.888 2.092 4.779 4.779 4.779zM136.317 4.354c-3.466 0-6.16 2.439-6.16 6.16 0 3.722 2.693 6.16 6.16 6.16 3.528 0 6.224-2.437 6.224-6.16-.001-3.722-2.696-6.16-6.224-6.16z"/></g></svg>