<?xml version="1.0" encoding="utf-8"?>
<!-- Generator: Adobe Illustrator 23.0.3, SVG Export Plug-In . SVG Version: 6.00 Build 0)  -->
<svg version="1.1" id="Layer_1" xmlns="http://www.w3.org/2000/svg" xmlns:xlink="http://www.w3.org/1999/xlink" x="0px" y="0px"
	 viewBox="0 0 415.19 426.98" style="enable-background:new 0 0 415.19 426.98;" xml:space="preserve">
<style type="text/css">
	.st0{fill-rule:evenodd;clip-rule:evenodd;fill:#cb4e44;}
	.st1{fill:#cb4e44;}
</style>
<path class="st0" d="M104.37,178.44c0.33-41.3,44.96-69.27,41.94-108.42c5.38,5.16,10.18,16.36,10.76,22.37
	c0.97,10.22-2.68,21.22-7.75,33.56c-6.88,16.78-2.05,30.87,11.19,42.16c-2.58-10.75-4.09-22.26-0.54-34.52
	c3.81-13.17,11.72-25.28,25.92-37.32c17.08-14.5,27.71-18.18,40.23-36.89c8.6-12.84,11.29-25.81,9.25-50.44
	c16.78,13.77,25.38,44.31,18.5,66.69c-6.18,20.05-13.83,32.33-15.92,42.16c-3.01,14.2,1.94,30.33,13.12,34.63
	c-3.01-11.19-3.47-21.19,1.08-34.21c6.23-17.85,18.18-30.44,31.99-37.04c0.28,0.32-6.73,13.71-8.14,23.57
	c-1.62,11.35-1.7,23.03,7.99,38.99c11.97,19.73,22.2,40.69,25.36,62c2.74,18.44,0.19,49.85-18.91,69.94
	c-8.56,9.01-11.25,7.21-7.21-3.15c10.36-26.58,10.81-57.66-6.48-79.14c-8.83-10.97-24.22-18.04-38.97-19.87
	c-0.56-4.5-2.45-8.3-5.28-11.27c-6.69-7.04-13.81-8.53-21.12-13.53c-2.59,7.74-1.65,21.46,2.87,28.56
	c-7.04-3.07-11.98-12.02-14.97-14.46c-2.98-2.43-8.59-5.86-15.46-5.48c5.49,12.96-0.74,20.95,3.5,29.42
	c3.21,6.42,7.01,6.47,5.33,9.34c-9.06,15.52-30.91,24.15-51.09,19.34c-3.93-0.94-4.49-0.75-5.36,0.61
	c-3.9,6.07-1.18,13.79-3.61,22.58c-1.5,3.18-1.29,4.54,0.75,5.98c12.13,8.63,17.35,13.27,22.6,22.09
	c9.36,15.71,29.08,29.26,48.91,27.91c7.68-0.52,9.26,2.76-2.15,7.99c-15.67,7.2-35.32,5.96-52.53-2.64
	c-18.39-9.2-35.91-25.07-46.88-48.01c-7.85-16.41-14.2-37.78-12.48-55.85c6.46,11.19,18.29,17.86,23.24,18.83
	C107.17,204.58,104.22,196.73,104.37,178.44z"/>
<g>
	<path class="st1" d="M47.22,366.33c2.53-1.2,4.44-2.76,5.68-4.69c1.65-2.57,2.49-5.27,2.49-8.04c0-5.02-2.07-8.84-6.14-11.35
		c-3.97-2.45-10.08-3.64-18.69-3.64c-2.72,0-23.63,0.94-24.65,1l-1,0.06v56.99l0.94,0.11c1.19,0.14,18.83,1,20.5,1
		c10.83,0,18.76-1.45,23.59-4.3c5-2.95,7.54-7.4,7.54-13.24c0-3.77-1-6.99-2.98-9.59C52.95,368.58,50.51,367.13,47.22,366.33z
		 M37.05,360.47c-1.78,1.04-4.44,1.56-7.91,1.56h-8.05v-9.61c0.26-0.03,0.67-0.06,1.51-0.09c7.39-0.25,12.32,0,14.65,1.26
		c1.51,0.81,2.21,1.9,2.21,3.43C39.45,358.4,38.67,359.52,37.05,360.47z M21.08,373.01h7.82c4.64,0,7.89,0.56,9.66,1.66
		c1.63,1.01,2.43,2.26,2.43,3.79c0,1.88-0.9,3.2-2.83,4.13c-2.13,1.03-5.65,1.55-10.47,1.55h-2.32c-0.87,0-1.73-0.02-2.61-0.06
		c-0.56-0.02-1.11-0.05-1.68-0.09V373.01z"/>
	<path class="st1" d="M198.84,343.06c-2.6-1.88-5.5-3.22-8.6-3.99c-7.67-1.89-14.82-1.33-20.99,0.75c-3.75,1.26-7.04,3.17-9.83,5.69
		c-2.79,2.53-5.02,5.72-6.61,9.49c-1.6,3.76-2.41,8.2-2.41,13.19c0,4.69,0.71,8.92,2.12,12.59c1.4,3.7,3.48,6.91,6.16,9.55
		c2.68,2.64,5.99,4.68,9.84,6.04c3.81,1.36,8.19,2.05,13.01,2.05c2.78,0,5.45-0.23,7.93-0.68c2.47-0.45,4.78-1.06,6.86-1.82
		c2.11-0.77,3.9-1.57,5.46-2.45c1.57-0.88,2.88-1.8,3.9-2.74l0.6-0.54l-5.71-11.32l-1.03,0.86c-1.66,1.38-3.88,2.59-6.59,3.57
		c-2.7,0.98-6.24,1.49-10.52,1.49c-2.13,0-4.14-0.23-5.99-0.69c-1.82-0.45-3.46-1.16-4.85-2.11c-1.37-0.93-2.49-2.15-3.32-3.63
		c-0.69-1.21-1.12-2.68-1.29-4.38h39.54l0.17-0.86c0.75-3.72,1.12-7.25,1.12-10.49c0-4.8-0.83-8.83-2.49-11.99
		C203.63,347.51,201.46,344.95,198.84,343.06z M175.98,352.3c1.59-0.49,3.31-0.74,5.11-0.74c3.81,0,6.64,0.97,8.45,2.87
		c1.65,1.75,2.54,4.02,2.72,6.93h-24.89c0.22-1.26,0.64-2.43,1.26-3.46c0.81-1.38,1.85-2.54,3.09-3.46
		C172.98,353.52,174.41,352.79,175.98,352.3z"/>
	<path class="st1" d="M409.85,355.89c-1.34-3.75-3.34-6.98-5.93-9.62c-2.62-2.64-5.85-4.71-9.61-6.16
		c-3.76-1.43-8.07-2.17-12.82-2.17c-4.51,0-8.68,0.67-12.36,2c-3.7,1.33-6.93,3.33-9.61,5.93c-2.68,2.6-4.77,5.82-6.21,9.55
		c-1.45,3.71-2.18,8-2.18,12.77c0,4.44,0.67,8.58,2,12.29c1.34,3.73,3.33,6.97,5.94,9.62c2.6,2.64,5.83,4.72,9.61,6.16
		c3.75,1.44,8.06,2.17,12.82,2.17c4.52,0,8.67-0.67,12.35-1.99c3.7-1.33,6.93-3.33,9.62-5.93c2.68-2.61,4.78-5.82,6.22-9.56
		c1.44-3.72,2.17-8.01,2.17-12.76C411.86,363.73,411.18,359.6,409.85,355.89z M381.5,384.14c-2.12,0-4.01-0.39-5.62-1.16
		c-1.61-0.77-3.01-1.88-4.16-3.3c-1.16-1.43-2.06-3.13-2.69-5.07c-0.63-1.95-0.95-4.11-0.95-6.41c0-2.88,0.35-5.38,1.04-7.39
		c0.69-1.99,1.64-3.65,2.82-4.93c1.16-1.27,2.56-2.2,4.16-2.76c1.64-0.58,3.45-0.87,5.39-0.87c4.34,0,7.57,1.41,9.89,4.29
		c2.34,2.93,3.52,6.85,3.52,11.67c0,5.58-1.26,9.67-3.73,12.18C388.68,382.91,385.52,384.14,381.5,384.14z"/>
	<path class="st1" d="M269.64,347.29c-2.42-2.23-5.27-3.9-8.45-4.98c-7.08-2.38-15.14-2.04-22.05,0.63c-3.01,1.16-5.73,2.9-8.12,5.2
		c0.46-2.43,1.15-4.46,2.03-6.08c1.2-2.2,2.72-3.93,4.52-5.15c1.87-1.27,3.97-2.15,6.25-2.6c4.09-0.81,29.51-3.66,29.51-3.66v-14.59
		l-1.21,0.16c-0.19,0.03-28.15,3.33-28.57,3.39c-2.9,0.46-5.69,1.24-8.31,2.34c-2.62,1.1-5.1,2.62-7.35,4.53
		c-2.27,1.93-4.27,4.53-5.96,7.73c-1.66,3.17-2.95,7.1-3.85,11.67c-0.89,4.55-1.34,10.09-1.34,16.46c0,6.04,0.72,11.39,2.15,15.9
		c1.43,4.54,3.54,8.36,6.25,11.34c2.72,2.98,6.01,5.23,9.8,6.68c3.76,1.44,7.96,2.17,12.49,2.17c4.15,0,8.1-0.67,11.75-2
		c3.65-1.33,6.88-3.32,9.6-5.92c2.71-2.6,4.89-5.85,6.43-9.65c1.56-3.78,2.35-8.16,2.35-13c0-4.62-0.71-8.69-2.13-12.08
		C274.02,352.39,272.07,349.53,269.64,347.29z M260.61,368.85c0,2.51-0.37,4.75-1.09,6.63c-0.72,1.89-1.71,3.5-2.93,4.79
		c-1.22,1.28-2.64,2.25-4.21,2.9c-3.12,1.26-6.97,1.37-10.28-0.15c-1.63-0.75-3.08-1.81-4.29-3.17c-1.24-1.37-2.26-3.01-3.01-4.88
		c-0.75-1.86-1.13-3.92-1.13-6.12c0-2.12,0.4-4.05,1.17-5.75c0.78-1.7,1.83-3.17,3.12-4.35c1.29-1.19,2.81-2.13,4.52-2.78
		c1.71-0.65,3.51-0.98,5.37-0.98c1.7,0,3.32,0.31,4.85,0.92c1.52,0.61,2.88,1.52,4.06,2.7c1.18,1.18,2.12,2.64,2.81,4.33
		C260.26,364.66,260.61,366.65,260.61,368.85z"/>
	<path class="st1" d="M315.6,338.03c-18.7,0-27.85,7.44-28.22,7.86v73.25l16.32,1.76v-23.87c1.26,0.46,2.7,0.8,4.3,1.05
		c2.25,0.33,4.57,0.51,6.89,0.51c4.47,0,8.52-0.73,12.02-2.18c3.52-1.45,6.55-3.59,9.01-6.35c2.44-2.75,4.34-6.13,5.63-10.05
		c1.28-3.9,1.93-7.47,1.93-12.26c0-5.33-0.56-8.61-1.72-11.92C336.86,341.78,323.01,338.03,315.6,338.03z M303.81,357.25
		c1.18-0.91,5.95-3.12,10.8-3.12l0.48,0.01c3.45,0.12,6.13,1.3,8.19,3.63c2.17,2.44,3.27,5.07,3.27,9.64c0,3.19-0.45,5.3-1.05,7.59
		c-1.09,4.13-3.63,7.11-7.11,8.33c-3.28,1.15-7.29,1.2-11.01,0.28c-1.55-0.38-2.78-0.87-3.67-1.44L303.81,357.25z"/>
	<path class="st1" d="M113.55,338.03c-18.7,0-27.85,7.44-28.22,7.86l0.01,73.25l16.32,1.76v-23.87c1.26,0.46,2.7,0.8,4.3,1.05
		c2.25,0.33,4.57,0.51,6.89,0.51c4.46,0,8.51-0.73,12.01-2.18c3.53-1.45,6.56-3.59,9.02-6.35c2.44-2.75,4.33-6.13,5.63-10.05
		c1.28-3.9,1.93-7.47,1.93-12.26c0-5.33-0.56-8.61-1.72-11.92C134.81,341.78,120.96,338.03,113.55,338.03z M101.76,357.25
		c1.19-0.91,5.94-3.12,10.8-3.12l0.48,0.01c3.45,0.12,6.12,1.3,8.18,3.63c2.17,2.44,3.27,5.07,3.27,9.64c0,3.19-0.46,5.3-1.06,7.59
		c-1.09,4.13-3.63,7.11-7.11,8.33c-3.28,1.15-7.29,1.2-11.02,0.28c-1.54-0.38-2.78-0.87-3.66-1.44L101.76,357.25z"/>
</g>
</svg>
