<?xml version="1.0" encoding="utf-8"?>
<!-- Generator: Adobe Illustrator 23.0.1, SVG Export Plug-In . SVG Version: 6.00 Build 0)  -->
<svg version="1.1" id="Layer_1" xmlns="http://www.w3.org/2000/svg" xmlns:xlink="http://www.w3.org/1999/xlink" x="0px" y="0px"
	 viewBox="0 0 25.9 25.8" style="enable-background:new 0 0 25.9 25.8;" xml:space="preserve">
<g>
	<path d="M17.3,21.8c0.3-0.4,0.4-0.8,0.5-1.2c0.1-0.4,0.1-0.8,0-1.2c-0.2-0.9-0.8-1.5-0.9-1.6c-0.6-0.5-2.1-1.6-2.3-1.8
		c-0.2-0.2-0.4-0.4-0.5-0.7c-0.1-0.2,0-0.6,0.1-0.8c0.1-0.1,0.2-0.2,0.3-0.3c0.2-0.1,0.6-0.2,0.8-0.1c0.3,0.1,0.5,0.3,0.7,0.5
		c0.2,0.2,1.4,1.7,1.9,2.3c0.2,0.2,0.7,0.7,1.7,0.9c0.4,0.1,0.8,0.1,1.2,0c0.4-0.1,0.8-0.3,1.2-0.5c0.7-0.5,2.9-2.4,2.9-4.3
		c0-1.9-2.3-3.8-3-4.3C21.4,8.2,21,8.1,20.6,8c-0.4-0.1-0.8-0.1-1.2,0c-0.9,0.2-1.5,0.8-1.6,0.9c-0.5,0.6-1.6,2.1-1.8,2.3
		c-0.2,0.2-0.4,0.4-0.7,0.5c-0.2,0.1-0.6,0-0.9-0.1c-0.1-0.1-0.1-0.1-0.2-0.2C14,11.2,14,10.8,14,10.5c0.1-0.3,0.3-0.5,0.5-0.7
		c0.2-0.2,1.7-1.4,2.3-1.9c0.2-0.2,0.7-0.7,0.9-1.7c0.1-0.4,0.1-0.8,0-1.2c-0.1-0.4-0.3-0.8-0.5-1.2C16.6,3.2,14.7,1,12.8,1
		C10.9,1,9,3.3,8.5,4C8.2,4.4,8.1,4.8,8,5.2C7.9,5.6,7.9,6,8,6.4C8.1,7.3,8.7,7.9,8.9,8c0.6,0.5,2.1,1.6,2.3,1.8
		c0.2,0.2,0.4,0.4,0.5,0.7c0.1,0.3,0,0.8-0.2,1c0,0,0,0,0,0c-0.2,0.2-0.7,0.3-1,0.2c-0.3-0.1-0.5-0.3-0.7-0.5
		C9.6,11.1,8.4,9.6,7.9,9C7.8,8.9,7.2,8.3,6.3,8.1c-0.4-0.1-0.8-0.1-1.2,0C4.7,8.3,4.3,8.4,3.9,8.7C3.2,9.2,1,11.2,1,13.1
		c0,1.9,2.3,3.7,3,4.2c0.4,0.3,0.8,0.4,1.2,0.5c0.4,0.1,0.8,0.1,1.2,0c0.9-0.2,1.5-0.8,1.6-0.9c0.5-0.6,1.6-2.1,1.8-2.3
		c0.2-0.2,0.4-0.4,0.7-0.5c0.2-0.1,0.6,0,0.9,0.1c0.1,0.1,0.1,0.2,0.2,0.2c0.1,0.2,0.2,0.6,0.1,0.9c-0.1,0.3-0.3,0.5-0.5,0.7
		c-0.2,0.2-1.7,1.4-2.3,1.9c-0.2,0.2-0.7,0.7-0.9,1.7c-0.1,0.4-0.1,0.8,0,1.2c0.1,0.4,0.3,0.8,0.5,1.2c0.5,0.7,2.5,2.9,4.4,2.9
		C15,24.8,16.8,22.5,17.3,21.8z"/>
</g>
</svg>
