<?xml version="1.0" encoding="iso-8859-1"?>
<!-- Generator: Adobe Illustrator 19.0.0, SVG Export Plug-In . SVG Version: 6.00 Build 0)  -->
<svg version="1.1" id="Layer_1" xmlns="http://www.w3.org/2000/svg" xmlns:xlink="http://www.w3.org/1999/xlink" x="0px" y="0px"
	 viewBox="0 0 512 512" style="enable-background:new 0 0 512 512;" xml:space="preserve">
<g>
	<g>
		<path d="M389.929,134.455H362.54l0.542-17.377c19.951-4.321,34.945-22.103,34.945-43.327c0-24.448-19.889-44.338-44.338-44.338
			c-1.495,0-2.983,0.074-4.461,0.223C338.815,11.39,319.524,0,298.016,0c-17.166,0-33.336,7.52-44.433,20.185
			c-8.567-5.621-18.578-8.631-29.096-8.631c-11.278,0-22.094,3.546-31.056,9.988C182.368,8.016,165.807,0,147.805,0
			c-21.286,0-40.621,11.334-51.091,29.418C72.575,29.777,53.047,49.526,53.047,73.75c0,20.857,14.481,38.387,33.914,43.09
			l11.155,325.529l-9.96,16.296c-0.978,1.601-1.496,3.442-1.496,5.319v37.817c0,5.632,4.566,10.199,10.199,10.199h256.306
			c5.632,0,10.199-4.567,10.199-10.199v-37.818c0-1.733-0.443-3.438-1.284-4.954l-9.138-16.447l0.324-10.414h36.664
			c38.059,0,69.023-30.963,69.023-69.023V203.478C458.952,165.419,427.99,134.455,389.929,134.455z M342.966,491.602H107.059
			v-24.749l7.075-11.577h222.525l6.307,11.351V491.602z M107.413,118.088h235.229l-9.87,316.789H118.269L107.413,118.088z
			 M353.164,97.691H97.385c-13.2-0.001-23.94-10.741-23.94-23.941s10.74-23.94,23.94-23.94c1.258,0,2.54,0.103,3.81,0.304
			c4.635,0.742,9.168-1.782,10.994-6.101c6.063-14.346,20.043-23.615,35.617-23.615c14.706,0,27.947,8.18,34.555,21.347
			c1.54,3.069,4.521,5.158,7.932,5.555c3.416,0.391,6.794-0.948,8.999-3.578c6.271-7.48,15.455-11.77,25.195-11.77
			c9.01,0,17.421,3.585,23.682,10.093c2.232,2.318,5.426,3.449,8.621,3.049c3.193-0.401,6.011-2.286,7.599-5.084
			c6.867-12.097,19.752-19.612,33.628-19.612c15.988,0,30.106,9.619,35.965,24.506c1.959,4.978,7.43,7.598,12.54,5.996
			c2.309-0.723,4.72-1.089,7.168-1.089c13.2,0,23.94,10.739,23.94,23.94s-10.739,23.941-23.94,23.941H353.164z M360.596,196.87
			h29.333c3.643,0,6.608,2.964,6.608,6.608v159.666c0,3.643-2.964,6.608-6.608,6.608H355.21L360.596,196.87z M389.929,411.769
			h-36.028l0.673-21.618h35.354c14.892,0,27.006-12.115,27.006-27.007V203.478c0-14.892-12.115-27.006-27.006-27.006h-28.697
			l0.673-21.618h28.024c26.812,0,48.625,21.813,48.625,48.625v159.666h0C438.554,389.956,416.741,411.769,389.929,411.769z"/>
	</g>
</g>
<g>
	<g>
		<path d="M223.961,154.413c-5.633,0-10.199,4.567-10.199,10.199v227.943c0,5.632,4.566,10.199,10.199,10.199
			c5.633,0,10.199-4.567,10.199-10.199V164.612C234.16,158.98,229.594,154.413,223.961,154.413z"/>
	</g>
</g>
<g>
	<g>
		<path d="M160.936,154.413c-5.633,0-10.199,4.567-10.199,10.199v227.943c0,5.632,4.566,10.199,10.199,10.199
			c5.633,0,10.199-4.567,10.199-10.199V164.612C171.135,158.98,166.569,154.413,160.936,154.413z"/>
	</g>
</g>
<g>
	<g>
		<path d="M288.037,154.413c-5.632,0-10.199,4.567-10.199,10.199v227.943c0,5.632,4.567,10.199,10.199,10.199
			s10.199-4.567,10.199-10.199V164.612C298.236,158.98,293.67,154.413,288.037,154.413z"/>
	</g>
</g>
<g>
</g>
<g>
</g>
<g>
</g>
<g>
</g>
<g>
</g>
<g>
</g>
<g>
</g>
<g>
</g>
<g>
</g>
<g>
</g>
<g>
</g>
<g>
</g>
<g>
</g>
<g>
</g>
<g>
</g>
</svg>
