<?xml version="1.0" encoding="iso-8859-1"?>
<!-- Generator: Adobe Illustrator 19.0.0, SVG Export Plug-In . SVG Version: 6.00 Build 0)  -->
<svg version="1.1" id="Capa_1" xmlns="http://www.w3.org/2000/svg" xmlns:xlink="http://www.w3.org/1999/xlink" x="0px" y="0px"
	 viewBox="0 0 512 512" style="enable-background:new 0 0 512 512;" xml:space="preserve">
<g>
	<g>
		<path d="M510.284,70.573c-2.911-7.51-9.041-13.016-16.818-15.104l-30.961-8.32l-66.404-17.84
			c-10.634-2.859-21.724,1.468-27.6,10.762c-0.841,1.33-1.688,2.654-2.539,3.986c-2.625,4.107-5.274,8.252-7.922,12.786
			c-18.642-12.888-41.431-20.349-69.261-22.73c-27.499-2.35-56.751,5.151-89.433,22.937c-14.227,7.743-29.899,11.879-45.312,11.961
			c-0.596,0.003-1.192,0.009-1.788,0.02c-41.444,0.685-80.05,17.352-108.709,46.931C14.886,145.532-0.57,184.647,0.016,226.1
			c0.578,40.898,16.941,79.254,46.077,108.004c27.904,27.536,64.474,43.234,103.499,44.54c7.351,25.096,30.577,42.788,57.178,42.788
			c6.214,0,12.342-0.955,18.211-2.838c12.141-3.895,24.609-5.914,37.186-6.03c-0.009,5.667,0.22,10.928,0.447,16.137
			c0.069,1.568,0.138,3.128,0.199,4.692c0.428,10.977,7.852,20.268,18.472,23.122l66.422,17.847l30.985,8.325
			c2.183,0.587,4.388,0.875,6.571,0.875c5.587,0,11.023-1.891,15.537-5.513c6.276-5.035,9.674-12.532,9.318-20.641
			c-0.001-0.008-0.005-0.116-0.005-0.124c-0.733-16.691-1.366-31.106,6.312-59.679c7.679-28.577,15.452-40.732,24.457-54.811
			c9.69-15.163,19.709-30.844,28.799-64.673c9.091-33.833,8.278-52.424,7.491-70.407c-0.735-16.685-1.37-31.096,6.31-59.675
			c7.677-28.57,15.449-40.727,24.457-54.815l0.1-0.157C512.375,86.282,513.194,78.083,510.284,70.573z M270.107,358.289
			c-3.642,13.556-5.695,24.664-6.796,34.269c-15.034,0.001-29.942,2.343-44.437,6.993c-3.893,1.249-7.965,1.882-12.103,1.882
			c-18.907,0-35.246-13.445-38.851-31.971c-1.21-6.218-6.69-10.729-13.055-10.729h-0.004c-73.32,0-133.812-59.626-134.849-132.915
			C18.963,151.616,78.431,90.253,152.578,89.027c0.515-0.008,1.03-0.015,1.553-0.017c18.715-0.1,37.657-5.077,54.775-14.394
			c29.13-15.853,54.698-22.585,78.168-20.577c25.344,2.167,45.631,8.988,61.747,20.795c-3.986,9.027-7.903,19.908-11.66,33.892
			c-9.091,33.835-8.277,52.423-7.489,70.403c0.733,16.691,1.366,31.106-6.311,59.679c-7.68,28.579-15.453,40.735-24.456,54.812
			C289.216,308.782,279.195,324.461,270.107,358.289z M346.935,378.934c-8.478,31.556-7.715,48.937-6.977,65.747
			c0.1,2.287,0.202,4.603,0.28,6.966L286.475,437.2c-2.115-0.568-3.593-2.411-3.677-4.586c-0.063-1.6-0.132-3.195-0.204-4.794
			c-0.335-7.69-0.662-15.188-0.184-23.878c0.014-0.132,0.026-0.264,0.036-0.397c0.013-0.198,0.02-0.396,0.022-0.592
			c0.649-10.559,2.505-22.916,6.954-39.473c8.289-30.849,17.055-44.567,26.334-59.088c9.066-14.176,18.439-28.833,26.921-60.396
			c8.478-31.555,7.715-48.936,6.977-65.747c-0.754-17.218-1.467-33.481,6.824-64.335c4.353-16.199,8.837-27.674,13.458-37.023
			c0.181-0.318,0.344-0.644,0.487-0.976c4.026-8,8.155-14.462,12.392-21.09c0.868-1.358,1.732-2.709,2.592-4.068
			c0.928-1.467,2.513-2.311,4.19-2.311c0.436,0,0.878,0.057,1.317,0.175l53.744,14.44c-1.259,2.017-2.514,3.979-3.753,5.919
			c-9.064,14.176-18.436,28.834-26.913,60.387c-8.48,31.561-7.716,48.937-6.976,65.742c0.753,17.221,1.465,33.489-6.825,64.34
			c-8.288,30.85-17.055,44.568-26.335,59.091C364.789,332.717,355.416,347.375,346.935,378.934z M491.182,82.304l-0.103,0.16
			c-9.064,14.175-18.435,28.834-26.913,60.387c-8.481,31.562-7.716,48.939-6.976,65.742c0.753,17.221,1.465,33.487-6.825,64.34
			c-8.289,30.849-17.055,44.568-26.336,59.092c-9.066,14.174-18.439,28.831-26.919,60.392c-8.479,31.555-7.716,48.937-6.975,65.82
			c0,0.008,0.005,0.114,0.005,0.122c0.096,2.189-1.121,3.503-1.855,4.092c-0.735,0.589-2.282,1.494-4.404,0.924l-23.518-6.319
			c-0.051-4.644-0.241-8.995-0.428-13.253c-0.733-16.69-1.366-31.106,6.311-59.679c7.679-28.576,15.453-40.732,24.456-54.81
			c9.69-15.164,19.71-30.844,28.799-64.674c9.091-33.831,8.278-52.423,7.491-70.409c-0.734-16.685-1.369-31.095,6.31-59.673
			c7.677-28.57,15.449-40.727,24.452-54.807c2.301-3.598,4.652-7.276,7.029-11.28l23.492,6.313c2.127,0.571,3.018,2.136,3.36,3.018
			C491.978,78.683,492.374,80.439,491.182,82.304z"/>
	</g>
</g>
<g>
	<g>
		<path d="M388.308,199.085c-0.242-5.517-4.907-9.822-10.427-9.554c-5.517,0.24-9.795,4.908-9.554,10.426
			c0.659,15.106,1.135,26.019-5.188,49.551c-6.322,23.532-12.203,32.734-20.342,45.469c-10.53,16.463-22.464,35.124-32.913,74.011
			c-1.433,5.334,1.729,10.819,7.063,12.252c0.869,0.234,1.742,0.345,2.601,0.345c4.413,0,8.452-2.943,9.653-7.407
			c9.647-35.904,20.696-53.181,30.449-68.431c8.415-13.167,15.682-24.538,22.805-51.05
			C389.579,228.186,388.99,214.7,388.308,199.085z"/>
	</g>
</g>
<g>
	<g>
		<path d="M321.679,409.265c-0.13-0.64-0.32-1.27-0.57-1.87c-0.25-0.61-0.56-1.19-0.92-1.73c-0.37-0.55-0.78-1.06-1.25-1.52
			c-0.46-0.46-0.97-0.88-1.51-1.24c-0.55-0.36-1.13-0.67-1.73-0.92s-1.23-0.45-1.87-0.57c-1.29-0.26-2.62-0.26-3.91,0
			c-0.64,0.12-1.27,0.32-1.87,0.57s-1.18,0.56-1.73,0.92c-0.54,0.36-1.06,0.78-1.52,1.24c-1.861,1.86-2.921,4.44-2.921,7.07
			c0,2.63,1.061,5.21,2.921,7.07c0.46,0.46,0.98,0.88,1.52,1.24c0.55,0.36,1.13,0.67,1.73,0.92s1.23,0.45,1.87,0.57
			c0.65,0.13,1.3,0.2,1.96,0.2c0.65,0,1.3-0.07,1.95-0.2c0.64-0.12,1.27-0.32,1.87-0.57s1.18-0.56,1.73-0.92
			c0.54-0.36,1.05-0.78,1.51-1.24c0.47-0.46,0.88-0.97,1.25-1.52c0.36-0.54,0.67-1.12,0.92-1.73c0.25-0.6,0.44-1.23,0.57-1.87
			s0.19-1.3,0.19-1.95S321.809,409.905,321.679,409.265z"/>
	</g>
</g>
<g>
	<g>
		<path d="M148.152,122.785c-55.737,0-101.083,45.346-101.083,101.084s45.345,101.084,101.083,101.084
			s101.084-45.346,101.084-101.084S203.89,122.785,148.152,122.785z M148.152,304.955c-44.709,0-81.084-36.375-81.084-81.085
			s36.374-81.085,81.084-81.085s81.085,36.375,81.085,81.085C229.237,268.58,192.861,304.955,148.152,304.955z"/>
	</g>
</g>
<g>
	<g>
		<path d="M148.152,162.784c-33.682,0-61.085,27.403-61.085,61.086c0,5.523,4.477,10,10,10s10-4.477,10-10
			c0-22.655,18.43-41.087,41.086-41.087c5.523,0,10-4.477,10-10S153.675,162.784,148.152,162.784z"/>
	</g>
</g>
<g>
</g>
<g>
</g>
<g>
</g>
<g>
</g>
<g>
</g>
<g>
</g>
<g>
</g>
<g>
</g>
<g>
</g>
<g>
</g>
<g>
</g>
<g>
</g>
<g>
</g>
<g>
</g>
<g>
</g>
</svg>
