<?xml version="1.0" encoding="iso-8859-1"?>
<!-- Generator: Adobe Illustrator 19.0.0, SVG Export Plug-In . SVG Version: 6.00 Build 0)  -->
<svg version="1.1" id="Layer_1" xmlns="http://www.w3.org/2000/svg" xmlns:xlink="http://www.w3.org/1999/xlink" x="0px" y="0px"
	 viewBox="0 0 512 512" style="enable-background:new 0 0 512 512;" xml:space="preserve">
<g>
	<g>
		<path d="M471.766,397.5c-19.172-7.729-45.261-14.337-76.06-19.315c1.435-2.283,2.835-4.604,4.167-6.997
			c3.489,0.456,6.994,0.686,10.484,0.686c44.953,0,81.525-36.571,81.525-81.525c0-44.187-35.76-80.599-79.863-81.492
			c-0.271-0.021-0.544-0.033-0.819-0.033H100.799c-4.763,0-8.893,3.296-9.946,7.942c-2.788,12.293-4.203,24.951-4.203,37.624
			c0,50.988,9.95,92.46,29.62,123.797c-30.903,4.997-57.06,11.637-76.245,19.4C13.466,408.33,0,421.433,0,436.53
			c0,21.389,26.861,38.61,79.836,51.188c47.174,11.199,109.737,17.367,176.164,17.367s128.989-6.168,176.164-17.367
			C485.139,475.14,512,457.919,512,436.53C512,421.394,498.464,408.263,471.766,397.5z M107.047,254.391
			c0.001-8.444,0.713-16.878,2.123-25.169h301.381c0.177,0.011,0.356,0.018,0.533,0.02c33.303,0.394,60.399,27.805,60.399,61.107
			c0,33.705-27.422,61.127-61.127,61.127c-4.579,0-9.203-0.531-13.743-1.579c-4.598-1.059-9.333,1.176-11.431,5.411
			c-23.352,47.127-66.816,71.024-129.183,71.024C188.048,426.332,107.047,396.502,107.047,254.391z M427.452,467.87
			C381.775,478.714,320.885,484.687,256,484.687s-125.775-5.972-171.452-16.815c-50.742-12.047-64.15-25.768-64.15-31.341
			c0-4.151,7.143-11.889,27.276-20.036c19.902-8.051,48.339-14.868,82.38-19.776c2.004,2.277,4.075,4.486,6.216,6.616
			c28.942,28.794,69.225,43.395,119.73,43.395c54.14,0,96.97-17.153,125.918-50.016c33.944,4.893,62.315,11.681,82.221,19.706
			c20.269,8.173,27.461,15.941,27.461,20.112C491.602,442.103,478.194,455.824,427.452,467.87z"/>
	</g>
</g>
<g>
	<g>
		<path d="M416.379,242.127c-2.931-0.36-5.869,0.558-8.065,2.525c-2.196,1.967-3.433,4.79-3.392,7.739c0,0,0.03,1.594,0.03,1.999
			c0,26.674-2.911,50.697-8.65,71.405c-0.799,2.881-0.293,5.97,1.385,8.445c1.678,2.475,4.358,4.09,7.331,4.416
			c1.801,0.197,3.597,0.298,5.338,0.298c26.8,0,48.605-21.805,48.605-48.605C458.962,265.878,440.656,245.147,416.379,242.127z
			 M419.388,317.074c3.257-15.594,5.188-32.568,5.773-50.726c8.092,5.003,13.404,13.96,13.404,24.001
			C438.565,302.745,430.526,313.299,419.388,317.074z"/>
	</g>
</g>
<g>
	<g>
		<path d="M206.26,377.198c-22.753-10.858-39.224-29.473-48.954-55.33c-1.984-5.272-7.864-7.937-13.139-5.953
			c-5.272,1.984-7.937,7.867-5.953,13.139c11.652,30.957,31.589,53.349,59.261,66.554c1.418,0.676,2.912,0.996,4.386,0.996
			c3.807,0,7.462-2.143,9.212-5.808C213.498,385.712,211.344,379.625,206.26,377.198z"/>
	</g>
</g>
<g>
	<g>
		<path d="M148.568,285.72c-0.713-5.377-1.244-11.034-1.577-16.811c-0.323-5.624-5.138-9.916-10.769-9.595
			c-5.624,0.323-9.92,5.146-9.595,10.769c0.361,6.28,0.94,12.444,1.721,18.322c0.68,5.128,5.061,8.859,10.097,8.859
			c0.448-0.001,0.9-0.03,1.354-0.091C145.383,296.432,149.308,291.306,148.568,285.72z"/>
	</g>
</g>
<g>
	<g>
		<path d="M255.634,163.284c-21.907,0-39.729-17.823-39.729-39.729c0-5.633-4.566-10.199-10.199-10.199
			c-5.632,0-10.199,4.567-10.199,10.199c0,33.155,26.973,60.127,60.127,60.127c5.632,0,10.199-4.567,10.199-10.199
			C265.833,167.851,261.266,163.284,255.634,163.284z"/>
	</g>
</g>
<g>
	<g>
		<path d="M275.387,56.294c-5.632,0-10.199,4.567-10.199,10.199c0,5.632,4.566,10.199,10.199,10.199
			c21.907,0,39.729,17.823,39.729,39.729c0,5.632,4.567,10.199,10.199,10.199s10.199-4.567,10.199-10.199
			C335.514,83.267,308.541,56.294,275.387,56.294z"/>
	</g>
</g>
<g>
	<g>
		<path d="M155.778,6.915c-5.632,0-10.199,4.567-10.199,10.199s4.567,10.199,10.199,10.199c21.907,0,39.729,17.823,39.729,39.729
			c0,5.632,4.567,10.199,10.199,10.199s10.199-4.567,10.199-10.199C215.905,33.888,188.932,6.915,155.778,6.915z"/>
	</g>
</g>
<g>
</g>
<g>
</g>
<g>
</g>
<g>
</g>
<g>
</g>
<g>
</g>
<g>
</g>
<g>
</g>
<g>
</g>
<g>
</g>
<g>
</g>
<g>
</g>
<g>
</g>
<g>
</g>
<g>
</g>
</svg>
