<?xml version="1.0" encoding="iso-8859-1"?>
<!-- Generator: Adobe Illustrator 19.0.0, SVG Export Plug-In . SVG Version: 6.00 Build 0)  -->
<svg version="1.1" id="Layer_1" xmlns="http://www.w3.org/2000/svg" xmlns:xlink="http://www.w3.org/1999/xlink" x="0px" y="0px"
	 viewBox="0 0 512 512" style="enable-background:new 0 0 512 512;" xml:space="preserve">
<g>
	<g>
		<path d="M462.104,225.91l-3.81-6.652c-30.641-53.485-87.873-86.774-149.482-87.014c-0.733-23.623-17.031-43.382-38.966-49.345
			c3.707-15.398,14.354-49.477,38.347-63.968c4.822-2.911,6.369-9.181,3.458-14.002c-2.912-4.821-9.179-6.372-14.002-3.458
			c-32.627,19.706-44.914,63.812-48.43,80.026c-25.413,3.272-45.22,24.65-46.03,50.747c-61.609,0.24-118.841,33.529-149.482,87.014
			l-3.81,6.652c-6.935,12.105-6.899,26.539,0.097,38.609c5.59,9.644,14.703,16.17,25.256,18.409l56.771,221.405
			c1.157,4.512,5.222,7.667,9.88,7.667h228.204c4.657,0,8.723-3.155,9.88-7.667l56.771-221.405
			c10.553-2.239,19.666-8.764,25.256-18.409C469.003,252.449,469.039,238.017,462.104,225.91z M255.999,101.445
			c17.896,0,32.456,14.559,32.456,32.456c0,17.896-14.559,32.456-32.456,32.456s-32.456-14.559-32.456-32.456
			C223.543,116.004,238.103,101.445,255.999,101.445z M362.187,491.601h-36.26l12.722-114.507c0.622-5.598-3.412-10.642-9.01-11.263
			c-5.594-0.625-10.642,3.412-11.263,9.01L305.403,491.6h-39.205V375.968c0-5.632-4.567-10.199-10.199-10.199
			c-5.632,0-10.199,4.567-10.199,10.199v115.633h-39.206l-8.115-73.039c-0.621-5.598-5.668-9.632-11.263-9.01
			c-5.598,0.621-9.632,5.665-9.01,11.263l7.865,70.786h-36.26L96.528,283.795h318.943L362.187,491.601z M444.359,254.291
			c-3.306,5.702-9.214,9.107-15.805,9.107H83.445c-6.591,0-12.499-3.404-15.805-9.107c-3.305-5.703-3.322-12.521-0.046-18.241
			l3.81-6.652c27.128-47.352,77.88-76.767,132.45-76.767h2.788c1.957,5.02,4.68,9.635,8.032,13.726h-9.863
			c-5.632,0-10.199,4.567-10.199,10.199s4.567,10.199,10.199,10.199h98.106c5.632,0,10.199-4.567,10.199-10.199
			s-4.567-10.199-10.199-10.199h-5.596c3.351-4.091,6.075-8.706,8.032-13.726h2.788c54.571,0,105.324,29.415,132.45,76.767
			l3.81,6.652C447.681,241.769,447.664,248.588,444.359,254.291z"/>
	</g>
</g>
<g>
	<g>
		<path d="M340.243,166.357h-9.597c-5.632,0-10.199,4.567-10.199,10.199c0,5.632,4.567,10.199,10.199,10.199h9.597
			c5.632,0,10.199-4.567,10.199-10.199C350.442,170.924,345.875,166.357,340.243,166.357z"/>
	</g>
</g>
<g>
	<g>
		<path d="M194.925,386.564l-1.302-11.723c-0.622-5.599-5.67-9.635-11.263-9.01c-5.598,0.621-9.632,5.665-9.01,11.263l1.302,11.724
			c0.579,5.216,4.996,9.073,10.124,9.073c0.376,0,0.757-0.021,1.139-0.064C191.513,397.206,195.547,392.163,194.925,386.564z"/>
	</g>
</g>
<g>
	<g>
		<path d="M118.437,218.61h-5.333c-5.632,0-10.199,4.567-10.199,10.199c0,5.632,4.567,10.199,10.199,10.199h5.333
			c5.632,0,10.199-4.567,10.199-10.199C128.636,223.177,124.07,218.61,118.437,218.61z"/>
	</g>
</g>
<g>
	<g>
		<path d="M197.348,203.68h-6.397c-5.632,0-10.199,4.567-10.199,10.199c0,5.632,4.567,10.199,10.199,10.199h6.397
			c5.632,0,10.199-4.567,10.199-10.199C207.547,208.247,202.981,203.68,197.348,203.68z"/>
	</g>
</g>
<g>
	<g>
		<path d="M275.195,231.405h-5.333c-5.632,0-10.199,4.567-10.199,10.199c0,5.632,4.567,10.199,10.199,10.199h5.333
			c5.632,0,10.199-4.567,10.199-10.199C285.394,235.973,280.827,231.405,275.195,231.405z"/>
	</g>
</g>
<g>
	<g>
		<path d="M337.044,202.614h-3.2c-5.632,0-10.199,4.567-10.199,10.199c0,5.632,4.567,10.199,10.199,10.199h3.2
			c5.632,0,10.199-4.567,10.199-10.199C347.243,207.181,342.677,202.614,337.044,202.614z"/>
	</g>
</g>
<g>
	<g>
		<path d="M398.895,228.206h-5.333c-5.632,0-10.199,4.567-10.199,10.199c0,5.632,4.567,10.199,10.199,10.199h5.333
			c5.632,0,10.199-4.567,10.199-10.199C409.094,232.773,404.527,228.206,398.895,228.206z"/>
	</g>
</g>
<g>
</g>
<g>
</g>
<g>
</g>
<g>
</g>
<g>
</g>
<g>
</g>
<g>
</g>
<g>
</g>
<g>
</g>
<g>
</g>
<g>
</g>
<g>
</g>
<g>
</g>
<g>
</g>
<g>
</g>
</svg>
