<?xml version="1.0" encoding="iso-8859-1"?>
<!-- Generator: Adobe Illustrator 19.0.0, SVG Export Plug-In . SVG Version: 6.00 Build 0)  -->
<svg version="1.1" id="Layer_1" xmlns="http://www.w3.org/2000/svg" xmlns:xlink="http://www.w3.org/1999/xlink" x="0px" y="0px"
	 viewBox="0 0 511.999 511.999" style="enable-background:new 0 0 511.999 511.999;" xml:space="preserve">
<g>
	<g>
		<path d="M470.102,156.985c-1.938-2.331-4.812-3.679-7.842-3.679h-12.093v-39.881c0-3.987-2.323-7.609-5.948-9.271
			c-3.623-1.66-7.884-1.06-10.906,1.542l-19.939,17.169v-14.551c0-2.969-1.294-5.791-3.544-7.729L376.58,71.954V10.199
			c0-3.987-2.323-7.609-5.948-9.271c-3.623-1.66-7.884-1.06-10.906,1.542l-36.794,31.683c-2.25,1.937-3.544,4.76-3.544,7.729v14.551
			l-16.394-14.118V16.331c0-3.988-2.323-7.609-5.948-9.271c-3.623-1.661-7.884-1.06-10.906,1.542l-36.794,31.683
			c-2.25,1.937-3.544,4.76-3.544,7.729v14.551l-16.395-14.119V13.265c0-3.988-2.323-7.609-5.948-9.271
			c-3.622-1.66-7.885-1.06-10.906,1.542L175.76,37.219c-2.25,1.938-3.544,4.76-3.544,7.729v14.551l-19.939-17.169
			c-3.022-2.602-7.283-3.205-10.906-1.542c-3.625,1.661-5.948,5.283-5.948,9.271v28.028l-31.197,26.865L78.063,85.779
			c-3.1-2.271-7.213-2.607-10.641-0.871c-3.427,1.738-5.588,5.255-5.588,9.097v59.3H49.739c-3.031,0-5.904,1.348-7.842,3.679
			c-1.937,2.331-2.739,5.401-2.186,8.382l62.806,338.295c0.898,4.832,5.113,8.338,10.028,8.338h286.909
			c4.915,0,9.13-3.505,10.028-8.338l62.806-338.295C472.84,162.386,472.039,159.315,470.102,156.985z M413.372,149.784
			l16.395-14.118v17.638h-16.395V149.784z M376.579,98.874l16.394,14.118v32.116v8.198h-5.699c-5.505,0-10.017,4.369-10.194,9.872
			c-0.071,2.226-0.242,4.441-0.501,6.641V98.874z M339.785,46.558L356.18,32.44v106.968l-16.395,14.119V46.558z M339.785,180.446
			l16.395-14.118v48.711c-4.324,5.069-9.28,9.845-14.831,14.261c-0.516,0.411-1.041,0.813-1.565,1.215V180.446z M302.993,69.234
			l16.394,14.118v33.381l-16.394-14.118V69.234z M302.993,129.535l16.394,14.118v99.519c-5.256,2.597-10.734,4.858-16.394,6.769
			V129.535z M266.199,52.691l16.395-14.118v103.901l-16.395,14.119V52.691z M266.199,183.512l16.395-14.118v85.773
			c-5.37,0.961-10.846,1.625-16.395,1.994V183.512z M229.405,75.367l16.395,14.118V119.8l-16.395-14.119V75.367z M229.405,132.601
			l16.395,14.118v110.443c-5.549-0.369-11.026-1.033-16.395-1.994V132.601z M192.613,49.625l16.394-14.118v100.835l-16.394,14.118
			V49.625z M192.613,177.38l16.394-14.118v86.678c-5.661-1.911-11.139-4.172-16.394-6.769V177.38z M155.818,72.3l16.395,14.118
			v27.249l-16.395-14.119V72.3z M172.213,140.587v89.928c-0.524-0.402-1.048-0.804-1.565-1.215
			c-5.55-4.415-10.506-9.19-14.831-14.26v-88.571L172.213,140.587z M119.025,119.123l16.394-14.118v64.813
			c-0.259-2.2-0.429-4.414-0.501-6.641c-0.177-5.504-4.69-9.872-10.194-9.872h-5.699V119.123z M82.232,114.126l16.395,12.016v27.165
			H82.232V114.126z M390.974,491.601H121.026L62.007,173.704h53.335c3.615,27.259,18.492,52.377,42.609,71.561
			c26.464,21.048,61.285,32.64,98.049,32.64c36.764,0,71.585-11.592,98.049-32.64c24.117-19.183,38.995-44.301,42.609-71.561h53.335
			L390.974,491.601z"/>
	</g>
</g>
<g>
	<g>
		<path d="M320.87,335.7c-17.474-11.509-40.513-17.847-64.87-17.847s-47.396,6.338-64.871,17.847
			c-18.789,12.373-29.136,29.257-29.136,47.544s10.348,35.17,29.136,47.544c17.475,11.509,40.514,17.847,64.871,17.847
			s47.396-6.338,64.871-17.847c18.789-12.373,29.136-29.257,29.136-47.544S339.659,348.073,320.87,335.7z M256,428.235
			c-39.9,0-73.609-20.603-73.609-44.991s33.708-44.991,73.609-44.991s73.609,20.603,73.609,44.991S295.9,428.235,256,428.235z"/>
	</g>
</g>
<g>
	<g>
		<path d="M294.816,373.044H254.98c-5.632,0-10.199,4.566-10.199,10.199s4.567,10.199,10.199,10.199h39.837
			c5.632,0,10.199-4.566,10.199-10.199S300.449,373.044,294.816,373.044z"/>
	</g>
</g>
<g>
	<g>
		<path d="M223.362,373.044h-6.18c-5.632,0-10.199,4.566-10.199,10.199s4.567,10.199,10.199,10.199h6.18
			c5.632,0,10.199-4.566,10.199-10.199S228.994,373.044,223.362,373.044z"/>
	</g>
</g>
<g>
</g>
<g>
</g>
<g>
</g>
<g>
</g>
<g>
</g>
<g>
</g>
<g>
</g>
<g>
</g>
<g>
</g>
<g>
</g>
<g>
</g>
<g>
</g>
<g>
</g>
<g>
</g>
<g>
</g>
</svg>
