<?xml version="1.0" encoding="utf-8"?>
<!-- Generator: Adobe Illustrator 23.1.0, SVG Export Plug-In . SVG Version: 6.00 Build 0)  -->
<!DOCTYPE svg PUBLIC "-//W3C//DTD SVG 1.1//EN" "http://www.w3.org/Graphics/SVG/1.1/DTD/svg11.dtd" [
	<!ENTITY ns_extend "http://ns.adobe.com/Extensibility/1.0/">
	<!ENTITY ns_ai "http://ns.adobe.com/AdobeIllustrator/10.0/">
	<!ENTITY ns_graphs "http://ns.adobe.com/Graphs/1.0/">
	<!ENTITY ns_vars "http://ns.adobe.com/Variables/1.0/">
	<!ENTITY ns_imrep "http://ns.adobe.com/ImageReplacement/1.0/">
	<!ENTITY ns_sfw "http://ns.adobe.com/SaveForWeb/1.0/">
	<!ENTITY ns_custom "http://ns.adobe.com/GenericCustomNamespace/1.0/">
	<!ENTITY ns_adobe_xpath "http://ns.adobe.com/XPath/1.0/">
]>
<svg version="1.1" id="Capa_1" xmlns:x="&ns_extend;" xmlns:i="&ns_ai;" xmlns:graph="&ns_graphs;"
	 xmlns="http://www.w3.org/2000/svg" xmlns:xlink="http://www.w3.org/1999/xlink" x="0px" y="0px" viewBox="0 0 512 512"
	 style="enable-background:new 0 0 512 512;" xml:space="preserve">
<metadata>
	<sfw  xmlns="&ns_sfw;">
		<slices></slices>
		<sliceSourceBounds  bottomLeftOrigin="true" height="414.4" width="512" x="0" y="48.8"></sliceSourceBounds>
	</sfw>
</metadata>
<path d="M468,200.3h-36.5v-60c0-50.4-41-91.4-91.4-91.4h-40.3c-5.5,0-10,4.5-10,10s4.5,10,10,10h40.3c39.4,0,71.4,32.1,71.4,71.4
	v223.6L333.6,434c-6.6,5.9-15.1,9.2-24,9.2h-9.8c2.4-4.8,3.8-10.2,3.8-16c0-19.8-16.1-36-36-36h-24.9c-19.8,0-36,16.1-36,36
	c0,19.8,16.1,36,36,36h12.5h12.5h42c13.8,0,27.1-5.1,37.4-14.3l78.4-70.5H468c24.3,0,44-19.7,44-44v-90.1
	C512,220,492.3,200.3,468,200.3L468,200.3z M255.1,443.2h-12.5c-8.8,0-16-7.2-16-16s7.2-16,16-16h24.9c8.8,0,16,7.2,16,16
	s-7.2,16-16,16H255.1z M492,334.4c0,13.2-10.8,24-24,24h-36.5v-138H468c13.2,0,24,10.8,24,24V334.4z"/>
<path d="M211.8,68.8c5.5,0,10-4.5,10-10s-4.5-10-10-10h-39.9c-50.4,0-91.4,41-91.4,91.4v60H44c-24.3,0-44,19.7-44,44v90.1
	c0,24.3,19.7,44,44,44h46.5c5.5,0,10-4.5,10-10V140.3c0-39.4,32.1-71.4,71.4-71.4L211.8,68.8L211.8,68.8z M80.5,358.3H44
	c-13.2,0-24-10.8-24-24v-90.1c0-13.2,10.8-24,24-24h36.5L80.5,358.3L80.5,358.3z"/>
<path d="M373,300.7V180c0-22.9-18.6-41.5-41.5-41.5h-145c-22.9,0-41.5,18.6-41.5,41.5v122.4l-19.1,23.4c-2.4,3-2.9,7.1-1.3,10.6
	s5.2,5.7,9,5.7h197.9C354.3,342.2,373,323.6,373,300.7z M162.6,312.3c1.5-1.8,2.2-4,2.2-6.3V180c0-11.9,9.7-21.5,21.5-21.5h145
	c11.9,0,21.5,9.7,21.5,21.5v120.7c0,11.9-9.7,21.5-21.5,21.5H154.6L162.6,312.3z"/>
<path d="M320,251.2h-3.3c-4.2-23.6-22.8-42.3-46.5-46.5v-6.9c0-5.5-4.5-10-10-10s-10,4.5-10,10v6.9c-23.6,4.2-42.3,22.8-46.5,46.5
	h-3.3c-5.5,0-10,4.5-10,10s4.5,10,10,10h12.4h94.7H320c5.5,0,10-4.5,10-10S325.6,251.2,320,251.2L320,251.2z M224.2,251.2
	c4.4-15.8,18.9-27.4,36-27.4c17.1,0,31.6,11.6,36,27.4H224.2z"/>
<path d="M247.9,62.6c1.6,3.9,5.7,6.4,10,6.1c4.3-0.3,8.1-3.5,9-7.8c2-8.7-8.2-15.5-15.5-10.4C247.5,53.3,246.1,58.4,247.9,62.6
	L247.9,62.6z"/>
</svg>
