<?xml version="1.0" encoding="utf-8"?>
<!-- Generator: Adobe Illustrator 23.1.0, SVG Export Plug-In . SVG Version: 6.00 Build 0)  -->
<!DOCTYPE svg PUBLIC "-//W3C//DTD SVG 1.1//EN" "http://www.w3.org/Graphics/SVG/1.1/DTD/svg11.dtd" [
	<!ENTITY ns_extend "http://ns.adobe.com/Extensibility/1.0/">
	<!ENTITY ns_ai "http://ns.adobe.com/AdobeIllustrator/10.0/">
	<!ENTITY ns_graphs "http://ns.adobe.com/Graphs/1.0/">
	<!ENTITY ns_vars "http://ns.adobe.com/Variables/1.0/">
	<!ENTITY ns_imrep "http://ns.adobe.com/ImageReplacement/1.0/">
	<!ENTITY ns_sfw "http://ns.adobe.com/SaveForWeb/1.0/">
	<!ENTITY ns_custom "http://ns.adobe.com/GenericCustomNamespace/1.0/">
	<!ENTITY ns_adobe_xpath "http://ns.adobe.com/XPath/1.0/">
]>
<svg version="1.1" id="Capa_1" xmlns:x="&ns_extend;" xmlns:i="&ns_ai;" xmlns:graph="&ns_graphs;"
	 xmlns="http://www.w3.org/2000/svg" xmlns:xlink="http://www.w3.org/1999/xlink" x="0px" y="0px" viewBox="0 0 512 512"
	 style="enable-background:new 0 0 512 512;" xml:space="preserve">
<metadata>
	<sfw  xmlns="&ns_sfw;">
		<slices></slices>
		<sliceSourceBounds  bottomLeftOrigin="true" height="512" width="444.4" x="33.8" y="0"></sliceSourceBounds>
	</sfw>
</metadata>
<path d="M404.8,306l-12.8-190.3c-0.4-5.3-4.7-9.3-10-9.3h-71.1V85.9c0-47.4-38.6-85.9-85.9-85.9S139,38.6,139,85.9v20.4H63.8
	c-5.3,0-9.6,4.1-10,9.3L47,216.5c-0.4,5.5,3.8,10.3,9.3,10.6c5.5,0.4,10.3-3.8,10.7-9.3l6.2-91.5H139v37.5c0,5.5,4.5,10,10,10
	s10-4.5,10-10v-37.5h131.9v37.5c0,5.5,4.5,10,10,10s10-4.5,10-10v-37.5h61.7l11.8,175.3c-3.9-0.4-7.8-0.6-11.7-0.6
	c-41.3,0-79.6,25-96.4,62.8c-5.5,12.4-8.6,25.8-9,39.4H54.5l6.6-97.5c0.4-5.5-3.8-10.3-9.3-10.6c-5.5-0.4-10.3,3.8-10.7,9.3
	l-7.3,108.2c-0.2,2.8,0.8,5.5,2.7,7.5c1.9,2,4.5,3.2,7.3,3.2h224.7c8,50.3,51.7,88.9,104.2,88.9c58.2,0,105.5-47.3,105.5-105.5
	C478.2,359.5,447.3,319.6,404.8,306L404.8,306z M159,106.3V85.9c0-36.4,29.6-65.9,65.9-65.9s65.9,29.6,65.9,65.9v20.4H159z
	 M372.7,492c-45.5,0-82.8-35.8-85.4-80.7c0-0.3,0-0.6,0-0.9c-0.1-1.3-0.1-2.6-0.1-4c0-47.1,38.4-85.5,85.5-85.5
	c46.5,0,85.5,39,85.5,85.5C458.2,453.6,419.8,492,372.7,492L372.7,492z"/>
<path d="M372.7,340.9c-5.5,0-10,4.5-10,10v51.5l-24.3,24.3c-3.9,3.9-3.9,10.2,0,14.1c2,2,4.5,2.9,7.1,2.9s5.1-1,7.1-2.9l27.2-27.2
	c1.9-1.9,2.9-4.4,2.9-7.1v-55.6C382.7,345.3,378.2,340.9,372.7,340.9L372.7,340.9z"/>
<path d="M48.5,270c7.6,5,17.6-2.3,15.2-11c-1.1-4.1-4.9-7.1-9.1-7.3c-4.3-0.2-8.3,2.4-9.8,6.4C43,262.4,44.6,267.5,48.5,270z"/>
<path d="M290.4,296.3c-1.7-11.6-6.8-24-15.9-39c-5.8-9.5-5.4-16.1-4.5-22.1c0.6-4,2.9-9.4,4.1-12c0.9-2.1,1.4-3.3,0.3-4.6L273,217
	l-1.8,0.9c-9.7,4.6-17.2,13.2-21,24.2c-1.8,5-2.5,9.5-2.2,14.3c-1.8-3.6-2.4-8.4-1.4-13.1c0.6-2.6,1.9-5.7,3.6-9.6
	c1.8-4.2,4.1-9.5,6.1-16c4.5-14.6-1.1-34.6-12.2-43.8l-4.9-4l0.5,6.3c1.2,14.1-0.2,21.7-5.2,29.2c-5.1,7.6-9.6,10.9-15.4,15.2
	c-2.6,1.9-5.5,4.1-8.8,6.9c-8.8,7.5-14.1,15.2-16.7,24.2c-1.3,4.5-1.6,8.8-1.3,12.8c-2.5-4.7-2.6-9.9-0.2-15.7
	c3.4-8.3,5.6-15.2,4.9-21.9c-0.4-4.3-3.7-11.8-7.4-15.4l-5.1-4.9l0.5,7c0.9,11.3-5.4,21.2-12,31.7c-6.7,10.5-13.6,21.4-13.7,34.6
	c-0.1,7,0.6,11.7,2.1,15.8c-2-1.6-3.9-3.7-5.4-6.3l-4.2-7.3l-0.8,8.4c-1.4,14.4,5.1,29.7,7.9,35.7c6.4,13.3,17,24.2,30,30.7
	c6.3,3.2,13.1,4.8,19.7,4.8c5.2,0,10.3-1,14.9-3.1c3.5-1.6,7.3-3.8,6.5-7.1c-0.4-1.5-1.8-3.2-6.5-2.9c-11.4,0.8-22.5-7.4-27.5-15.8
	c-3.5-5.9-7.1-9-14.4-14.2c0-0.1,0.1-0.3,0.2-0.5l0.2-0.4c0.7-2.7,0.8-5.1,0.8-7.3c0-2.1,0.1-3.8,0.7-5.2c0.2,0,0.4,0.1,0.7,0.2
	c13.3,3.2,28-2.5,34.3-13.1c1.6-2.7-0.2-4.6-1.1-5.5c-0.6-0.6-1.4-1.4-2.1-2.8c-0.9-1.8-0.7-3.5-0.6-6c0.2-2.2,0.4-4.7-0.2-7.7
	c1.8,0.6,3.2,1.6,4,2.3c0.4,0.3,1.1,1.2,1.8,2c1.9,2.4,4.5,5.7,8,7.2l8,3.5l-4.7-7.4c-1.7-2.6-2.5-7.7-2.1-11.8
	c0.6,0.3,1.2,0.6,1.8,0.9c2.7,1.4,5,2.6,7.3,5c1.4,1.5,2.3,3.3,2.5,5.4l0.3,2.1l2.1,0.3c9,1.1,17.5,5.4,22.1,11.2
	c9,11.2,10.4,28.4,3.6,45.9c-0.9,2.2-2.6,6.8,0.3,8.6c2.7,1.7,5.7-0.9,8.5-3.9C291.1,327.7,292,306.6,290.4,296.3z"/>
</svg>
