<?xml version="1.0" encoding="utf-8"?>
<!-- Generator: Adobe Illustrator 23.1.0, SVG Export Plug-In . SVG Version: 6.00 Build 0)  -->
<!DOCTYPE svg PUBLIC "-//W3C//DTD SVG 1.1//EN" "http://www.w3.org/Graphics/SVG/1.1/DTD/svg11.dtd" [
	<!ENTITY ns_extend "http://ns.adobe.com/Extensibility/1.0/">
	<!ENTITY ns_ai "http://ns.adobe.com/AdobeIllustrator/10.0/">
	<!ENTITY ns_graphs "http://ns.adobe.com/Graphs/1.0/">
	<!ENTITY ns_vars "http://ns.adobe.com/Variables/1.0/">
	<!ENTITY ns_imrep "http://ns.adobe.com/ImageReplacement/1.0/">
	<!ENTITY ns_sfw "http://ns.adobe.com/SaveForWeb/1.0/">
	<!ENTITY ns_custom "http://ns.adobe.com/GenericCustomNamespace/1.0/">
	<!ENTITY ns_adobe_xpath "http://ns.adobe.com/XPath/1.0/">
]>
<svg version="1.1" id="Capa_1" xmlns:x="&ns_extend;" xmlns:i="&ns_ai;" xmlns:graph="&ns_graphs;"
	 xmlns="http://www.w3.org/2000/svg" xmlns:xlink="http://www.w3.org/1999/xlink" x="0px" y="0px" viewBox="0 0 512 512"
	 style="enable-background:new 0 0 512 512;" xml:space="preserve">
<style type="text/css">
	.st0{fill:none;}
</style>
<metadata>
	<sfw  xmlns="&ns_sfw;">
		<slices></slices>
		<sliceSourceBounds  bottomLeftOrigin="true" height="556" width="1056.1" x="0.4" y="-35.9"></sliceSourceBounds>
	</sfw>
</metadata>
<path d="M511.5,499.4l-28.2-196.9c-0.7-4.9-5-8.6-9.9-8.6h-28.8v-10.2c0-33.3-27.1-60.4-60.4-60.4s-60.4,27.1-60.4,60.4v10.2h-20V10
	c0-5.5-4.5-10-10-10H10.4c-5.5,0-10,4.5-10,10v490.8c0,5.5,4.5,10,10,10h97.1c5.5,0,10-4.5,10-10s-4.5-10-10-10H20.4V20h263.4v283
	l-28.4,187.8h-59.9c-5.5,0-10,4.5-10,10s4.5,10,10,10l306.1,0C507.6,510.8,512.4,505.3,511.5,499.4z M343.8,283.7
	c0-22.3,18.1-40.4,40.4-40.4c22.3,0,40.4,18.1,40.4,40.4v10.2h-80.8L343.8,283.7L343.8,283.7z M275.6,490.8l26.8-176.9h21.4v21.5
	c0,5.5,4.5,10,10,10c5.5,0,10-4.5,10-10v-21.5h80.8v21.5c0,5.5,4.5,10,10,10s10-4.5,10-10v-21.5h20.1l25.4,176.9L275.6,490.8z"/>
<path d="M76.2,452.4h75.6c0,0,0,0,0,0s0,0,0,0h75.6c5.5,0,10-4.5,10-10v-83.8c0,0,0-0.1,0-0.1c0,0,0-0.1,0-0.1V65.2
	c0-5.5-4.5-10-10-10H76.2c-5.5,0-10,4.5-10,10v160.3c-14.1,4.3-24.4,17.4-24.4,32.9c0,15.5,10.3,28.6,24.4,32.9v151.2
	C66.2,448,70.6,452.4,76.2,452.4L76.2,452.4z M86.2,225.5C86.2,225.5,86.2,225.5,86.2,225.5l0-54h55.7v177H86.2v-57.2
	c14.5-4.5,24.6-18.3,24.3-33.5C110.2,243.1,100.2,229.8,86.2,225.5z M217.5,348.5h-55.7v-177h55.7V348.5z M86.2,368.5h55.7v63.9
	H86.2V368.5z M161.8,432.4v-63.9h55.7v63.9H161.8z M217.5,151.5h-55.7V75.2h55.7V151.5z M141.8,75.2v76.3H86.2V75.2H141.8z
	 M61.8,258.4c0-7.9,6.4-14.3,14.3-14.4c0,0,0,0,0,0c7.9,0,14.4,6.4,14.4,14.4c0,7.9-6.4,14.4-14.4,14.4c0,0,0,0,0,0
	C68.2,272.7,61.8,266.3,61.8,258.4L61.8,258.4z"/>
<path d="M160.4,498.2c-1.7-4-5.9-6.5-10.2-6.1c-4.1,0.4-7.6,3.4-8.7,7.4c-2.4,8.8,7.9,16,15.4,10.8
	C160.7,507.6,162.2,502.5,160.4,498.2L160.4,498.2z"/>
<rect x="649.5" y="-8.1" class="st0" width="406.9" height="412"/>
<path d="M429.1,428.3c-1.2-7.8-4.6-16.1-10.7-26.2c-3.9-6.4-3.6-10.9-3.1-14.9c0.4-2.7,2-6.3,2.7-8.1c0.6-1.4,1-2.2,0.2-3.1l-0.9-1
	l-1.2,0.6c-6.5,3.1-11.5,8.9-14.1,16.3c-1.2,3.4-1.7,6.4-1.4,9.6c-1.2-2.4-1.6-5.7-0.9-8.8c0.4-1.8,1.3-3.9,2.4-6.5
	c1.2-2.8,2.8-6.4,4.1-10.8c3-9.8-0.7-23.3-8.2-29.4l-3.3-2.7l0.4,4.2c0.8,9.5-0.1,14.6-3.5,19.7c-3.4,5.1-6.5,7.4-10.3,10.2
	c-1.7,1.3-3.7,2.8-5.9,4.6c-5.9,5-9.5,10.2-11.3,16.3c-0.9,3-1,5.9-0.9,8.6c-1.7-3.2-1.7-6.7-0.1-10.6c2.3-5.6,3.7-10.2,3.3-14.7
	c-0.3-2.9-2.5-7.9-5-10.4l-3.4-3.3l0.4,4.7c0.6,7.6-3.6,14.3-8.1,21.3c-4.5,7.1-9.1,14.4-9.2,23.3c0,4.7,0.4,7.9,1.4,10.6
	c-1.3-1.1-2.7-2.5-3.6-4.2l-2.8-4.9l-0.5,5.6c-0.9,9.7,3.4,20,5.3,24c4.3,9,11.4,16.3,20.2,20.6c4.3,2.1,8.8,3.2,13.2,3.2
	c3.5,0,6.9-0.7,10-2.1c2.3-1.1,4.9-2.6,4.4-4.8c-0.3-1-1.2-2.2-4.4-2c-7.7,0.5-15.1-5-18.5-10.6c-2.3-4-4.8-6.1-9.7-9.6
	c0-0.1,0.1-0.2,0.1-0.3l0.1-0.3c0.5-1.8,0.5-3.4,0.6-4.9c0-1.4,0.1-2.6,0.5-3.5c0.1,0,0.3,0.1,0.5,0.1c9,2.1,18.9-1.7,23.1-8.8
	c1.1-1.8-0.2-3.1-0.8-3.7c-0.4-0.4-0.9-0.9-1.4-1.9c-0.6-1.2-0.5-2.4-0.4-4c0.1-1.5,0.2-3.2-0.1-5.2c1.2,0.4,2.1,1.1,2.7,1.5
	c0.2,0.2,0.7,0.8,1.2,1.4c1.3,1.6,3,3.8,5.4,4.9l5.4,2.4l-3.2-5c-1.1-1.8-1.7-5.2-1.4-8c0.4,0.2,0.8,0.4,1.2,0.6
	c1.8,0.9,3.4,1.7,4.9,3.3c1,1,1.5,2.2,1.7,3.6l0.2,1.4l1.4,0.2c6,0.7,11.8,3.6,14.9,7.5c6.1,7.6,7,19.1,2.4,30.9
	c-0.6,1.5-1.8,4.5,0.2,5.8c1.8,1.1,3.8-0.6,5.7-2.6C429.5,449.5,430.1,435.3,429.1,428.3z"/>
<rect x="601.5" y="135.9" class="st0" width="406.9" height="412"/>
</svg>
