<?xml version="1.0" encoding="utf-8"?>
<!-- Generator: Adobe Illustrator 23.1.0, SVG Export Plug-In . SVG Version: 6.00 Build 0)  -->
<!DOCTYPE svg PUBLIC "-//W3C//DTD SVG 1.1//EN" "http://www.w3.org/Graphics/SVG/1.1/DTD/svg11.dtd" [
	<!ENTITY ns_extend "http://ns.adobe.com/Extensibility/1.0/">
	<!ENTITY ns_ai "http://ns.adobe.com/AdobeIllustrator/10.0/">
	<!ENTITY ns_graphs "http://ns.adobe.com/Graphs/1.0/">
	<!ENTITY ns_vars "http://ns.adobe.com/Variables/1.0/">
	<!ENTITY ns_imrep "http://ns.adobe.com/ImageReplacement/1.0/">
	<!ENTITY ns_sfw "http://ns.adobe.com/SaveForWeb/1.0/">
	<!ENTITY ns_custom "http://ns.adobe.com/GenericCustomNamespace/1.0/">
	<!ENTITY ns_adobe_xpath "http://ns.adobe.com/XPath/1.0/">
]>
<svg version="1.1" id="Capa_1" xmlns:x="&ns_extend;" xmlns:i="&ns_ai;" xmlns:graph="&ns_graphs;"
	 xmlns="http://www.w3.org/2000/svg" xmlns:xlink="http://www.w3.org/1999/xlink" x="0px" y="0px" viewBox="0 0 512 512"
	 style="enable-background:new 0 0 512 512;" xml:space="preserve">
<metadata>
	<sfw  xmlns="&ns_sfw;">
		<slices></slices>
		<sliceSourceBounds  bottomLeftOrigin="true" height="512" width="429.7" x="41.1" y="0"></sliceSourceBounds>
	</sfw>
</metadata>
<path d="M470.9,213.8c0-12.1-5.4-23-13.9-30.4c8.5-7.4,13.9-18.3,13.9-30.4c0-22.3-18.1-40.4-40.4-40.4h-8.7c-4.8,0-9.4,1-13.5,2.9
	V38.3C408.3,17.2,391.1,0,370,0H201.6c-21.1,0-38.3,17.2-38.3,38.3v80.1c-10.1-11.2-23.6-19.1-39.5-22.3
	c-12.9-2.5-25.3,7.8-25.3,20.9v122.7c0,15.5-2.8,30.5-8.2,44.8c-8.6,22.5-18.7,56.6-19.3,92.7l-27.9,37.6c-1.3,1.7-2,3.8-2,6V502
	c0,5.5,4.5,10,10,10h157c2.9,0,5.7-1.3,7.6-3.6l34.3-40.7c16.3-1.9,74.6-10.8,106.7-45H370c21.1,0,38.3-17.2,38.3-38.3v-11.3
	c4.1,1.8,8.7,2.9,13.5,2.9h8.7c22.3,0,40.4-18.1,40.4-40.4c0-12.1-5.4-23-13.9-30.4c8.5-7.4,13.9-18.3,13.9-30.4s-5.4-23-13.9-30.4
	C465.5,236.9,470.9,226,470.9,213.8L470.9,213.8z M421.8,132.6h8.7c11.3,0,20.4,9.2,20.4,20.4c0,11.3-9.2,20.4-20.4,20.4h-8.7
	c-7.4,0-13.5-6.1-13.5-13.5v-13.8C408.3,138.6,414.3,132.6,421.8,132.6z M304.6,20v2.2c0,10.3-8.4,18.7-18.7,18.7
	s-18.7-8.4-18.7-18.7V20L304.6,20z M388.3,384.5c0,10.1-8.2,18.3-18.3,18.3H201.6c-10.1,0-18.3-8.2-18.3-18.3v-52.6
	c0-5.5-4.5-10-10-10s-10,4.5-10,10v52.6v0c0,21.1,17.2,38.3,38.3,38.3h123.8c-33.5,21.4-80.6,25.4-81.2,25.5
	c-2.7,0.2-5.1,1.5-6.9,3.5L203.4,492H61.1v-67.8L89,386.6c1.3-1.7,2-3.8,2-6c0-34.3,9.8-67.3,18-89c6.3-16.6,9.5-34,9.5-51.9V117
	c0-0.7,0.7-1.4,1.4-1.3c25.9,5.1,43.3,28.3,43.3,57.7v70.4c0,5.5,4.5,10,10,10s10-4.5,10-10v-70.4V38.3c0-10.1,8.2-18.3,18.3-18.3
	h45.6v2.2c0,21.4,17.4,38.7,38.7,38.7c21.4,0,38.7-17.4,38.7-38.7V20H370c10.1,0,18.3,8.2,18.3,18.3L388.3,384.5L388.3,384.5z
	 M450.9,335.6c0,11.3-9.2,20.4-20.4,20.4h-8.7c-7.4,0-13.5-6.1-13.5-13.5v-13.8c0-7.4,6.1-13.5,13.5-13.5h8.7
	C441.7,315.1,450.9,324.3,450.9,335.6z M450.9,274.7c0,11.3-9.2,20.4-20.4,20.4h-8.7c-7.4,0-13.5-6.1-13.5-13.5v-13.8
	c0-7.4,6.1-13.5,13.5-13.5h8.7C441.7,254.3,450.9,263.4,450.9,274.7z M421.8,234.3c-7.4,0-13.5-6.1-13.5-13.5v-13.8
	c0-7.4,6.1-13.5,13.5-13.5h8.7c11.3,0,20.4,9.2,20.4,20.4c0,11.3-9.2,20.4-20.4,20.4L421.8,234.3L421.8,234.3z"/>
<path d="M309.6,286.5h-47.8c-19.1,0-34.6,15.5-34.6,34.6s15.5,34.6,34.6,34.6h47.8c19.1,0,34.6-15.5,34.6-34.6
	S328.7,286.5,309.6,286.5z M309.6,335.7h-47.8c-8,0-14.6-6.5-14.6-14.6s6.5-14.6,14.6-14.6h47.8c8,0,14.6,6.5,14.6,14.6
	S317.6,335.7,309.6,335.7z"/>
<path d="M182.6,283.4c-2.1-5-8-7.5-13.1-5.4c-5,2.1-7.5,8-5.4,13.1c2.1,5,8,7.5,13.1,5.4C182.2,294.4,184.7,288.4,182.6,283.4z"/>
<path d="M347.3,215.1H344c-4.2-23.6-22.8-42.3-46.5-46.5v-6.9c0-5.5-4.5-10-10-10c-5.5,0-10,4.5-10,10v6.9
	c-23.6,4.2-42.3,22.8-46.5,46.5h-3.3c-5.5,0-10,4.5-10,10s4.5,10,10,10h12.4h94.7h12.4c5.5,0,10-4.5,10-10S352.8,215.1,347.3,215.1
	L347.3,215.1z M251.5,215.1c4.4-15.8,18.9-27.4,36-27.4c17.1,0,31.6,11.6,36,27.4H251.5z"/>
</svg>
