<?xml version="1.0" encoding="utf-8"?>
<!-- Generator: Adobe Illustrator 23.1.0, SVG Export Plug-In . SVG Version: 6.00 Build 0)  -->
<!DOCTYPE svg PUBLIC "-//W3C//DTD SVG 1.1//EN" "http://www.w3.org/Graphics/SVG/1.1/DTD/svg11.dtd" [
	<!ENTITY ns_extend "http://ns.adobe.com/Extensibility/1.0/">
	<!ENTITY ns_ai "http://ns.adobe.com/AdobeIllustrator/10.0/">
	<!ENTITY ns_graphs "http://ns.adobe.com/Graphs/1.0/">
	<!ENTITY ns_vars "http://ns.adobe.com/Variables/1.0/">
	<!ENTITY ns_imrep "http://ns.adobe.com/ImageReplacement/1.0/">
	<!ENTITY ns_sfw "http://ns.adobe.com/SaveForWeb/1.0/">
	<!ENTITY ns_custom "http://ns.adobe.com/GenericCustomNamespace/1.0/">
	<!ENTITY ns_adobe_xpath "http://ns.adobe.com/XPath/1.0/">
]>
<svg version="1.1" id="Слой_1" xmlns:x="&ns_extend;" xmlns:i="&ns_ai;" xmlns:graph="&ns_graphs;"
	 xmlns="http://www.w3.org/2000/svg" xmlns:xlink="http://www.w3.org/1999/xlink" x="0px" y="0px"
	 viewBox="0 0 476.8074951 276.1025391" style="enable-background:new 0 0 476.8074951 276.1025391;" xml:space="preserve">
<metadata>
	<sfw  xmlns="&ns_sfw;">
		<slices></slices>
		<sliceSourceBounds  bottomLeftOrigin="true" height="246.2436371" width="451" x="73" y="298.5894775"></sliceSourceBounds>
	</sfw>
</metadata>
<g>
	<path d="M14.7872343,180.0599823c0-0.3333282,0-0.6666718-0.000001-1c0.2217865-0.2473755,0.4435749-0.4947662,0.6653643-0.7421417
		c0.180645-0.1511078,0.3607874-0.3028107,0.5404301-0.4551239c2.9231062,0,5.8462133,0,9.5620718,0
		c-1.540123,1.9224396-2.4799118,3.0955353-3.9823685,4.9709625c3.8848667-0.8858337,6.8359642,1.6985931,10.1527252,0.2275238
		l0.1762791-0.1113281l-0.1051254,0.1831512c-1.0036736-1.0458374-1.4267311-2.1781158-0.5630112-3.5247803
		c3.5185719-1.0986481,6.9028111-2.3244324,9.6794415-4.9055786c0.7199593-0.6692657,2.135006-0.5778046,3.2175903-0.8826294
		c0.1828117-0.0514832,0.2983513-0.3419037,0.5564194-0.658783c-1.1956329-0.3192902-2.2647896-0.6048126-3.6322708-0.9700012
		c0.6965599-1.6175079,1.3943024-3.2377625,2.1139336-4.908844c-0.2117882-1.0036621-0.4453392-2.1104889-0.6490593-3.0759125
		c-2.4061203-0.3809814-4.6398849-0.7346649-6.8461914-1.0839996c-0.9107094-1.0255432-1.7639999-1.9864197-2.6214294-2.9519653
		c2.5230598-2.0532379,4.9150696-3.9998322,7.3954201-6.0183258c1.0536652,0.2123413,2.2965164,0.4627991,3.4415474,0.6935577
		c1.3579102-1.6898346,2.5426483-3.1641693,3.692215-4.5947266c0.6042976,0.4002838,0.8788528,0.5821381,1.1534119,0.7639923
		c-0.0545197,0.1628876-0.1090469,0.3257599-0.163578,0.4886475c0.0870171-0.1304474,0.1740341-0.2608795,0.2610474-0.3913269
		c1.9946518,0.6549988,3.9893036,1.3099976,5.9839554,1.9649963c-1.6070099,0.9669495-3.214016,1.9338989-5.0167046,3.0185852
		c1.144455,2.7961578,2.6787682,4.7317963,5.822567,4.7954407l0.3108673,0.3064575
		c0.9798546,4.5008698,1.959713,9.0017395,2.9190216,13.4082336c-1.2906609,0.6453552-2.1467171,1.07341-3.0027695,1.5014648
		c-1.2857971,0.1305084-2.5715904,0.2610168-4.1547699,0.4217072c1.3813133,0.6003571,2.5083542,1.0901947,3.8867111,1.68927
		c0.0703697-0.9756622,0.1151466-1.5964508,0.1599197-2.2172546c1.2810936-0.2142944,2.5621834-0.4286041,3.0382767-0.5082397
		c2.5485535-2.2257233,4.4921227-3.9230957,6.508091-5.6837006c-1.2739182-0.1186676-2.5018196-0.2330475-4.4876633-0.418045
		c1.770092-1.7991791,2.9385872-2.9868774,4.456543-4.5297852c-1.8971939-0.4530334-3.147438-0.7515717-4.2978058-1.0262604
		c-1.2483635-1.9477692-2.3965759-3.7392731-3.4079628-5.3173065c-2.0089607-0.2304535-3.6232758-0.4156342-5.2375908-0.6008148
		c0.0022583-0.2814484,0.0045166-0.5628967,0.0067749-0.8443604c1.4254417-0.467392,2.8508797-0.9347839,4.1829338-1.3715668
		c-0.7067871-1.0643463-1.246418-1.8769531-1.7860489-2.6895752c1.2200089-0.6607971,2.4400177-1.3216095,3.762867-2.0381012
		c0.3381271-0.8978119,0.7290535-1.9358063,1.1871948-3.1522827c-1.417984-0.6178589-2.5920029-1.129425-3.7660179-1.6409912
		l-0.2346687-0.2330475c-0.505497-0.9920044-1.5102043-2.0010376,0.0996246-2.9208832
		c0.3071594,0.2104797,0.6143188,0.4209595,0.2840462,0.1946411c0.3825455,0.1027222,0.006115,0.0016479-0.3703156-0.0994415
		c0.7999115-0.6853027,1.5352821-1.8557739,2.4108543-1.9722595c3.8705025-0.5148468,7.7815552-0.6220703,11.6795425-0.1082611
		c0.3471603,0.003952,0.6943283,0.0079193,1.0414886,0.0118866c3.1998444,0.8961334,6.1588593-1.2234497,9.3461914-0.4839172
		c-0.3696976-0.462738-0.7393951-0.9254608-1.1090927-1.3881836c1.2161179-0.3527222,2.4322281-0.7054291,3.5915222-1.0416565
		c-0.4508057-1.5274506-0.7636185-2.5873566-1.1091385-3.7580719c-3.0014267,0.1885681-5.7570496,0.3616943-8.459343,0.5314636
		c-2.1127396,1.427124-2.606514,3.6802673-2.1925507,6.224823c-0.3948212-0.0008087-0.7896423-0.0016327-1.1844635-0.0024567
		c-0.3137817-1.3568878-0.6275558-2.7137909-0.9413376-4.0706787c0.2277603-0.7302399,0.455513-1.4604797,0.7522202-2.4118042
		c-0.8644409,0.2299347-1.3035049,0.3467102-1.7425613,0.463501c-0.2990417-0.0145721-0.5980911-0.0291595-0.8971329-0.0437317
		c-0.3512878,0.3557281-0.7025833,0.711441-1.0538788,1.0671692c-0.810173-0.4556885-1.5825653-1.0183563-2.4459724-1.3233185
		c-0.4528198-0.1599274-1.0651817,0.1318665-1.6054955,0.2196503l0.0962029-0.0848389
		c-0.6901894,0.3504486-1.3803787,0.7008972-2.0705719,1.0513458c0,0,0.0886726,0.0904236,0.0886765,0.0904236
		c-1.2546158-0.7592926-2.5092316-1.5185852-3.9791222-2.4081573c-2.0490952,0.2656097-4.2656746,0.7250519-6.4941673,0.7928619
		c-2.1799927,0.0663147-4.5466766,1.4079895-6.8252602-0.9278717c0.0654869-0.6513977,0.1572647-1.5642853,0.2490425-2.4771576
		c0,0-0.0854683,0.0783844-0.0854683,0.0783844c1.4259911-0.0711823,2.8519859-0.1423645,4.277977-0.213562
		c-0.0103989-0.1007996-0.0208015-0.2016144-0.0312042-0.3024139c2.1975479,0.2076263,4.395092,0.4152679,6.5926361,0.6228943
		c0.163311-0.1652832,0.3261147-0.3310547,0.4884186-0.4973145c3.8783607,1.2387238,7.7203445,1.5683441,11.4680252-0.4588623
		c0.1634903-0.1651154,0.3263626-0.3308258,0.4886246-0.4971466c2.1006546-1.0887299,3.735672,0.2475281,5.4859924,1.037262
		c4.5011902,2.0309143,8.7479858,2.2767334,12.34021-1.8362122l-0.0975647,0.1004333
		c0.0495834,0.812027,0.0991669,1.6240387,0.1708221,2.797699c2.7740021,0.764801,5.713501,0.2579041,7.7560501-1.0066376
		c2.8031311,0.5237885,4.9722137,0.9290924,6.8889618,1.2872467c0-2.4828033,0-4.4705048,0-6.3783875
		c-0.7089844-0.6361084-1.4560776-1.3064194-3.0401382-2.7276611c3.1914673,0.4058914,5.2236862,0.6643524,7.2559128,0.9227982
		c0.3151627,0.0165939,0.6303329,0.0331802,0.9455032,0.0497742c0.3549728-0.3507233,0.7099533-0.7014465,1.0649261-1.0521698
		c0.8502197,0.0738907,1.7004395,0.1477966,2.7913284,0.2426224c-0.6953659-1.0565872-1.1832428-1.7978973-1.755928-2.6680679
		c0.7925949-0.6347809,1.4138718-1.1323547,2.035141-1.629921c0.074852,0.2858353,0.1496964,0.5716705,0.0875931,0.3344955
		c0.1587753,0.2175293-0.0118256-0.0161972-0.1824188-0.2499313c-0.1665878-0.4279556-0.3331757-0.8559189-0.5668945-1.4563446
		c-1.0354385,0.1728668-2.0551682,0.3431091-3.1985168,0.5339966c-0.4715652-0.7487793-0.8812256-1.3992691-1.2908936-2.0497589
		l0.2000732-0.1296921l-0.1248093,0.2032318c-0.5536957,0.5717239-1.1074066,1.1434402-1.651268,1.7049866
		c-1.4421844-0.7930374-2.8244171-1.5531082-4.2317963-2.3270035c0.196228-0.7119446,0.3419113-1.1730728,0.4476547-1.6431808
		c0.1055603-0.4693451,0.1711121-0.9476852,0.2541962-1.422081c-0.2797623-0.0753021-0.5595245-0.1506042-0.8392944-0.2259064
		c-0.5146942,1.3796768-1.0293808,2.7593536-1.6869125,4.5219193c-3.4100113-1.8050308-6.1148148-0.4043274-8.1916275,1.271347
		c-2.8856583-1.1082916-5.3170166-2.0420914-7.5910416-2.9154739c-1.6590729,0.6159897-3.0300446,1.1250076-4.2429733,1.5753555
		c-3.2365799-0.9813385-6.2284775-1.8884811-9.2822723-2.8143997c-0.3538513-0.6614761-0.7241058-1.3536224-0.8915253-1.6665878
		c-3.1280403-0.4659195-5.9461288-0.8856659-9.0095139-1.3419571c0.4745178-0.9382095,0.6899986-1.3642578,0.9054832-1.7903137
		c0.0983086-0.0260239,0.1966209-0.0520401,0.2949333-0.0780563c-0.0936432,0.0305939-0.1872864,0.0611954-0.2809296,0.0917892
		c-1.286335,0.8852386-2.57267,1.7704849-3.6923027,2.5410004c-0.4375763-0.4816132-1.2378273-1.3624039-2.0380783-2.2431946
		c-0.1819839-0.2013702-0.3630524-0.4035568-0.5432053-0.6065598c0.0745621-0.3188934,0.0530663-0.8379517,0.2380676-0.9267426
		c2.8960342-1.3898163,6.1420746-2.7860565,9.1239929-1.8218842c3.2073326,1.0370712,5.794796,0.437973,8.6373482-0.2224503
		c2.5873337-0.1390381,5.1746597-0.2780762,7.8034973-0.419342c0.7704544-0.5526733,1.6445465-1.1796875,2.5940399-1.8607941
		c0.4309006,0.7489471,0.6756973,1.1744308,0.9204941,1.5999069c-0.336792,0.0577698-0.673584,0.1155396-0.2049942,0.0351639
		c-0.3653717,0.3083267-0.1132431,0.0955658,0.1388855-0.1171951c0.7426453,0.1952133,1.4852905,0.3904266,2.3340912,0.6135406
		c0.5333481-1.1362381,0.9465103-2.0164337,1.3666611-2.9115067c-0.4455338-0.7841721-0.8435135-1.484642-1.513092-2.6631393
		c-2.9034576,0-5.9753036,0.1846848-9.0160751-0.0439606c-4.3911209-0.330162-8.7896118-1.1928558-12.4470978,1.7189789
		c-1.751297-0.2416992-3.2151985-0.4437332-4.6791-0.6457672c-0.3432312-0.0036545-0.6864586-0.007309-1.0296898-0.0109711
		c-1.1726265-0.0888824-2.345253-0.1777725-4.6591454-0.3531723c2.1133003-1.3030853,3.1756744-1.9581528,4.2017059-2.5908127
		c3.2360229,1.2764435,6.3960686,3.2524719,8.4007034-0.4805374c2.2436981-0.6229324,3.9829102-1.1057892,5.7221146-1.5886536
		c-0.0529327-0.3737869-0.1058655-0.7475739-0.1587982-1.1213608c-4.4796181-1.2260132-9.119709,0.4383316-13.8546715-0.2573547
		c-0.2068672-0.47892-0.4562073-1.0561676-0.7055511-1.6334152c0.0701981-0.0784836,0.1403885-0.1569748,0.2105827-0.2354584
		c-0.0392113,0.1088943-0.0784264,0.2177887-0.1176414,0.326683c-0.7087784,0.3129272-1.4175606,0.6258469-2.1263428,0.9387665
		c0-0.0000076,0.0858383-0.08535,0.0858383-0.0853577c-1.0621681-0.3014526-2.1243401-0.6029053-3.186512-0.9043655
		c0.0355911-0.2344284,0.0711823-0.4688568,0.1067696-0.7032852c1.7226982-0.4589844,3.4453926-0.9179688,5.2063179-1.3871384
		c1.200882,0.5610733,2.3602867,1.1027756,3.0296097,1.4154968c2.6367531-0.4225693,4.7268677-1.0163116,6.8148308-1.0088348
		c1.6195107,0.005806,2.9121895-0.2014465,3.9780464-1.4207306c1.0295486,0.6211395,2.0591049,1.2422867,3.0513687,1.8409271
		c1.999115-2.440094,1.999115-2.440094,0.9893646-4.8354111c-0.8973083,0.66362-1.5321655,2.0669785-3.0142746,1.0914764
		c-0.3402863-0.6582108-0.6805725-1.3164215-1.020752-1.9753189c0.0025406-0.3747635,0.0049591-0.748848,0.0073853-1.1229248
		c0.3929749-0.87397,0.7859573-1.7479401,1.2486115-2.7768555c0.5011292,0.7047195,0.8601456,1.2095871,1.2894211,1.8132553
		c0.7919769-0.7429428,1.5745468-1.4770584,2.3058319-2.163063c2.932045,0.4038239,5.6696396,0.8075638,8.4171829,1.1252747
		c0.3411179,0.039444,0.7350693-0.3780289,1.3805313-0.7374649c-1.2198792-1.1323318-2.2441864-2.0831375-3.2362366-3.0039902
		c0.4552536-0.9322205,0.8453903-1.7310944,1.426033-2.9200516c-1.6622925-0.3817978-2.9541931-0.6785355-4.2286911-0.9712601
		c-0.1875534-0.6096115-0.366684-1.1918182-0.5511093-1.7912521c-0.988327,0.2941284-1.7570419,0.5228958-2.3372345,0.6955643
		c-1.2435532-0.734787-2.3420105-1.3838425-3.1913071-1.8856735c-1.0404739,0.3610001-1.6619339,0.576622-2.2833939,0.792244
		c0,0-0.3066101-0.2273102-0.3066101-0.2273102c-0.3289032-1.4661484-0.657814-2.9322968-0.9876099-4.3983765
		c3.1107178-2.5510101,6.3424911-0.2527542,9.8095703-0.2371445c2.3243561-4.0455322,6.6058731-1.4049301,9.6562576-2.4905701
		c1.160141,0.6805267,2.130127,1.2494965,3.1409225,1.8424149c1.401825-0.7857742,2.6809235-1.5027542,3.6894073-2.0680389
		c2.121582,0,3.940979,0,5.7176208,0c1.2992935-1.0819016,2.5380783-2.1134186,3.6604004-3.0479622
		c-0.1659393-1.2603188-2.6146622-0.7214241-1.5110855-2.5173759l-0.0814133,0.0821533
		c1.1184464-0.313446,2.2369003-0.6268921,4.3036575-1.2061043c-1.8640823-1.6535873-2.9840393-2.6470871-4.1040039-3.6405869
		c-0.1593628-0.154995-0.3196487-0.309021-0.4808731-0.4620743c-1.0210114-0.4407158-2.0059662-1.1005096-3.0706711-1.2757149
		c-2.0986481-0.3453484-4.2955933-0.1916237-6.3509827-0.6741257c-2.0820389-0.4887581-4.6147537-0.7102356-5.2498322-3.6598206
		c0.7590561-0.5481186,1.4716568-0.9745331,2.0809708-1.516983c3.9862289-3.5488358,8.3045578-4.9040337,13.6316452-3.0199509
		c1.8365402,0.6495476,4.2077103,0.5633392,6.0106735-1.2694817c1.4476852-1.4716568,3.2276535-2.6164513,5.0069809-4.0222893
		c2.2114716-0.5005188,4.6081085-1.2890587,7.061058-1.5517883c7.2465057-0.7761459,14.5133514-1.3674545,21.7771149-1.9726448
		c1.3046875-0.1086998,2.6739044-0.1307144,3.9408875,0.1427917c2.4563141,0.5302505,4.733429,0.4449577,7.2741852-0.0172424
		c3.1650543-0.5757637,6.559967,0.1482162,9.8574677,0.2532768c2.7681427,0.088192,5.5622559,0.3342972,8.3020172,0.0686417
		c2.7820435-0.2697563,5.4969788-1.1669273,8.2671967-1.6364861c5.7861176-0.9807587,11.8811035-0.4169464,15.5006714-2.7317524
		c7.9767609-1.0030403,13.9514771,1.9629307,20.4656219,1.0620518c-0.4406586-0.6962242-0.6852112-1.0826073-1.2023468-1.8996811
		c1.9751129-0.8543491,3.8892517-1.6823311,6.561615-2.8382874c-5.2608643,0-9.7680359-0.0623188-14.2724915,0.0216446
		c-3.0650482,0.0571308-6.1275177,0.4366817-9.1882935,0.4040432c-0.7351837-0.0078392-1.4590149-1.0803204-2.1880646-1.6631756
		c0.8625793-0.1222858,1.725174-0.2445736,2.5877533-0.3668594c-0.0774994-0.2465267-0.155014-0.4930534-0.2325287-0.7395802
		c-0.758728,0.3995514-1.5174561,0.7991047-2.2761841,1.1986561c-0.7247162,0.0625191-1.4494324,0.1250381-2.916626,0.2516079
		c1.8789368-2.5592842,4.0947876-2.9927235,6.0474396-3.3601208c3.532486-0.66465,7.1650085-0.7781658,10.7400513-1.2427139
		c2.4490814-0.3182392,5.0983887-0.3595428,7.2572784-1.3760643c4.1041565-1.9324589,7.8462219-1.9692554,11.577713,0.6745605
		c1.5000763-0.5854607,2.8689423-1.1197166,4.4522247-1.7376595c1.411972,1.0071774,3.815567-0.7368183,4.9004669,1.7464638
		l-0.1844177,0.1318417c0,0,0.1142883-0.2047386,0.1142883-0.2047386c0.9730072,1.8135319,1.9460297,3.6270657,2.7275085,5.0836163
		c3.6303558,0.3486595,7.0536499,0.6774311,10.476944,1.0062027c-0.0305328-0.1356888-0.0610809-0.2713757-0.0916138-0.4070644
		c1.2320099-0.2057991,2.4640198-0.4115982,4.246048-0.7092743c-0.8252106,1.3116589-1.2003479,1.9079266-1.5960541,2.5369072
		c6.1572113,3.0594959,12.9250641,4.7299671,15.1526031,12.0786076c1.7748718,0.3633041,3.525238,0.7215958,5.2251282,1.0695457
		c0.6259766-0.9266357,1.1765137-1.7415886,1.6510925-2.4441147c3.0870972-0.6816368,5.9578247-1.61026,8.8911438-1.8958511
		c4.7013245-0.4577293,9.5593262,0.0866814,14.1434631-0.8304863c7.7010803-1.5407906,15.4373474-0.621254,23.1289978-1.252285
		c1.9814148-0.1625595,4.1942139-0.6265755,5.9368286,0.0234337c4.6902466,1.7495079,9.0915222,0.4754944,13.6264343-0.3611069
		c5.3497314-0.9869156,10.7406006-1.7506409,16.1136475-2.6111298c1.2322693-0.2074623,2.3943787-0.8354912,3.619812-1.2946014
		c4.4942932-1.6838055,9.0283813-0.7308846,13.536377-0.0575466c2.7353516,0.4085636,5.436676,1.4365063,8.1920776,0.1377506
		c0.3248901,0.0012398,0.6497803,0.0024757,0.9746704,0.0037155l0.2228394-0.1625614l-0.1366272,0.2498913
		c-0.3796082,0.000473-0.7592468,0.000946-1.138855,0.0014191c0.684021-1.6924877,1.368042-3.3849754,2.052063-5.0774632
		l0.2060852-0.1772976c0,0-0.1568909,0.2301979-0.1568909,0.2301979c-7.0527039,0.330843-14.1054382,0.6616859-21.1112366,0.9903278
		c-0.4489441-0.9656162-0.7233276-1.5557709-0.9977112-2.1459255c0.695282,0,1.390564,0,2.0858459,0
		c-0.0433044-0.2172604-0.0865784-0.4345207-0.1298828-0.6517811c-0.625946,0.2478523-1.2518921,0.4957027-1.8778381,0.7435589
		c-0.8248291,0.1878719-1.6496887,0.3757401-2.4745178,0.5636082c-0.1340637-0.3247089-0.2680969-0.649416-0.4021301-0.9741249
		c2.1995544-1.1724758,4.3990784-2.3449535,6.5986023-3.5174294c1.6615295,0.2742405,3.2227783,0.1150875,4.7631531-0.1607857
		c1.3974609-0.2502823,2.821167-1.0330429,4.1476135-0.8725834c3.8909912,0.4706898,7.4077454-0.380497,11.0512695-1.6900959
		c2.6708984-0.960001,5.7648315-1.4308071,8.4194641,0.6524181l-0.2042236,0.1500378l0.1430969-0.2116966
		c2.400116,1.1333141,4.4227295-0.1997051,6.4754333-1.13554c3.6587524,0.6637669,6.8312988,2.0687256,7.4743652,5.9921932
		c0.6220703,3.7953548,0.5729675,7.7007217,0.8096924,11.4170113c-1.286499,1.5254555-2.4284058,2.8794403-3.9041138,4.6292191
		c1.4042969,0.3846741,2.420929,0.6631508,3.3685303,0.9227142c0.5041809-0.8315506,0.8643799-1.4256325,1.2245789-2.0197105
		c0.2381592,0.0638657,0.4763489,0.1277351,0.7145081,0.1916008c0,2.7061653,0,5.4123306,0,8.7516861
		c0.8262939,0.6523628,2.2260437,1.7574959,3.881134,3.0641937c-0.579071,2.1334839-0.5372314,4.2476921,2.0559387,5.2209396
		c-0.9178772,0.2505798-1.8357544,0.5011635-3.0412598,0.8302689c-0.385437-1.9053764-2.9486084-2.4471626-2.0906982-4.770916
		l0.229126-0.1860695l-0.1869507,0.2415619c-1.4317627-0.7539635-2.8635254-1.5079269-4.5960693-2.4202728
		c-0.6499329,1.7402458-1.214325,3.2514877-1.7832642,4.7748375c-0.9662476,0.7470665-1.9503174,1.5079231-2.7909546,2.1578751
		c0.8925171,1.9343567,1.6159973,3.5023041,2.3103638,5.0072212c2.8520508,1.1384048,4.5830688-1.3400917,6.9635925-1.5973091
		c2.2658997-0.5275536,4.5317993-1.0551071,7.880188-1.8346863c-1.6455078-1.1742935-2.3261719-1.6600304-3.0068054-2.1457748
		c0.6651917-0.8600502,1.3303833-1.7200966,2.033905-2.6296844c3.2458801,0.6080246,5.0393982,2.7403564,5.6295471,5.5581207
		c-0.0939636,3.7662544-3.3510742,6.6538391-1.6173401,10.352211c2.0134583,0.4965057,3.8725891,0.9549637,5.502594,1.3569107
		c1.5916443,4.5048141-3.3392029,8.3351898-0.4138489,12.1486893c1.2534485,0,2.3130798,0,3.2749023,0
		c0.8727112,1.6181717,1.606842,2.9793625,2.1560059,3.997612c-2.4484863,1.5803299-4.653595,3.0035553-6.897522,4.4518585
		c0.0793152,0.7633514,0.1592407,1.5327301,0.2973328,2.8619461c2.398468-1.2925797,4.515625-2.4335632,6.7757263-3.6515808
		c0.455719,1.3116684,0.8146667,2.3447647,1.2339172,3.5515213c1.9329529-0.2144852,3.6934509-0.4098358,5.6100159-0.6225052
		c0.309967,0.8340225,0.5816345,1.5649948,0.9567261,2.5742645c0.2085876-1.498703,0.3815002-2.7411346,0.5690308-4.0886383
		c1.5896301-0.1342239,2.9660339-0.2504425,4.7359924-0.3998947c0.698761,5.1946335,5.088562,9.3028641,3.9953918,15.3022919
		c-0.9499817,0.4122696-1.9619141,0.8514328-2.7930908,1.2121429c-1.3414307-1.0829773-2.4614868-1.987236-3.6297302-2.9304123
		c-1.5765076,1.052269-2.8944397,1.9319382-4.2503967,2.8369827c0.3951111,1.4980621,0.7198181,2.7292862,1.1011047,4.1749878
		c1.0068359,0,1.9042664,0,2.8016663,0c0,0-0.1023254-0.0850372-0.1023254-0.0850296
		c0.9806824,0.6367416,1.9613953,1.2734909,2.9420776,1.9102325c0-0.0000076,0.141571,0.1243286,0.141571,0.1243286
		c-0.1896362,2.7490692-0.3792725,5.4981461-0.577179,8.3673019c-1.9905701,0.0872498-3.3970642,0.1488953-5.0923157,0.2231979
		c0.6965332,2.2256546,0.7390137,4.5046616,3.011261,4.7976151c2.2205811-0.5384216,3.9369812-0.9545975,5.6533813-1.3707657
		c0,0-0.0715637-0.060585-0.0715637-0.0605774c0.5456543,0.5102158,1.0913086,1.0204391,1.8972778,1.7740707
		c-3.8115845,1.2611847-7.1772156,2.3748016-10.5970154,3.5063477c2.3207397,5.1900482,7.0143127,7.8453522,9.3269043,11.9958191
		c-0.704834,2.2211151-1.3173218,4.1512451-1.9298096,6.0813599c0.2845154,0.1352234,0.5690613,0.2704468,0.8536072,0.4056854
		c0.6957703-0.8212128,1.391571-1.6424255,2.0982056-2.4764404c2.3010864,1.2104187,4.7992249,2.1566772,6.8500366,3.6980896
		c2.4588623,1.8481293,5.4320374,3.5739288,5.6485291,7.1941376c0.1557007,2.602951,0.030365,5.222702,0.030365,8.1315002
		c-5.9625244-1.7684479-11.4592285-0.9829254-17.4146423-0.7055664c1.7310181-3.1912537,3.0400085-6.2509155,0.8425598-9.3205719
		c-0.9304199,4.7340698-1.9712524,9.5366974-2.780365,14.3780518c-0.3468018,2.0748291-0.5743713,4.2935028-0.2179565,6.335434
		c0.683136,3.9141998,0.0894165,7.7751465-1.1776428,11.2445831c-0.9012756,2.4679413-1.3061218,4.7224884-1.0752258,7.1757202
		c0.4204407,4.466507-0.7828979,8.6444244-2.3757324,12.9069214c-0.2381897-2.1341705-0.4763794-4.2683411-0.7411804-6.640976
		c-1.7805481,1.4719391-3.1521301,2.6058044-5.0257263,4.1546631c-0.0795898,1.3862915-0.2023926,3.5248413-0.3328552,5.7963562
		c-0.8400574-0.3467407-1.5692444-0.6477203-2.3778381-0.9814758c-0.7163696,0.6254578-1.4584351,1.2733612-2.0249329,1.7679901
		c-0.1888733,1.457962-0.3446655,2.660614-0.5941467,4.5863647c-2.0744629-5.0327454-4.5569153-9.1974792-1.8748474-13.9751129
		c0.7037354,0.1904297,1.2242737,0.3312836,2.138916,0.5787811c-1.7776794-2.7224426-3.2520752-4.9804077-4.727478-7.2375946
		c-0.2326965,0.6894684-0.4644165,1.3781433-0.7074585,2.1005402c-0.650238-0.306076-0.9429016-0.4438171-1.3081665-0.6157532
		c-1.3441772,2.385437-2.6887817,4.7715607-3.628479,6.4391785c0.4224548,2.4740601,0.7148743,4.1867371,1.0899658,6.3835297
		c0.8533325,0.6709137,2.0238037,1.5911865,3.0439758,2.39328c0,1.8208466,0,3.2593384,0,4.6733093
		c-0.9877014,0.2317963-1.7204895,0.4037476-2.6039734,0.6110687c0.3858948,0.6904602,0.7008057,1.2538757,0.9852905,1.7628937
		c0.6052246,0,1.111145,0,1.7896423,0c-0.4382935,2.6322327,1.1491089,5.460968-1.9448853,7.6325684
		c-1.5777588-2.3030396-3.0097351-4.3932953-3.7587891-5.4866791c-0.6800842-4.6425476-1.2020874-8.2059479-1.7022095-11.6199493
		c-1.2749023,0.6513367-2.173645,1.1104889-3.3875427,1.7306671c-0.1548462-1.1083527-0.2432556-1.7412262-0.331665-2.3740997
		l0.2182312-0.1311798c0,0-0.1484375,0.1998596-0.1484375,0.1998749c-0.3517456-0.2990112-0.7034912-0.5980072-1.2084961-1.0272827
		c0.9368286-1.2292023,1.8080444-2.3722839,2.7528076-3.6118927c-0.6354065-1.1699524-1.2460632-2.2943115-2.0099792-3.7008667
		c-0.3183289,1.3659058-0.5421753,2.3263702-0.7652283,3.2834473c-0.6547852-0.1215973-1.2359924-0.229538-1.789917-0.3324127
		c-0.7373047,1.5382385-1.4269104,2.976944-2.1165161,4.4156494c-0.7364197-1.5905609-0.7125244-2.9133759-0.8891296-4.2088623
		c-0.1959534-1.4374847-0.5748596-2.8500671-0.9235229-4.5084076c-1.7597961,0.1603088-3.1664124,0.2884369-4.6174011,0.4206085
		c-0.6100769,2.2351227-1.1303711,4.1414337-1.7059631,6.2502594c-1.0203552,0.7151642-2.1696777,1.5207367-3.1929932,2.2379761
		c0.1832581,0.9767151,0.2999573,1.5986938,0.4142456,2.2077942c1.039917-0.0615387,1.9700928-0.1165619,2.9046936-0.1718597
		c1.954834,3.08078-0.2472839,5.949234,0.160553,8.6603088c-1.1554871,1.7801056-2.1817627,3.3611755-3.4745178,5.3528137
		c-0.7919617-3.5372162-2.8243713-5.20755-5.4847107-6.2734528l-0.1011658-0.0997162
		c-2.0059814-2.2146759-4.0119629-4.4293671-6.1349487-6.7732239c-0.8307495,0.3125916-1.6495972,0.620697-3.1489868,1.1848907
		c1.1210632,0.7359924,1.6048889,1.0536194,2.0887146,1.3712616c0.2045898,0.200943,0.4100647,0.4009857,0.6164856,0.6000977
		c-0.5366516,0.7865143-1.0732727,1.5730133-1.5556335,2.2799683c1.8256226,3.0142365,3.5585632,5.875412,5.5582886,9.1770782
		c-1.8097534,3.3705597-5.6038513,2.2537994-8.5290833,2.5323792c-2.1377869,2.7883911-4.0718384,5.3110809-5.8410339,7.6187134
		c2.0605164,1.0529022,4.0501099,2.0695648,6.0397034,3.0862274c-0.3197327,0.107666-0.6394653,0.2153168-0.0863037,0.029068
		c-0.1570435,0.6512299-0.0664368,0.2754517,0.0242004-0.1003571c2.8051758,3.7057037-0.4636841,6.445816-1.2730103,9.8280182
		c-3.5907288-0.8572083-6.8838806-1.6433716-10.1505737-2.4232178c-0.4446716-0.6889343-0.8597107-1.3320007-0.8026428-1.2435608
		c-1.9354553-0.1030731-3.0719604-0.1635895-4.2011108-0.2237244c-0.0955811-0.9870911-0.0992126-1.4817352-0.2019043-1.954895
		c-0.099823-0.460083-0.301178-0.8981476-0.4390869-1.2919922c-3.2700806-0.5390778-3.2700806-0.5390778-3.9487-3.6908569
		c0.9983215-0.0786743,1.9966736-0.1573639,3.6325684-0.2862854c-1.9085083-1.2200012-2.9334717-1.2631531-3.5621643,0.3672028
		c-0.7566528,1.2476501-1.5396423,2.4802551-2.2635193,3.7466278c-0.9860535,1.7250366-1.6713257,3.6951294-2.9379883,5.1721649
		c-3.1127319,3.629715-6.4841614,7.0375824-9.9008484,10.6944427c-5.3604736,2.292511-10.6829834,1.2807312-16.195343-0.7282104
		c-6.512207-2.3733521-11.7681885-6.714859-17.7187195-9.9804077c0.5762329-0.9046173,1.0309143-1.6184235,1.5420227-2.4208374
		c-1.6136169-0.4194946-2.5325012-0.9367676-3.7415771-2.0389557c2.3661194-0.3565674,4.9790649-0.1140289,6.8779297-1.1634827
		c4.5280457-2.5025024,9.0393982-2.882431,13.9353943-1.7131195c2.6239319,0.6266937,4.8641357-0.5417786,6.8068542-2.14711
		c0.3424988-1.1634064,0.6582947-2.2360229,0.9311218-3.1626587c1.0422974-0.2929993,1.8072815-0.5080414,2.9923401-0.8411713
		c-5.0941162-1.4637909-9.8024902-2.8167267-14.808075-4.2550659c-2.1810913,3.6234283-6.1396179,3.2610168-9.4788208,2.327301
		c-5.5427856-1.5498962-9.2210083,0.5857697-12.7939148,4.9363098c-4.4004822,0.5593262-9.1117249,1.2831879-13.8490295,1.7313843
		c-7.3735657,0.6976471-14.7142029,2.2724457-22.189209,1.0014648c-0.9527283-0.1620026-1.9816895,0.098053-2.9725952,0.191452
		c-4.2427368,0.3999481-8.4367371,1.1502533-12.706543-0.3200836c-1.6070099-0.5533905-3.6240387-0.2046661-5.4000397,0.0756836
		c-5.2237854,0.824585-10.4199982,1.82341-15.6278381,2.7493591c-3.6948547,0.6569519-7.391037,1.3063202-11.0866241,1.9590759
		c-4.6742401,0.0459747-9.4121552-0.6597595-14.16716-1.2205658c-1.0693054-0.1261139-2.1983185,0.2538757-3.2998352,0.4008789
		c-0.246109-0.2197723-0.492218-0.4395447-0.1287079-0.1149292c-0.4771118-0.1027679-0.1437225-0.0309601,0.1896973,0.0408478
		c-0.7393951,1.4147339-1.478775,2.8294525-2.4440002,4.6762848c7.0765839,0.3303528,13.8483887-1.2877045,20.6228333-0.6062469
		c-0.0827026,1.0466156-0.1208496,1.5293732-0.1589966,2.012146c-0.3917999,0.0746918-0.7835693,0.1493683-0.280426,0.0534668
		c-0.4508362,0.2515564-0.1143036,0.0637665,0.222229-0.1240082c0.8819122-0.1727142,1.7638397-0.3454285,3.6192169-0.7087555
		c-4.4845123,4.8769684-10.3833313,2.2418518-13.401474,4.5372162c-4.0499268,0.4628754-7.194809,0.2564392-9.8911285,1.2577972
		c-4.4949036,1.6693115-8.6728363,1.8521118-12.7351227-0.3842316c-6.1242523,2.6837311-8.56987,1.5581818-11.7201843-5.5653992
		c-6.2920837,1.4504547-11.9206696-1.5016937-17.4024811-4.0446472c-4.2978668-1.9937439-9.3711395-3.8802185-10.2647095-9.4465637
		c-1.2388-0.6165466-2.2315521-1.1106262-3.2243042-1.6047211l0.0346527-0.0351563
		c0.1559906-0.0560913,0.3157043-0.103653,0.467453-0.1695251c6.5796661-2.8560181,13.3432922-4.0868988,20.5555573-3.0126495
		c1.7298889,0.2576752,3.6696014-0.8932648,4.9939728-1.2547455c0.709259-1.9755402,1.1484375-3.198822,1.5741119-4.3844604
		c-3.0550995-1.0154877-6.3227081-2.101593-9.5903015-3.1876984c0,0.0000153,0.0800323,0.1008606,0.0800323,0.1008606
		c-2.8446503-2.4420929-5.9972076-4.1802368-9.8534546-4.252594c0.0047913-4.3226318-0.9024048-6.2907257-4.5751343-9.9520874
		c-0.6303864,0.4579468-1.2658539,0.9195862-1.863266,1.3535767c-1.6496735-0.3585663-3.2271729-0.7014313-4.7625275-1.035141
		c-0.7258759-0.9919434-1.4000092-1.9131775-1.62677-2.2230377c-5.1235962-1.6966705-9.5942993-3.177124-14.0650101-4.6575928
		c-0.1763382-0.1582489-0.3506699-0.3186798-0.5229874-0.4812927c-1.4129257-1.2393951-2.8258438-2.4788055-3.7895508-3.324173
		c-2.3135681-0.279129-3.9267349-0.4737549-5.3619308-0.6469116c-1.0332031-1.6231079-1.9068832-2.995636-2.8391495-4.4601898
		c-1.691864,0-3.2784958,0-4.9549179,0c0.225235,1.1942444,0.3955307,2.0972137,0.6180267,3.276947
		c-1.6443863,0.4465332-3.0747147,0.8349457-5.1374741,1.3950958c0.8826294-1.9272919,1.4074326-3.0732574,1.9480438-4.2537384
		c-2.283989-0.7472229-4.2958374-1.4053955-6.3076859-2.0635834c0.0015488,0.1487885,0.0030975,0.2975616,0.0046539,0.4463501
		c-7.6492538-0.421463-15.2985077-0.8429413-22.9477615-1.2644043c-0.1678238-0.0383301-0.3356476-0.0766602-0.5034714-0.1150055
		c0.1245041,0.0830688,0.2490005,0.166153,0.3734894,0.2492371c2.0289764,0.985321,4.0579529,1.9706421,6.0869293,2.9559479
		l-0.0347137-0.034317c-0.0132217,0.6911774-0.0264435,1.3823395-0.0396652,2.0735168l0.0979767-0.1034088
		c-2.3937378-0.0635071-4.7874756-0.1269989-7.1812134-0.190506c0.0037231-0.1557465,0.0074463-0.3114929,0.0111694-0.4672394
		c-1.0763779,0.4149628-2.1527557,0.8299408-3.0039673,1.1580963c-2.8842163-1.2442627-5.56604-2.4012299-8.24786-3.5581818
		c0.0708389-0.0908661,0.1416817-0.1817169,0.2125206-0.272583c-2.0286064-0.2866058-4.057209-0.5732117-6.9852219-0.9868927
		c0.0323219-0.0159302-0.8442535,0.4159851-0.9105949,0.4486847c-6.3256645-0.8240814-11.8863487-1.5485077-17.3343048-2.2582397
		c0.0773354-0.5786438,0.1898804-1.4207001,0.3914337-2.928772c-1.4687805,1.0126038-2.3157806,1.5965424-3.1289902,2.1571808
		c-1.551033-1.1436005-2.8672504-2.1140594-4.3371925-3.1978607c-0.7506199,0.5841217-1.3732471,1.068634-1.8956318,1.4751434
		c-3.5029507-0.869873-6.9370632-1.7226563-10.5645733-2.6234589c-0.1941242-0.6690979-0.4186287-1.4428864-0.6617336-2.2808075
		c1.4470844-0.3105774,2.8035107-0.6016998,4.5193329-0.9699554c-1.6821861-0.6191406-2.8429337-1.0463562-4.0036793-1.473587
		c0,0,0.2017689-0.1063843,0.2017689-0.1063843l-0.1219025,0.1840973
		C16.1196156,180.1024628,15.4534245,180.0812225,14.7872343,180.0599823z M418.8298035,84.0583344
		c-0.3548584,0.0059662-0.7097473,0.0119324-1.0646057,0.0178986c-2.0621033,0.6714249-2.0680847,2.4071808-2.4211731,4.3374481
		c0.9699097,0.2278824,1.7107239,0.401947,2.4515381,0.576004l0.2331848,0.3240814l-0.3197632-0.2377472
		c-0.006012-1.6978836-0.0120239-3.3957672-0.0180359-5.0936508c0.4062195-0.0070648,0.8124084-0.0141373,1.2186279-0.0212097
		l0.1173096,0.3474655L418.8298035,84.0583344z M43.7859077,177.9964294l0.1572876,0.2042847
		c0,0-0.2166595-0.148056-0.2166672-0.1480408c-0.6457062-0.3092346-1.2914162-0.6184692-1.9371185-0.9277191l-0.1358795-0.2020874
		l0.2103119,0.1300659C42.5045319,177.3674316,43.1452179,177.6819305,43.7859077,177.9964294z M232.8017273,32.1445694
		c-0.5970154,0.0749321-1.1940308,0.1498642-1.7910461,0.2248001c0.0520782,0.1443138,0.1041565,0.2886276,0.15625,0.4329414
		c0.5211792-0.2439308,1.0423737-0.4878616,1.5635681-0.7317924l0.1875763-0.1395721
		C232.9180756,31.9309464,232.8017273,32.1445656,232.8017273,32.1445694z M67.7790527,153.9996643l0.152977,0.1987
		l-0.2217941-0.1335754c-0.1099091-0.4530945-0.2198257-0.9061737-0.4860306-2.0035858
		c-0.5584106,0.5809631-0.8412933,0.8752594-1.3790131,1.4346924
		C66.8819199,153.7659607,67.3304825,153.8828125,67.7790527,153.9996643z M311.8308411,221.9654236
		c0.1832275,0.5052338,0.3664856,1.0104828,0.5497437,1.5157166c0.1446838-0.0879517,0.2893677-0.1758881,0.4340515-0.2638245
		c-0.3579712-0.3888397-0.7159119-0.7776642-1.0738525-1.1664886c-0.2042847-0.8610382-0.4085388-1.7220764-0.7271118-3.0649109
		c-0.8311157,0.7730865-1.2411194,1.1544495-2.0460205,1.9031525
		C310.202179,221.3531647,311.01651,221.6593018,311.8308411,221.9654236z M109.8149872,123.0934219l-0.1872177-0.1985703
		l0.2527618,0.1465683c0.7505951,0.5136108,1.5011902,1.0272217,2.5563049,1.7492065c0-1.4714127,0-2.4673462,0-3.4940414
		C111.4147415,121.9970627,110.6148605,122.5452347,109.8149872,123.0934219z M84.7477722,167.0914917
		c1.0061874,0.2597046,2.0123749,0.5194244,3.3677444,0.8692474c-1.1647034-2.047699-2.2974701-1.4210052-3.4335175-0.7621613
		c-0.3566513-2.5762177-2.2378845-1.7243042-3.7461395-1.6226654c-0.2258148,0.0152283-0.4253235,0.4207306-0.6304855,0.6387634
		c0.7308807,0.5127258,1.4617844,1.0254669,2.1026306,1.4750366
		C83.1934662,167.4888763,83.9706192,167.2901764,84.7477722,167.0914917z M106.795105,169.1319427
		c-1.549942-0.2274475-3.099144-0.5876617-4.6503067-0.5962677c-0.429985-0.0023956-0.8657608,1.0393372-1.2988815,1.6020203
		c-0.6146622-0.5272827-1.229332-1.0545654-1.8338776-1.5731659c-1.1123962,0.8172455-2.1865692,1.6063995-3.593956,2.6403656
		c0.0592041-1.3456573,0.0915909-2.0818939,0.1262207-2.8690338c-1.7062683-0.2065582-3.3292542-0.4030304-4.9209976-0.5957184
		c-2.0894394,3.5117645-6.8681259-0.0639496-9.0625,3.581192c2.3815994,0.4045563,4.9421387,0.204834,6.7396317,1.2803345
		c3.4697266,2.0761261,6.7021561,0.7069244,9.9664612,0.1227417c0.9555511-0.17099,1.6585464-1.7532043,2.4772949-2.6885986
		c2.0011826-0.3187561,4.0023575-0.6374969,6.00354-0.9562531l0.2322388-0.1740723L106.795105,169.1319427z M77.7831345,89.9876175
		c0.9202652,0,1.8405304,0,3.0556717,0c0.2785873-0.8768005,0.6037216-1.900116,0.9288559-2.9234314l0.2275085-0.1918335
		l-0.1989288,0.2275162c-1.9940948,0.078392-3.5315323,0.7684784-3.9540863,2.9519348l-0.2037277,0.1537247L77.7831345,89.9876175z
		 M371.7738953,232.0976105c-0.9659424-0.4898682-1.9310913-1.0696564-2.9102478-0.0250854
		c-0.3560486,0.3560791-0.7121277,0.7121582-1.0681763,1.068222c-1.0359497,0.6077118-2.0718994,1.2154236-3.2863159,1.9278412
		c2.8248596,2.2546387,4.9856567-1.3375397,7.6635742-0.1761322c-0.2212524-1.3161469-0.3521118-2.0944977-0.4829712-2.8728485
		c0.2627869-0.1337891,0.5255432-0.2675629,0.323822-0.164856
		C372.1794739,231.686615,371.9766846,231.8921204,371.7738953,232.0976105z M107.7888107,129.019043
		c0.1154633,0.0705261,0.2309341,0.141037,0.346405,0.2115631c-0.1447296-0.0400848-0.2894592-0.0801544-0.4341888-0.1202393
		c-0.3406219-0.8273773-0.6812363-1.6547699-1.1930542-2.8980179c-1.6312561,2.0230942-3.4417038,3.267662-4.0647278,5.9310074
		c1.8168793-0.1671295,3.1912613-0.2935638,4.1508331-0.3818359
		C107.0861511,130.6319885,107.4374847,129.8255157,107.7888107,129.019043z M61.8026352,148.1114807l-0.1468391-0.1912842
		l0.2164001,0.1269684c-0.5197105,1.1371918-1.0394249,2.2743835-1.8165665,3.9748535
		c1.2903557-0.6742401,1.9442596-1.0159149,2.5659943-1.3407745c0.7914391,0.3301849,1.5290565,0.6379242,2.1778069,0.9085999
		c1.1642609-1.0001526,2.2245789-1.9110107,4.0491104-3.478363
		C65.9426422,148.1114807,63.8726387,148.1114807,61.8026352,148.1114807z M265.7922058,58.0872803
		c-0.6901245-0.328804-1.3802795-0.657608-2.0704041-0.9864044c-0.5206909-1.3439636-1.3735657-2.1949615-2.942749-1.9830246
		l-0.1266174-0.1874237c0,0,0.2051392,0.1076546,0.2051392,0.1076508c-0.6986084,0.325325-1.3972168,0.65065-2.0957947,0.9759827
		l0.0718994,0.0728416c-1.7011108-3.3373375-4.8228455-1.4833488-7.4862061-1.6474762
		c2.5754547,1.3601761,5.1509094,2.7203522,7.8763428,4.1597443c1.4077454-0.8033142,3.3665466-0.0309677,4.6009827-1.6028595
		c0.1670532,0.418293,0.3341064,0.836586,0.4912109,1.2300262c0.6116638-0.09832,1.0868835-0.1747131,1.5621033-0.2511063
		c-0.8296814,2.3910484-3.3493652,4.2417793-2.3451538,7.1998024c0.1274719,0.3755264,0.6774292,0.6076126,1.0054016,0.8840332
		c1.2300415-0.674202,2.3695984-1.2988281,3.2666321-1.7905045c-0.1955566-1.1918297-0.2526245-2.3299561-0.5916748-3.3767433
		C266.8943176,59.906868,266.277832,59.0182724,265.7922058,58.0872803z M106.7823868,135.1146851
		c-0.352417-0.0043488-0.7048416-0.0086975-1.0572586-0.0130463c-0.5743027-0.264267-1.1447601-0.7472687-1.7235413-0.7574615
		c-3.8687134-0.0680847-7.7392044-0.0353546-11.7043839-0.0353546c-0.4561615,1.4836731-0.8394547,2.7303467-1.2227554,3.9770355
		c-0.3311157-0.0736542-0.6622314-0.1473083-0.9933472-0.2209473c0.0969467-0.9645081,0.2267075-1.9273987,0.2741623-2.8943329
		c0.0181732-0.3703308-0.151741-0.7498932-0.2803268-1.3230591c-1.0463028,0.7071075-1.8497391,1.2500916-2.6483307,1.7898102
		c-0.8106918-0.3632813-1.6026382-0.7181549-2.8111801-1.2597198c-0.0136642,2.1864624-0.7435684,4.0813599,2.0003815,4.5012817
		c0.1571198,0.1542358,0.3148804,0.3078308,0.4732819,0.4607544c1.5187531,0.4055176,3.0375137,0.8110504,4.4917145,1.1993408
		c0.709053-1.0484314,1.2242966-1.8102875,2.0148621-2.9792328c1.2367249,1.7545776,2.2919846,3.2516937,3.25354,4.6158752
		c2.9964066-1.3894806,5.9643555-2.7657776,8.9323044-4.1420898c2.5362549,0.8233795,4.6732407,0.0517731,6.6545563-1.5689087
		c1.0780411-0.8818054,2.2676315-1.627243,3.4069138-2.4342041c-0.0355225,0.3212891-0.0899582,0.6421204-0.0973206,0.9640503
		c-0.0029907,0.1305695,0.0965805,0.2634888,0.1494904,0.3953247c1.674202-1.6540833,1.674202-1.6540833,1.5243073-3.4512329
		c-0.5775375,0.7668304-1.1246185,1.4932098-1.6716919,2.2195892c-0.7881699-0.9914398-1.5763474-1.9828644-2.4630051-3.098175
		c-1.3595963,0.6793518-2.4717712,1.2350769-3.5286331,1.7631683c0,0.9381409,0,1.5891113,0,2.2400818l0.0691299-0.0615234
		c-0.6821976,0.024292-1.3643875,0.0485992-2.0465851,0.0729065
		C107.446579,135.0879669,107.1144791,135.1013336,106.7823868,135.1146851z M243.2233734,51.8549042
		c1.9733276,0.2995529,3.9666138,0.6021347,6.4555664,0.9799614c-0.9094238-1.352272-1.4013367-2.083725-1.9712982-2.931221
		c1.7121124-1.107605,3.1704254-2.0510254,4.738739-3.0656052c-2.9775696-2.5714226-5.4806519-0.921833-8.0720825,0.6602898
		C244.0401001,48.7633705,243.7120209,50.0052147,243.2233734,51.8549042z M428.6021729,150.2644958
		c3.5657043,2.8908234,4.7429199,3.2149658,5.5706177,1.7545929c-0.2799988-0.764389-0.6036682-1.6480255-1.0516663-2.8711243
		C431.7638855,149.4833069,430.6083374,149.7688141,428.6021729,150.2644958z M371.7993164,222.784256
		c1.8837585-0.1656189,3.2200623-0.2831116,5.3599548-0.4712372c-1.504303-1.424057-2.4440308-2.3136749-3.7406311-3.5411072
		C372.7842102,220.3439178,372.3982239,221.3002777,371.7993164,222.784256z M270.0961914,43.1209412
		c-2.2579956,0.2968445-4.2229309,0.5551605-6.1878662,0.8134766c0.0181274,0.2964134,0.0362244,0.5928307,0.0543518,0.8892441
		c1.822876,0.1416206,3.645752,0.2832451,5.4637146,0.4244843C269.65802,44.5125389,269.800354,44.0604935,270.0961914,43.1209412z
		 M78.1443558,94.531929c-0.0958862-0.3334808-0.1917801-0.666954-0.2876663-1.0004349
		c-3.6718292-0.2020493-3.6718292-0.2020493-5.3898621,2.7246933C74.6594543,95.5902863,76.4019089,95.0611115,78.1443558,94.531929
		z M436.7961426,147.3755798c-0.8004456,0.7509308-1.2380066,1.1614227-1.8511658,1.7366791
		c0.7080383,0.9822845,1.3154602,1.8250275,2.0043335,2.7807465
		C439.1580811,150.276947,438.3093567,149.0579987,436.7961426,147.3755798z M34.3153877,183.4456787
		c0.0740623,0.3446655,0.1481285,0.6893311,0.2221909,1.0339966c1.3039742,0.0792847,2.6079483,0.1585693,4.8877563,0.2971802
		c-1.6842194-1.3038635-2.5503082-1.9743652-3.5165443-2.7223816
		C35.2527199,182.6272888,34.7840538,183.0364838,34.3153877,183.4456787z M109.746376,127.1795959
		c0.9049454,2.4624481,1.8859863,2.9827881,4.3851929,2.2103729
		C112.4614029,128.5481262,111.4700394,128.0484161,109.746376,127.1795959z M63.382267,159.6996155
		c0.3051109-0.6498871,0.6102257-1.2997742,1.0479164-2.2320709
		C62.2095108,157.2550049,61.9424248,158.0210876,63.382267,159.6996155z M74.0923157,144.1259918
		c-0.159523-0.2658691-0.3190384-0.531723-0.4785538-0.7975922c-0.8188553,0.4204559-1.6377106,0.8409119-2.4565659,1.2613678
		c0.0281906,0.099472,0.0563812,0.1989594,0.0845718,0.2984314
		C72.1919479,144.6341248,73.142128,144.3800659,74.0923157,144.1259918z M91.6536102,100.6100922
		c-1.1044464-0.1766586-1.626709-0.4210587-1.9882965-0.2730255c-0.3654556,0.1496429-0.5717316,0.6880569-0.8477402,1.0561676
		c0.1720428,0.1702576,0.3440933,0.3405228,0.5161438,0.5107803
		C89.9348831,101.568718,90.5360413,101.2334137,91.6536102,100.6100922z M83.2689667,94.5160294
		c-0.3640137,0.0787354-0.7280197,0.1574783-1.0920258,0.2362137c0.1533432,0.5212402,0.3066864,1.0424881,0.460022,1.5637283
		c0.2629318-0.0926361,0.7442551-0.1710281,0.7513809-0.2803345C83.4210587,95.5338364,83.321228,95.0233765,83.2689667,94.5160294z
		 M400.5272217,29.6765556c-0.0758972-0.2851143-0.151825-0.5702286-0.2277527-0.8553429
		c-0.556366,0.21772-1.1127319,0.4354401-1.6690979,0.6531601c0.0658875,0.1960449,0.1317444,0.3920918,0.1976318,0.5881386
		C399.3944092,29.9338589,399.9608154,29.8052082,400.5272217,29.6765556z M71.5053635,157.0663605
		c0.1083755,0.1329651,0.2167511,0.2659302,0.3251343,0.3989105c0.261673-0.2302246,0.5233459-0.4604492,0.7850189-0.6906738
		c-0.0878372-0.1054993-0.1756744-0.2109833-0.263504-0.3164673
		C72.0697937,156.6608734,71.7875824,156.8636169,71.5053635,157.0663605z M416.3625793,91.8958893
		c-0.0165405,0.2403336-0.0331116,0.4806747-0.0496521,0.7210159c0.5445862,0,1.0892029,0,1.6338196,0
		c0.0133667-0.1038284,0.0267029-0.2076645,0.0400696-0.3114929
		C417.4454041,92.1688995,416.9039917,92.0323944,416.3625793,91.8958893z M431.116272,203.5092163
		c0.071228,0.0067444,0.1424255,0.0134888,0.2136536,0.0202484c0.0432434-0.4271698,0.0864868-0.8543243,0.1296997-1.2814941
		c-0.0796204-0.0075836-0.1592712-0.0151672-0.2389221-0.0227509
		C431.1859131,202.6532288,431.1510925,203.0812225,431.116272,203.5092163z M69.9608307,192.6425323
		c0.1084366-0.2229309,0.2168732-0.4458771,0.3253098-0.668808c-0.1226196-0.0465698-0.3337326-0.1571045-0.3537064-0.1294708
		c-0.1457443,0.2015839-0.253067,0.4309692-0.3725052,0.6515503
		C69.6927872,192.544342,69.8256454,192.592865,69.9608307,192.6425323z M386.8337402,27.4666481
		c-0.0039673,0.0739784-0.0079346,0.1479568-0.0119019,0.2219353c0.3623962,0.0207806,0.724823,0.0415592,1.0872192,0.0623398
		c0.0040283-0.0765781,0.0080566-0.1531544,0.0120544-0.2297306
		C387.5586548,27.5030098,387.1961975,27.4848289,386.8337402,27.4666481z M67.3346786,173.3742218
		c0.1187668,0.1189575,0.2375336,0.237915,0.3563004,0.3568573c0.2386856-0.2525482,0.4801025-0.5028381,0.7017746-0.7695313
		c0.0061569-0.0074005-0.2787476-0.2896576-0.2942429-0.2772217
		C67.8314133,172.8987427,67.5853424,173.1393433,67.3346786,173.3742218z M439.4288025,102.6672974
		c-0.0780945,0.0892105-0.156189,0.178421-0.2342529,0.2676315c0.2469788,0.2073975,0.4939575,0.4147949,0.7409668,0.6222
		c0.0690002-0.0792465,0.1380005-0.158493,0.2070007-0.2377396
		C439.9046021,103.1020279,439.666687,102.8846664,439.4288025,102.6672974z M104.1372375,62.185463
		c0.1905899,0.1502419,0.3777313,0.3058319,0.5807495,0.4368172c0.0115967,0.0074806,0.2316055-0.2651062,0.2222214-0.2744598
		c-0.1818619-0.1811905-0.3834839-0.3425522-0.5810471-0.5079842
		C104.2856827,61.954422,104.2121964,62.0690079,104.1372375,62.185463z M180.9120026,247.5716705l-0.352951-0.2191467
		l-0.0723114,0.3310852L180.9120026,247.5716705z M217.5667419,31.4256649l-0.0298615,0.2643528l0.3683014-0.1053753
		L217.5667419,31.4256649z M431.1607666,206.8102112l0.1471863,0.366272l0.141449-0.3642731L431.1607666,206.8102112z
		 M309.2558899,217.3946228l0.1669312-0.3035278l-0.2389221-0.0527344L309.2558899,217.3946228z"/>
	<path d="M71.7842789,154.0139618l0.219635-0.1760712c0,0-0.1902466,0.2129517-0.1902466,0.2129517
		c-0.0952454,0.0254974-0.1904907,0.0509949-0.2857361,0.0764923
		C71.6133804,154.0895538,71.6988297,154.0517578,71.7842789,154.0139618z"/>
	<path d="M92.7950058,107.0692825c-0.0763397,0.1285172-0.1526794,0.2570343-0.2290192,0.3855515
		c0.0708771-0.1338196,0.1417542-0.2676392,0.2126312-0.4014587c0.061821-0.1306534,0.1236343-0.2612991,0.1854553-0.3919525
		C92.9077148,106.7973785,92.8513641,106.9333344,92.7950058,107.0692825z"/>
	<path d="M55.7994347,172.0912476c-0.2296181,0.1194458-0.4592361,0.2388916-0.6890831,0.3580475
		c0.2193375-0.1319122,0.4386711-0.2638397,0.6580086-0.395752l0.2170753-0.1565857
		C55.9854355,171.8969574,55.7994308,172.0912476,55.7994347,172.0912476z"/>
	<path d="M45.9271393,175.484375c0.2844963,0.041214,0.5689926,0.082428,0.8539772,0.1202698
		C46.4966125,175.5634918,46.2121048,175.5223389,45.9271393,175.484375z"/>
	<path d="M90.8776627,104.5337296c0.2340088,0.0410919,0.4680099,0.0821838,0.7024231,0.1209869
		C91.3460541,104.6137466,91.11203,104.5727768,90.8776627,104.5337296z"/>
	<path d="M404.3614807,29.7849503c-0.0316467,0.246418-0.0632935,0.492836-0.0916443,0.7396774
		C404.3015747,30.278223,404.3333435,30.0318184,404.3614807,29.7849503z"/>
	<path d="M86.1685333,94.6068039c-0.203186-0.0247879-0.4063721-0.0495682-0.6099243-0.0713501
		C85.7618027,94.5601959,85.9649887,94.584938,86.1685333,94.6068039z"/>
	<path d="M465.7872314,100.0599747c-1.6109314,1.3133011-3.2218323,2.6266022-4.731781,3.8575897
		c-1.1283264-0.5816269-1.7930908-0.7799759-2.2605591-1.1986465c-0.7254028-0.649765-1.3164368-1.4496078-2.0731812-2.3093796
		c-1.1094971-0.1160507-2.3363647-0.2443695-3.5632019-0.3726883c-0.0437622-0.2658539-0.0874939-0.5317078-0.1312561-0.7975616
		c3.5422058-1.0770111,7.0843811-2.1540298,10.8074341-3.2860336c0.6590576,0.711113,1.3057861,1.4089203,1.9525452,2.10672
		C465.7872314,98.7266388,465.7872314,99.3933105,465.7872314,100.0599747z"/>
	<path d="M14.7872324,177.0599823c0.4019299,0.2675781,0.8038607,0.5351563,1.2057934,0.8027344
		c-0.1796408,0.1523132-0.3597832,0.3040161-0.5404272,0.4551239c-0.2939358,0.1008301-0.5157232,0.0148773-0.6653643-0.2578583
		C14.7872343,177.7266541,14.7872343,177.3933105,14.7872324,177.0599823z"/>
	<path d="M31.781744,146.1090393c-0.3675938,0.6771698-0.7351894,1.3543549-1.1027832,2.0315247
		c-0.0000019,0,0.0863132-0.1031952,0.0863132-0.1031952c-1.6321392-0.0899506-3.2642784-0.1798859-6.0117664-0.3312988
		c1.4342918-0.8939972,1.9882545-1.2392883,2.868618-1.7880249c-0.6538048-0.9465332-1.3301163-1.9256439-2.0462837-2.9624481
		c0.3633003-0.477417,0.5704765-0.9836121,0.9457283-1.2052917c2.6722202-1.578476,5.3548107-2.0377655,8.5309315-1.1322021
		c2.5981865,0.740799,5.5753136,1.0101471,7.9939919-1.1629181c2.4551773,2.7375031,6.2032051,1.1586456,9.5487442,2.5642242
		c-0.4973221,1.45578-0.9423752,2.7585754-1.4532166,4.2539368c-4.6507187,0.6839447-9.1290092,1.6417999-13.6435204,1.8641205
		c-1.895546,0.0933685-3.8677521-1.3699646-5.8051052-2.1255951c0.294157-0.1013489,0.588316-0.2026825,0.3154202-0.1086731
		C32.2362137,145.6970673,32.0089798,145.9030609,31.781744,146.1090393z"/>
	<path d="M20.5308189,216.5765991c3.9654064-0.9567108,5.960165-0.7184143,15.7224579,1.9535065
		c1.0616493,1.2426605,2.3919067,2.7997284,4.1368332,4.8421631c-5.4827805,1.6021576-9.8068523-0.6004639-14.0376663-1.6472168
		C24.1838055,221.1885071,20.7348785,220.2090912,20.5308189,216.5765991z"/>
	<path d="M156.3702393,30.3743267c8.6430359-0.9293842,17.2860718-1.8587704,25.9290924-2.7881546
		c0.0995941,0.2411461,0.199173,0.4822922,0.2987518,0.7234402c-0.8293457,0.6990967-1.6587067,1.3981953-2.4880676,2.0972939
		c-0.0643921-0.2144947-0.1287994-0.4289894-0.1932068-0.6434841c-3.9350739,0.6758614-7.8496857,1.6918068-11.8110962,1.9303169
		c-3.8319702,0.2307129-7.7121277-0.3389874-11.5711365-0.5571156
		C156.4797974,30.8825245,156.4250183,30.6284256,156.3702393,30.3743267z"/>
	<path d="M35.8164444,108.1044693c-1.0130768,0.3977661-2.0261574,0.7955246-2.7574158,1.082634
		c-1.299221-1.2544479-2.3057232-2.226265-3.3122292-3.1980743c0,0,0.0773258,0.0714722,0.0773258,0.0714722
		c0.8021755-0.4873734,1.6638184-1.471077,2.3970737-1.3832245c5.6209145,0.6734848,11.2168579,1.5553513,16.79496,2.8355789
		c-4.423996,0.9210281-8.8139305,1.5931778-13.2697334,0.5214157c0.0657959-0.0857391,0.1315956-0.1714783,0.1973915-0.2572174
		C35.9013596,107.8861923,35.858902,107.9953308,35.8164444,108.1044693z"/>
	<path d="M101.8433228,211.0005188c1.6089706,0.6417999,3.2179489,1.2836151,4.8269196,1.925415l0.3149643,0.3699646
		c2.334938,3.4760132,2.334938,3.4760132,0.2037659,6.4686279c-0.6813354-0.1515961-1.5074387-0.2152405-2.2248001-0.5281677
		c-0.7463531-0.3255768-1.3876877-0.891922-2.4663849-1.6156158c-0.2420654-1.9800568-0.5162582-4.2229156-0.7904434-6.4657898
		L101.8433228,211.0005188z"/>
	<path d="M113.3545151,223.0662537c-0.6185684-2.5058746-1.1109695-4.5006409-1.7739258-7.1863098
		c2.7512894,1.7156525,5.0396042,3.1426086,7.8901596,4.920166c1.0473709,0.1090851,2.8325729,0.2950134,5.5172424,0.5746155
		c-1.2853394,0.8941345-1.8457336,1.6141052-2.4337387,1.6374207
		C119.5835953,223.1298523,116.6057663,223.0662537,113.3545151,223.0662537z"/>
	<path d="M342.8346863,25.7268238c-3.3181458,3.5270348-8.1403809,1.6600399-10.3904419,2.7675915
		c-5.1905518,0-8.8225403,0-12.753479,0c0.5003052-0.8294525,0.6543884-1.3138676,0.8132629-1.3154297
		c7.2822876-0.0715942,14.473877-0.9782104,21.6324768-2.2377586
		C342.2937622,24.913559,342.5383606,25.382185,342.8346863,25.7268238z"/>
	<path d="M304.7828064,27.0339794c3.87323-0.7738342,7.4949951,0.7434368,11.3193665,0.4148998
		c-0.0057373,0.3893013-0.0114746,0.7786026-0.0172119,1.1679039c-4.2736206,0.7242069-8.5472412,1.4484138-13.2267456,2.2414036
		c-0.125885-1.4082623-0.2485657-2.7806358-0.4381409-4.9014969c1.2442017,0.5745583,1.816925,0.8390331,2.3896484,1.103508
		c-0.104126,0.0226383-0.208252,0.0452785-0.3123779,0.0679188
		C304.5924988,27.0967369,304.6876526,27.0653572,304.7828064,27.0339794z"/>
	<path d="M140.883728,30.1470585c3.9560547-0.1837769,7.9034576-0.2708321,11.8052216,1.3906498
		c-4.0249023,0.7171021-8.0497894,1.4342079-12.2262421,2.1783142c-0.9589691-1.2369995-1.004303-2.5233383,0.191864-3.7980785
		L140.883728,30.1470585z"/>
	<path d="M349.1219788,263.4704895c-0.6582642-1.1872559-1.1308289-2.0395813-1.8660278-3.3656311
		c1.4113159-2.0989075,2.9051819-4.3205566,4.6703491-6.9457092
		C353.3755493,257.6977539,352.727356,259.9226074,349.1219788,263.4704895z"/>
	<path d="M236.0957031,250.9803009c3.3311768-3.4064026,7.3353424-1.5350189,10.0395508-3.5114746
		c1.460022,0.6602478,2.7553406,1.2460175,4.0506439,1.8317871
		C245.7938385,250.0770416,241.5506897,251.6180878,236.0957031,250.9803009z"/>
	<path d="M261.9333801,248.4906616c4.0967102-1.073288,7.1891479-1.8834839,10.6520996-2.790741
		c0.1340637,1.2501678,0.2139282,1.9948425,0.3270569,3.0496063
		C269.445343,249.4588165,266.2189331,250.3284149,261.9333801,248.4906616z"/>
	<path d="M46.7978439,206.929657c-0.2297478-0.928833-0.4179764-1.6898193-0.6520233-2.6360321
		c2.9006424-0.7900085,5.2087708-0.3842621,7.3043938,2.2210083
		C51.2557144,207.6068115,49.2989731,207.7129974,46.7978439,206.929657z"/>
	<path d="M88.7483597,124.0602036c0.0160675,2.4232864,2.9862061,0.8824387,3.6769485,3.2665634
		c-0.002182-0.0287476,0.0455093,0.5988541,0.1037064,1.364624c-1.1507339,0.5680237-2.242012,1.1067047-3.3382492,1.6478271
		c-0.4160461-1.0558014-0.8224945-2.0872192-1.2289352-3.1186371l-0.300415-0.2911148
		c0.3914413-0.9309921,0.7828827-1.8619919,1.174324-2.792984L88.7483597,124.0602036z"/>
	<path d="M405.7828064,221.4938354c0.8267517-0.6358185,1.2148743-0.9342957,1.7765503-1.3662415
		c1.1514282,0.7767181,2.3266602,1.5694733,3.5270996,2.3792572c-0.1737976,0.8477631-0.3374023,1.6456451-0.5298462,2.5842438
		c-1.0604248-0.1093292-2.1152039-0.2180939-3.3929138-0.3498383
		C406.7420654,223.7497253,406.3024292,222.7158203,405.7828064,221.4938354z"/>
	<path d="M44.8649864,90.5990295c-2.4988403,3.3910599-4.9755669,2.943573-8.0702972,2.1372375
		C39.2344475,90.8330612,41.4673462,90.1455765,44.8649864,90.5990295z"/>
	<path d="M67.8488693,85.07444c-0.1356659,0.2279892-0.2870941,0.4494629-0.3873596,0.6920853
		c-0.0127716,0.0308914,0.2417984,0.1722641,0.3725204,0.2624512c-0.0295715,0.6828842-0.0591431,1.3657684-0.0887146,2.0486526
		l0.0714035-0.0840988c-0.0977554,0.1260681-0.2909851,0.2669067-0.274231,0.375267
		c0.0401459,0.2596359,0.1790237,0.5040054,0.2780533,0.7545319l-0.0922318-0.0711212
		c0.0376358,0.353157,0.0752792,0.7063065,0.112915,1.0594635c-0.6521378-0.0789108-1.3042755-0.1578217-1.9496689-0.2359238
		c-0.8102264-1.2610703-1.5845261-2.4662323-2.4074135-3.7470169c0.4951668-0.7547379,0.9347191-1.4247131,1.3742714-2.0946884
		c0,0-0.0924835,0.0926819-0.0924835,0.0926743C65.7935791,84.442627,66.821228,84.7585297,67.8488693,85.07444z"/>
	<path d="M261.151886,27.5072289c2.8395996-1.5974884,5.7957458-0.8129826,8.806366,0.4757233
		c-2.8713379,0.3091125-5.7426758,0.6182232-8.6140137,0.9273357
		C261.2801208,28.4426003,261.2160034,27.9749146,261.151886,27.5072289z"/>
	<path d="M108.6041641,30.4864044c-2.4052734,0.9157257-4.803566,2.1046104-7.9045792,0.7605572
		C103.3781815,28.8902531,106.0352554,30.0311127,108.6041641,30.4864044z"/>
	<path d="M70.6800537,209.592926c-2.9006805,1.4592438-5.0958786,0.6963196-7.7879601-0.7358704
		C65.918251,207.0970154,68.1134033,207.8603668,70.6800537,209.592926z"/>
	<path d="M449.8767395,77.4381866c0.4336548,1.8305664,0.6819458,2.8787384,1.0319824,4.3564377
		c-1.477356,0-2.6164856,0-3.8171997,0C446.3144226,79.4105453,448.1877747,79.0134125,449.8767395,77.4381866z"/>
	<path d="M37.8023033,131.0063324c-0.8040009,0.7038574-1.6080017,1.4077301-2.5801811,2.2588196
		c-0.7018433-0.9910126-1.4900322-2.1039429-2.6094856-3.6846161c1.738533-0.1485748,3.0982971-0.2647858,4.7019844-0.4018402
		c0.1507912,0.7240143,0.2754021,1.3223267,0.400013,1.920639
		C37.7146301,131.0993347,37.8023033,131.0063324,37.8023033,131.0063324z"/>
	<path d="M20.8226128,145.9992676c-0.4556141-0.3699493-0.9112282-0.7398987-1.6700573-1.3560638
		c1.7812862-1.0005188,3.2371521-1.8182678,4.693018-2.6360016c0.0000019,0-0.0617332,0.0791321-0.0617352,0.0791321
		c0.3227997,0.4510956,0.6455975,0.9021759,1.0278702,1.4363708c-1.5193157,0.9554443-2.7969608,1.7589111-4.074604,2.5623779
		C20.7371025,146.085083,20.8226128,145.9992676,20.8226128,145.9992676z"/>
	<path d="M67.9863281,73.1704712c1.0773544,0.5113449,2.1547089,1.0226898,3.623848,1.719986
		c-2.1834869,1.8470917-3.6769714,0.4279404-5.5143127,0.0409775c0.2799683-0.755722,0.4872055-1.3151321,0.6944504-1.8745422
		l-0.0059814,0.0061874c0.2858658-0.1344681,0.5843277-0.1744385,0.8953857-0.1199188L67.9863281,73.1704712z"/>
	<path d="M101.7073441,211.154953c-1.8673553-0.164505-4.0016785,0.0773621-4.3278732-2.9913025
		c2.396225-0.1779938,3.853508,0.6235962,4.4638519,2.8368683L101.7073441,211.154953z"/>
	<path d="M344.0037842,26.6347332c0.2002258-2.1643944,1.7311401-2.3164177,3.4983826-2.8337688
		C347.3509216,26.4485588,345.5770264,26.4402122,344.0037842,26.6347332z"/>
	<path d="M64.9540558,118.1658249c-1.2151985-0.2281647-2.4304008-0.4563293-4.2854881-0.8046417
		c1.4839897-0.7787552,2.324646-1.2199097,3.4478416-1.8093338c0.4652176,0.6086807,0.9158249,1.1982498,1.3664322,1.7878113
		C65.3065796,117.6150513,65.1303177,117.8904343,64.9540558,118.1658249z"/>
	<path d="M97.5684586,197.6188354c-1.239357-0.5811462-2.4506607-1.1491547-3.9848938-1.868576
		c2.1860428-1.3115082,3.2597198-0.1219788,4.3851929,0.7708435
		C98.0378418,196.5759277,97.7887573,197.0317993,97.5684586,197.6188354z"/>
	<path d="M272.4656982,27.5622177c1.0655212,0,2.131012,0,3.2204895,0
		C274.442749,28.9134445,274.442749,28.9134445,272.4656982,27.5622177z"/>
	<path d="M47.1923141,86.6365356c1.4343071,0.7548065,2.288269,1.2042007,3.5730591,1.8803253
		c-1.1015472,0.6449051-1.9374733,1.1343002-3.3106117,1.9382019
		C47.3527985,88.9715347,47.2891006,88.0447311,47.1923141,86.6365356z"/>
	<path d="M426.9935913,61.0402336c1.100708-0.3602257,2.201416-0.7204475,3.3726807-1.103756
		c0.0830688,0.6273804,0.2373962,1.0051231,0.1287231,1.1098404c-0.4510498,0.4345703-0.9320068,0.9520607-1.4971313,1.121357
		c-0.5374756,0.1610107-1.1933899-0.0734787-1.7972412-0.1340752
		C427.1316223,61.7024803,427.0625916,61.371357,426.9935913,61.0402336z"/>
	<path d="M309.6152039,239.9023438c1.3865356,0.0794067,2.7731018,0.1588135,4.1596375,0.2382202
		c0.0136414,0.2803192,0.0272827,0.5606537,0.0409241,0.8409729c-1.3690796,0.1235352-2.7381897,0.2470856-4.1072998,0.3706207
		C309.6773682,240.8688965,309.6463013,240.3856201,309.6152039,239.9023438z"/>
	<path d="M37.0547943,100.5303192c0.4458313-0.8380814,0.8916626-1.6761551,1.6008911-3.0093765
		C39.0959091,100.0928955,39.0959091,100.0928955,37.0547943,100.5303192z"/>
	<path d="M446.7237244,181.9490204c0-0.7548218,0-1.5096436,0-2.2644653
		c0.2728577-0.0270538,0.5456848-0.0541077,0.8185425-0.0811615c0.1656799,0.72229,0.3313599,1.4445648,0.4970093,2.1668396
		C447.600769,181.8298187,447.1622314,181.8894196,446.7237244,181.9490204z"/>
	<path d="M25.7066917,225.2002869c1.0270061,0.3791504,2.0540142,0.7583008,3.0810204,1.1374512
		c-0.0501461,0.2195129-0.1002941,0.4390259-0.1504402,0.6585236c-1.1652622-0.22966-2.3305244-0.4593201-3.4957886-0.6889954
		C25.3298855,225.9382782,25.5182896,225.5692749,25.7066917,225.2002869z"/>
	<path d="M90.8274307,30.262476c0.9202805,0.0475655,1.7306213,0.089447,2.5409622,0.1313286
		c0.0383606,0.2336464,0.0767212,0.4672928,0.1150894,0.7009392c-0.7283554,0.2424507-1.4567032,0.4848995-2.2004852,0.7324886
		C91.0888214,31.1602917,91.0046692,30.8712425,90.8274307,30.262476z"/>
	<path d="M419.9067688,207.3092041c0-1.1570892,0-2.3141632,0-3.4712524c0.226532-0.0283051,0.453064-0.0565948,0.6795654-0.0848999
		c0.1872864,1.1614075,0.3745422,2.3227997,0.5618286,3.4842072
		C420.7343445,207.2612457,420.3205566,207.2852173,419.9067688,207.3092041z"/>
	<path d="M28.410099,129.1734467c0.0926933,1.0062866,0.1710987,1.8574677,0.2495041,2.7086334
		c-0.2097187,0.0663605-0.4194374,0.1327057-0.6291542,0.1990509c-0.4424152-0.7497406-0.8848286-1.4994812-1.426012-2.4165955
		C27.2859631,129.4791718,27.6923389,129.3686523,28.410099,129.1734467z"/>
	<path d="M65.751503,136.0338135c0.3368759-0.3412781,0.6737595-0.6825714,1.0106354-1.0238495
		c0.3543243-0.0011444,0.7086487-0.0022888,1.062973-0.0034485c0.3411636,0.7002869,0.6823196,1.400589,1.0234756,2.1008759
		c-1.031456,0.1063843-2.0629044,0.2127686-3.2199249,0.3321075C65.67659,136.8910828,65.7140427,136.4624481,65.751503,136.0338135
		z"/>
	<path d="M136.8127747,31.8290405c-1.0007477,0.1005039-2.0014801,0.2010078-3.0022278,0.3015137
		c-0.0480347-0.2742901-0.0960693-0.5485802-0.144104-0.8228703c0.9988556-0.2171021,1.9977112-0.434206,2.996582-0.6513081
		C136.7129364,31.0472622,136.7628479,31.4381523,136.8127747,31.8290405z"/>
	<path d="M44.7761345,100.0844193c0.9269524-0.52005,1.8539085-1.0401001,2.7808647-1.5601425
		c-0.4241142,1.5910721-0.783535,3.4102936-2.7324677,1.4878922L44.7761345,100.0844193z"/>
	<path d="M446.7653198,88.0168228c0.7884827,0.410675,1.5769653,0.8213501,2.3654175,1.2320328
		c-0.1235352,0.238472-0.2471008,0.476944-0.370636,0.7154236c-0.7845154-0.4160461-1.5690308-0.8320923-2.3535461-1.2481384
		C446.5261536,88.4830399,446.6457214,88.2499313,446.7653198,88.0168228z"/>
	<path d="M389.7740173,231.1085815c0.5940247,0.3331909,1.1880798,0.6663971,1.6946106,0.9505005
		c-0.0648499,0.4320374-0.0874939,0.5830994-0.1098633,0.7345734c-0.2289734,0.1922607-0.458313,0.3841553-1.005127,0.8417206
		c-0.3912048-0.7293091-0.7423096-1.3838501-1.0934143-2.0383911
		C389.431488,231.4341888,389.6027527,231.2713776,389.7740173,231.1085815z"/>
	<path d="M95.6544037,119.3546906c0,0.6863098,0,1.3726273,0,2.0589371
		c-0.2425003-0.3267975-0.5616302-0.6244278-0.701004-0.9904938c-0.0954666-0.2507553,0.0592651-0.5967712,0.1021423-0.9002075
		C95.2551651,119.4668503,95.4547806,119.4107666,95.6544037,119.3546906z"/>
	<path d="M266.9167786,37.191021c-0.06427-0.9491577-0.1126404-1.6637001-0.181488-2.6803055
		C268.4938354,35.8043137,268.4938354,35.8043137,266.9167786,37.191021z"/>
	<path d="M84.5909042,193.6377716c0.8538818,0.1624298,1.7077713,0.3248596,2.5616531,0.4872894
		c-0.0375595,0.3008423-0.0751114,0.6016998-0.1126633,0.9025421c-0.8979492-0.0853424-1.7958984-0.1707001-2.6938477-0.2560425
		C84.4276657,194.393631,84.509285,194.0157013,84.5909042,193.6377716z"/>
	<path d="M123.1366348,202.3648834c-0.1896515,0.7618866-0.379303,1.5237732-0.5686951,2.2857361
		c-0.9366608-1.4879608-0.9366608-1.4879608,0.0457077-2.7670288
		C122.785965,202.0462036,122.9602966,202.2066345,123.1366348,202.3648834z"/>
	<path d="M144.9248505,245.1889801c-0.0682068-0.9124908-0.1191711-1.5944977-0.1917725-2.5659027
		C146.4998932,243.7762146,146.4998932,243.7762146,144.9248505,245.1889801z"/>
	<path d="M438.7385559,76.0001907c-1.1214905,1.2162018-2.3899536,1.2685928-3.7681885,0.0895767c1.279541,0,2.559082,0,3.838623,0
		L438.7385559,76.0001907z"/>
	<path d="M113.9997253,31.8095341c-0.8203049,0-1.6406097,0-2.460907,0
		c-0.0001678-0.183321-0.0003433-0.3666401-0.0005112-0.5499611c0.8196793,0,1.6393585,0,2.4590378,0
		C113.9981384,31.442894,113.9989319,31.6262131,113.9997253,31.8095341z"/>
	<path d="M37.7146301,131.0993347c0.8753471,0.4390564,1.7506943,0.8781281,3.5123558,1.7617493
		c-2.7244606,0.4728546-2.888607-0.9387207-3.4246826-1.8547516L37.7146301,131.0993347z"/>
	<path d="M44.8245316,100.0121689c-0.8463516,0.2159958-1.6927032,0.4319916-2.5390549,0.6479874
		c0.6976471-1.587616,1.5650444-1.5905609,2.4906578-0.575737L44.8245316,100.0121689z"/>
	<path d="M51.4462891,86.3634644c0.1276283-0.5968399,0.2552605-1.1936874,0.3828888-1.7905273
		c0.2516861,0.0457687,0.503376,0.0915451,0.7550621,0.1373215c-0.0908928,0.6101761-0.1817818,1.2203598-0.2726746,1.8305359
		C52.02314,86.4816895,51.7347145,86.4225769,51.4462891,86.3634644z"/>
	<path d="M436.8232117,90.0263824c-0.9542542-0.1987305-1.9085083-0.3974533-2.8627625-0.5961761
		c1.3587646-0.9228287,2.2981567-0.6507492,2.7842712,0.6939392L436.8232117,90.0263824z"/>
	<path d="M133.7672272,229.4665527c0.3587646,0.1747894,0.7175446,0.3495636,1.0763092,0.524353
		c-0.0814056,0.157196-0.1628113,0.3143921-0.2442169,0.4715881c-0.3436584-0.2080994-0.6873016-0.416214-1.0309601-0.6243134
		C133.6346436,229.7143097,133.700943,229.5904236,133.7672272,229.4665527z"/>
	<path d="M159.8027649,223.0309143c-1.6171112,0.8487549-1.6171112,0.8487549-4.4351807,0.1008453
		c2.2963257,0,3.4057617,0,4.515213,0L159.8027649,223.0309143z"/>
	<path d="M436.7447205,90.1241455c0.4421692-0.0979233,0.8843384-0.1958466,1.9645691-0.4350891
		c-0.5636902,1.0330582-0.8938599,1.6381454-1.6511841,3.0260315c-0.1319275-1.5099869-0.1834106-2.09935-0.2348938-2.6887054
		L436.7447205,90.1241455z"/>
	<path d="M87.9618378,127.2205811c-0.2294922,0.4963379-0.4589767,0.9926758-0.6884689,1.4889984
		c-0.2536697-0.1681366-0.5073395-0.3362732-0.7610092-0.5044098c0.3830261-0.4252319,0.7660446-0.8504639,1.1490631-1.2757034
		C87.6614151,126.9294662,87.9618301,127.2205811,87.9618378,127.2205811z"/>
	<path d="M59.3675613,70.0873718c0.6738815,0.1388626,1.3477592,0.2777328,2.0216408,0.4165955
		c-0.4473152,0.2742233-0.8725014,0.6083527-1.3552361,0.7866898c-0.1476631,0.0545502-0.4533272-0.318573-0.6866341-0.4958496
		C59.3540726,70.5589981,59.360817,70.3231812,59.3675613,70.0873718z"/>
	<path d="M438.8089905,76.0897675c0.4185791-0.5328217,0.8371582-1.0656357,1.4745483-1.8769379
		c0.6783447,2.3550949-0.4091797,2.1003952-1.5449829,1.7873611
		C438.7385559,76.0001907,438.8089905,76.0897675,438.8089905,76.0897675z"/>
	<path d="M428.8139038,77.1650772c0.5334778-0.1601868,1.066925-0.3203659,1.6004028-0.4805527
		c0.0817566,0.2278748,0.1635132,0.4557495,0.2452698,0.6836243c-0.5817566,0.1899719-1.1634827,0.3799362-1.7452393,0.5699005
		C428.8808594,77.680397,428.8473816,77.4227371,428.8139038,77.1650772z"/>
	<path d="M400.6993408,205.5064392c-0.151123-0.2090454-0.3009644-0.4189606-0.4508667-0.6289063
		c0.1196899-0.0839081,0.3309937-0.2536926,0.3451538-0.2386322c0.1781006,0.1899567,0.3277283,0.4065704,0.4846191,0.6163635
		C400.9523621,205.3386841,400.8264465,205.4221191,400.6993408,205.5064392z"/>
	<path d="M85.8068542,122.0153427c-0.5866852,0.247467-1.173378,0.4949341-2.2164154,0.9348907
		c0.3298492-0.767746,0.5471725-1.4432373,0.6250839-1.4275208c0.5236511,0.1056137,1.0176773,0.3580475,1.5212936,0.5628967
		C85.7368164,122.0856171,85.8068542,122.0153427,85.8068542,122.0153427z"/>
	<path d="M62.6218414,123.7011032c0.3999825-0.1265717,0.7957306-0.3231812,1.2018776-0.3477249
		c0.1805687-0.0109177,0.5695457,0.4460144,0.5445976,0.4847107c-0.2077713,0.3222809-0.4900818,0.5965042-0.7498932,0.8852386
		C63.2862282,124.3825912,62.9540329,124.0418472,62.6218414,123.7011032z"/>
	<path d="M449.9232483,97.8065643c0.3661194-0.4561844,0.7322388-0.9123688,1.0983887-1.3685532
		c0.1722107,0.0979919,0.3443909,0.1959915,0.5166016,0.2939835c-0.2806702,0.5519562-0.5613708,1.10392-0.8420715,1.6558762
		C450.4385376,98.1941071,450.1808777,98.0003357,449.9232483,97.8065643z"/>
	<path d="M83.8500366,129.0052948c-0.6076431-0.0520477-1.2152863-0.1040955-2.1385345-0.1831665
		c0.546669-0.7714539,0.8983688-1.2677689,1.6094742-2.2712784c0.2019501,1.1957321,0.3167191,1.8752975,0.4314957,2.554863
		C83.7524719,129.1057129,83.8500366,129.0052795,83.8500366,129.0052948z"/>
	<path d="M30.6789589,148.140564c0.7717495,0,1.543499,0,2.2031517,0c0.1973114,0.2394714,0.2824745,0.3428497,0.3682632,0.4465179
		c-0.1260681,0.2651367-0.2527618,0.5299683-0.5757065,1.2050629c-0.6991806-0.6425629-1.3042889-1.1986694-1.9093952-1.754776
		C30.765274,148.0373688,30.6789589,148.140564,30.6789589,148.140564z"/>
	<path d="M240.6475677,24.3388824c-0.2361603-0.3863773-0.4723358-0.7727566-0.7084961-1.1591358
		c0.311676-0.2743702,0.6233673-0.5487423,0.9350433-0.8231144c0.2518921,0.4106693,0.5037689,0.8213367,0.755661,1.2320042
		C241.3023682,23.8387184,240.9749756,24.0888004,240.6475677,24.3388824z"/>
	<path d="M48.8608513,110.1401596c-0.1850204,0.4049225-0.3700409,0.8098373-1.0735893,2.349556
		c-0.5110512-1.0538177-0.7865067-1.6218185-1.4087143-2.9048462c1.196682,0.1670303,1.730442,0.2415314,2.2641983,0.3160324
		C48.642746,109.9009018,48.8608475,110.1401596,48.8608513,110.1401596z"/>
	<path d="M99.8024216,56.0722656c0.0149536,1.3151016-0.3757858,1.7225227-1.827507,0.3967857
		c0.8143539-0.1876678,1.310524-0.3020134,1.806694-0.4163551C99.7816086,56.0526924,99.8024216,56.0722656,99.8024216,56.0722656z"
		/>
	<path d="M91.0294037,195.7915802c-0.4867325,0-0.973465,0-1.4601974,0
		c-0.0005417-0.1719818-0.001091-0.3439484-0.0016403-0.5159302c0.4867477,0,0.9734879,0,1.4602356,0
		C91.0283356,195.4476318,91.0288696,195.6195984,91.0294037,195.7915802z"/>
	<path d="M95.0400391,128.4096832c0.359787-0.1907196,0.7195663-0.3814545,1.0793533-0.5721817
		c0.1968994,0.2190323,0.3938065,0.4380417,0.5907059,0.6570663c-0.3298798,0.2237091-0.6597595,0.4474335-0.9896469,0.6711578
		C95.4936523,128.9137115,95.2668457,128.6616974,95.0400391,128.4096832z"/>
	<path d="M161.688324,227.6437988c-0.335968,0.2338257-0.6719208,0.4676514-1.0078888,0.7014618
		c-0.0975189-0.2488708-0.1950378-0.4977417-0.2925568-0.7466125c0.3732452-0.1156769,0.7464752-0.2313385,1.1197205-0.3470154
		C161.5678406,227.3823547,161.6280823,227.5130768,161.688324,227.6437988z"/>
	<path d="M72.4804459,124.4567871c0.2502899,0.3257065,0.5005875,0.651413,0.750885,0.9771194
		c-0.127594,0.0962448-0.255188,0.1924973-0.382782,0.2887421c-0.2482681-0.327713-0.4965286-0.655426-0.7447968-0.983139
		C72.2293167,124.6452713,72.3548813,124.5510254,72.4804459,124.4567871z"/>
	<path d="M410.7327576,33.1314125c-0.2953796-0.3779297-0.5907288-0.7558632-0.8861084-1.1337929
		c0.364502-0.3653812,0.7290039-0.7307606,1.0935059-1.0961399c0.0991211,0.5723648,0.1982422,1.1447277,0.2973633,1.7170925
		C411.0692749,32.7895203,410.901001,32.9604645,410.7327576,33.1314125z"/>
	<path d="M23.8455753,142.0072021c-0.7713013,0-1.5426006,0-2.3139019,0c0.056879-0.2641144,0.1137581-0.528244,0.1706371-0.7923584
		c0.6938438,0.2904968,1.3876858,0.5809937,2.0815296,0.8714905L23.8455753,142.0072021z"/>
	<path d="M345.6138611,262.0870667c0.1457825-0.0606995,0.2983093-0.1820679,0.4297791-0.162384
		c0.1001282,0.0149536,0.1734314,0.2089844,0.258667,0.3233643c-0.2302551,0.0872803-0.4604797,0.1745605-0.6907349,0.2618103
		C345.6115723,262.368927,345.6115723,262.2279968,345.6138611,262.0870667z"/>
	<path d="M412.7330627,217.1195374c0.3306885,0.6607971,0.661377,1.3215942,0.9920654,1.9823914
		c-0.2634277,0.0813141-0.526825,0.1626282-0.7902527,0.2439575c-0.0398254-0.7641907-0.0796814-1.5283966-0.1195068-2.2925873
		L412.7330627,217.1195374z"/>
	<path d="M442.8499451,113.1418152c0-0.6025467,0-1.2050858,0-1.8076324
		c0.2234497,0.0519104,0.4468994,0.1038132,0.6703491,0.1557236c-0.2575684,0.5222931-0.5151062,1.0445862-0.7726746,1.5668793
		C442.7476196,113.056778,442.8499451,113.1418152,442.8499451,113.1418152z"/>
	<path d="M412.8153687,217.053299c-0.3388062-0.5871887-0.6776123-1.1743927-1.0164185-1.7615814
		c0.2473755-0.0703888,0.494751-0.1407776,0.7421265-0.2111664c0.0639954,0.679657,0.1279907,1.3593292,0.1919861,2.0389862
		L412.8153687,217.053299z"/>
	<path d="M298.9755554,28.3152294c-0.846344,0.3562527-1.6926575,0.7125053-2.5389709,1.0687599
		c-0.1232605-0.3418255-0.2464905-0.683651-0.3697205-1.0254765c0.871582-0.146677,1.7431335-0.293354,2.6147156-0.4400291
		C298.6815796,27.9184837,298.9755554,28.3152313,298.9755554,28.3152294z"/>
	<path d="M257.5148315,27.7665482c-0.3867493,0-0.7734985,0-2.2466431,0
		c1.3563538-0.5680447,1.7383423-0.7280178,2.1203308-0.887989
		C257.4306335,27.1745548,257.4727478,27.4705505,257.5148315,27.7665482z"/>
	<path d="M20.1231117,174.2137451c-0.3138123-0.1686859-0.6276245-0.3373871-1.5941029-0.8569336
		c1.0667553,0.1370239,1.4057312,0.1805725,1.7447071,0.2241058
		C20.2235146,173.7918549,20.1733131,174.0028076,20.1231117,174.2137451z"/>
	<path d="M61.2654877,82.7536469c-0.5189476-0.078186-0.2594757-0.039093-0.0000038,0
		C61.0083504,82.8345871,60.7512169,82.9155197,61.2654877,82.7536469z"/>
	<path d="M298.6815796,27.9184818c0.5135498-0.1185837,1.0271301-0.2371616,1.5406799-0.3557396
		c0.0163879,0.1855965,0.0327759,0.3711929,0.0491638,0.5567894c-0.4319763,0.0652332-0.8639221,0.1304646-1.2958679,0.1956997
		C298.9755554,28.3152313,298.6815796,27.9184837,298.6815796,27.9184818z"/>
	<path d="M18.2711868,148.1968079c0.178297-0.2294159,0.3565941-0.458847,0.5348911-0.6882629
		c0.0834522,0.0657349,0.1669044,0.1314697,0.2503586,0.1972046c-0.1814137,0.2268829-0.3628292,0.4537659-0.5442429,0.6806488
		C18.4318581,148.3231964,18.3515224,148.2600098,18.2711868,148.1968079z"/>
	<path d="M436.5417175,83.942421c-0.2641602,0.2772064-0.5283203,0.5544128-0.79245,0.8316193
		c-0.14505-0.1011505-0.2901001-0.2022934-0.4351501-0.3034363c0.2350159-0.35186,0.4700012-0.7037201,0.7050171-1.0555801
		C436.1933289,83.5908203,436.3675232,83.7666245,436.5417175,83.942421z"/>
	<path d="M29.7467976,105.9890289c-0.2106514,0.529274-0.4213028,1.0585403-0.6319542,1.5878143
		c-0.154377-0.1095657-0.3087521-0.2191238-0.463129-0.3286896c0.3908043-0.3958893,0.7816067-0.7917709,1.172411-1.1876526
		C29.8241253,106.0605011,29.7467995,105.9890289,29.7467976,105.9890289z"/>
	<path d="M62.9010048,120.7853546c-0.3058815-0.2335587-0.6117668-0.4671173-0.9176483-0.700676
		c0.1169014-0.1462936,0.2338028-0.2925797,0.350708-0.4388733c0.2895393,0.2526855,0.5790825,0.5053711,0.8686256,0.7580566
		C63.1021271,120.5310287,63.0015678,120.6581879,62.9010048,120.7853546z"/>
	<path d="M443.9868469,69.5888443c-0.2298279,0.1379089-0.4594421,0.2749405-0.6890564,0.4119873
		c-0.1444397-0.3187866-0.2888794-0.6375732-0.4332886-0.9563675c0.2568665-0.0763321,0.5925598-0.2874832,0.7507935-0.1950226
		C443.8148804,68.9661179,443.869751,69.3304749,443.9868469,69.5888443z"/>
	<path d="M408.5209961,19.2761726c0.1778259,0.4156017,0.3556519,0.8312035,0.5334778,1.2468052
		c-0.2306519,0.0890179-0.4613037,0.1780376-0.691925,0.2670555c-0.1462708-0.4273739-0.292511-0.8547459-0.4387512-1.2821198
		C408.1228638,19.430666,408.3219299,19.3534203,408.5209961,19.2761726z"/>
	<path d="M69.078804,117.6987381c-0.5547562,0-1.1095123,0-1.6642685,0c0.0001526-0.121727,0.0003052-0.2434464,0.0004654-0.3651733
		c0.5547028,0,1.1094131,0,1.6641159,0C69.07901,117.4552917,69.0789108,117.5770111,69.078804,117.6987381z"/>
	<path d="M79.7284698,196.1183624c0.45401,0.0341339,0.90802,0.0682678,1.4280014,0.1073608
		c-0.7662582,1.0036469-0.7662582,1.0036469-1.3300247-0.2107697L79.7284698,196.1183624z"/>
	<path d="M66.7903137,73.0568924c-0.6822739-0.0153427-1.3645477-0.0306854-2.0468216-0.0460281l0.0803299,0.0672913
		c0.3263931-0.5034103,0.6527863-1.0068207,1.3318253-2.0541229c0.3215027,1.0427399,0.4750977,1.5408936,0.628685,2.0390472
		L66.7903137,73.0568924z"/>
	<path d="M33.2934685,155.055191c0.1180305-0.0322418,0.2537804-0.1158295,0.3492889-0.0828552
		c0.1034355,0.0357208,0.1693459,0.1801147,0.2516251,0.2771149c-0.1772118,0.0599213-0.3544197,0.1198273-0.5316315,0.1797333
		C33.3396568,155.3045197,33.3165627,155.1798553,33.2934685,155.055191z"/>
	<path d="M159.1417694,20.5331841c0.0592041,0.4828949,0.0296021,0.2414551,0.0000153,0.0000114
		C159.2565918,20.7533283,159.3714142,20.9734592,159.1417694,20.5331841z"/>
	<polygon points="34.1525078,227.2486725 34.325367,226.9384155 34.4297638,227.2840576 	"/>
	<path d="M305.1516724,22.7328091c0-0.3705025,0-0.7410049,0-1.1115074
		c0.1107788-0.0026398,0.2215881-0.0052776,0.3323669-0.0079174c0.017334,0.3700275,0.0346375,0.7400532,0.0519714,1.1100807
		C305.4078979,22.7265797,305.2797852,22.7296944,305.1516724,22.7328091z"/>
	<path d="M324.9786987,234.2751923c0.1188965,0.0553284,0.2378235,0.1106415,0.35672,0.1659546
		c-0.1730347,0.1266632-0.3460999,0.2533112-0.5191956,0.3799591c-0.0582886-0.1092987-0.1892395-0.2521667-0.1578674-0.3200378
		C324.7058105,234.3983459,324.8662415,234.3478394,324.9786987,234.2751923z"/>
	<path d="M390.8057556,238.0178986c-0.325592-0.099823-0.6512146-0.1996613-0.1708984-0.0523987
		c-0.3293457-0.3780975-0.1125488-0.1291962,0.104248,0.1197205L390.8057556,238.0178986z"/>
	<path d="M352.7495728,251.4143219c0.1383057-0.0643158,0.2766113-0.1286469,0.414917-0.1929932
		c0.0414734,0.2313385,0.0829468,0.462677,0.1244202,0.6940155c-0.1540222-0.0346985-0.3394775-0.0294647-0.4515076-0.1175842
		C352.7572021,251.7347107,352.7753296,251.5466156,352.7495728,251.4143219z"/>
	<path d="M350.5065308,253.0624237c-0.0946655,0.0322266-0.1893311,0.0644531-0.2839966,0.0966492
		c-0.0335388-0.1173401-0.0941772-0.2366333-0.0858765-0.3509369c0.0028687-0.0398254,0.1759949-0.0672607,0.2713928-0.1003571
		C350.4408875,252.826004,350.4736938,252.9441986,350.5065308,253.0624237z"/>
	<path d="M421.2180481,49.6223907c-0.2583618,0.0205383-0.5166931,0.0410767-0.7750549,0.061615
		c-0.000885-0.0643959-0.00177-0.128788-0.0026855-0.1931839c0.2587891,0,0.5175781,0,0.7763672,0
		C421.2171326,49.5346794,421.2175903,49.5785332,421.2180481,49.6223907z"/>
	<path d="M96.7165222,59.0433044c-0.1007156,0.3546066-0.2014236,0.7092171-0.1063766,0.3745613
		c-0.2061234,0.2887001-0.0028381,0.0039673,0.2004547-0.2807655L96.7165222,59.0433044z"/>
	<path d="M438.3897095,59.4283981c0.1166077-0.0421562,0.2332153-0.0843086,0.3498535-0.1264648
		c0.0342712,0.1680145,0.068512,0.3360291,0.1027832,0.5040398c-0.1254272-0.0247841-0.2717896-0.0188599-0.368866-0.0851593
		C438.4090576,59.6767998,438.4151611,59.5294724,438.3897095,59.4283981z"/>
	<path d="M425.1679993,66.4398422C425.7566833,66.7678604,425.4623413,66.6038513,425.1679993,66.4398422
		C425.5142517,66.3563461,425.8605042,66.2728577,425.1679993,66.4398422z"/>
	<path d="M63.0895882,70.4139175c0.3661423-0.0458145,0.7322807-0.0916367,1.098423-0.1374512
		c0.0098343,0.1331635,0.0196762,0.2663269,0.0295181,0.3994827c-0.3702011,0-0.7403984,0-1.1105957,0
		C63.1011543,70.5886078,63.0953712,70.5012589,63.0895882,70.4139175z"/>
	<path d="M64.7434921,73.0108643c-0.0877075,0.3489761-0.1754227,0.6979523-0.052269,0.2079773
		c-0.3444138,0.365387-0.1059036,0.1123505,0.1325989-0.140686L64.7434921,73.0108643z"/>
	<path d="M77.399147,79.5527573C77.3452835,79.0941467,77.3722153,79.3234558,77.399147,79.5527573
		C77.2896194,79.3436737,77.1800919,79.1345901,77.399147,79.5527573z"/>
	<polygon points="52.0425529,82.425499 52.0471382,82.7436523 51.6839943,82.588295 	"/>
	<path d="M58.7954979,86.0665054c0.3112411-0.2470703,0.6224823-0.4941483,0.9337196-0.7412262
		c0.0926247,0.1551895,0.1852455,0.310379,0.2778664,0.4655685c-0.4092751,0.086525-0.8185463,0.1730576-1.2278214,0.2595825
		L58.7954979,86.0665054z"/>
	<polygon points="62.2304955,88.156044 62.1572571,87.8463974 62.4043159,87.9055939 	"/>
	<polygon points="54.2077942,89.1590042 54.1219139,88.8261871 54.3958282,88.8886795 	"/>
	<polygon points="59.1365242,88.8992844 59.4003754,88.8948288 59.2698441,89.2058258 	"/>
	<path d="M48.642746,109.9009018c0.6253242-0.3800735,1.2506447-0.7601395,1.8759689-1.140213
		c0.1801491,0.2030029,0.3612175,0.4051895,0.5432014,0.6065598c-0.7336884,0.257637-1.4673767,0.515274-2.2010689,0.7729111
		L48.642746,109.9009018z"/>
	<path d="M445.6896973,114.9670105c0.1544189-0.3477478,0.3088379-0.695488,0.4632568-1.0432358
		c0.1186218,0.0682831,0.2372131,0.1365585,0.355835,0.2048416c-0.2258301,0.3209076-0.4516907,0.6418152-0.6775208,0.9627304
		L445.6896973,114.9670105z"/>
	<polygon points="68.9731598,120.6950989 68.6929626,120.5379333 69.0059814,120.4485092 	"/>
	<path d="M88.8357391,124.1364822c0.1040497-0.3423615,0.2080994-0.6847305,0.085228-0.2804413
		c0.2734375-0.32341,0.050415-0.0596237-0.1726074,0.2041626L88.8357391,124.1364822z"/>
	<polygon points="93.154541,122.8912735 93.4188461,122.8893967 93.2885056,123.2156906 	"/>
	<path d="M79.8177109,126.999527c-0.2369766-0.2815704-0.4739532-0.5631332-0.1285095-0.1526947
		c-0.1305542-0.5189285-0.0371323-0.147583,0.0562897,0.2237549L79.8177109,126.999527z"/>
	<path d="M448.826416,127.108696c0.0718994-0.2798157,0.1437988-0.5596313,0.0605774-0.2358017
		c0.2000732-0.2652969,0.0339661-0.0450363-0.1321411,0.1752243
		C448.7548523,127.048111,448.826416,127.108696,448.826416,127.108696z"/>
	<polygon points="18.2380466,130.3070679 18.135191,129.9234161 18.4396706,129.9802246 	"/>
	<path d="M42.8248253,131.0722504c-0.1859741-0.2412567-0.3719482-0.4825134-0.1999626-0.2593994
		c-0.0850563-0.250946,0.0147209,0.0434265,0.1144943,0.3377838
		C42.739357,131.1506348,42.8248253,131.0722504,42.8248253,131.0722504z"/>
	<path d="M61.760025,135.0356445c0.1915855,0.3232574,0.3831673,0.6464996,0.1804352,0.3044434
		c0.0822601,0.3801727-0.0009842-0.0045624-0.0842323-0.3892822L61.760025,135.0356445z"/>
	<path d="M36.3126907,137.9681549c-0.0304489,0.2242584-0.0626984,0.4482727-0.0969696,0.6719818
		C36.2460976,138.415863,36.2784958,138.1918793,36.3126907,137.9681549z"/>
	<polygon points="16.8416748,141.4330444 17.1273289,141.5929413 16.8171844,141.6845398 	"/>
	<polygon points="32.6060486,151.5276031 33.004673,151.4208679 32.9451599,151.7453613 	"/>
	<polygon points="28.4576111,167.1534119 28.1619301,167.1487427 28.308979,166.8151245 	"/>
	<path d="M39.213726,167.6174316C39.5278893,167.0255127,39.3708076,167.3214722,39.213726,167.6174316
		C39.1365433,167.2724609,39.0593643,166.9274902,39.213726,167.6174316z"/>
	<path d="M83.2395706,197.5174408c0.2333832,0.0148773,0.466629,0.031662,0.6997452,0.050293
		C83.705925,197.5528259,83.4726791,197.536087,83.2395706,197.5174408z"/>
	<path d="M106.6702423,212.9259338c0.3689423-0.3014221,0.7378845-0.6028442,1.1068268-0.9042664
		c0.1450958,0.2113495,0.2901917,0.4227142,0.4352798,0.6340637c-0.40905,0.2133942-0.8180923,0.4267883-1.2271423,0.6401672
		L106.6702423,212.9259338z"/>
	<path d="M139.3971558,215.4004974c-0.1010895-0.0405579-0.2837982-0.075058-0.2873535-0.122879
		c-0.0091705-0.1234589,0.0607758-0.2527924,0.0991211-0.379776c0.1043701,0.0412445,0.2936096,0.0772247,0.2965698,0.1247559
		C139.5131531,215.1458588,139.4387817,215.2741852,139.3971558,215.4004974z"/>
	<polygon points="136.326416,215.7515564 136.4128418,216.089798 136.1531219,216.0414276 	"/>
	<polygon points="142.48172,218.119339 142.2813568,218.4815369 142.1487122,218.0938721 	"/>
	<path d="M384.3282166,219.6569061c-0.0224915,0.2411957-0.0467224,0.482193-0.0728455,0.7230072
		C384.277832,220.1387329,384.3021545,219.8977356,384.3282166,219.6569061z"/>
	<path d="M404.6212463,17.5879593c-0.1188049,0.106554-0.2376404,0.2131023-0.3564758,0.3196526
		c-0.1052551-0.1202679-0.2978516-0.2457314-0.2911072-0.3593483c0.0067444-0.1133327,0.2132568-0.214777,0.3322144-0.3214188
		C404.4110107,17.3472176,404.5161133,17.4675865,404.6212463,17.5879593z"/>
	<polygon points="187.3357086,26.3574677 187.4288635,26.6434917 187.1650543,26.6046791 	"/>
	<path d="M140.6545563,29.917942c0.1808472-0.1798344,0.3616943-0.3596649,0.5425415-0.5394936
		c-0.1044464,0.2562046-0.2089081,0.5124073-0.3133698,0.76861C140.883728,30.1470585,140.6545715,29.917944,140.6545563,29.917942z
		"/>
	<path d="M30.3518391,129.8494873c-0.0975628-0.0537262-0.1951237-0.1074677-0.2926865-0.1611938
		c0.1048794-0.1462097,0.2097607-0.2924194,0.31464-0.4386292c0.095829,0.1036224,0.2693081,0.210083,0.2656441,0.3100433
		C30.6357746,129.6596832,30.4549866,129.7531586,30.3518391,129.8494873z"/>
	<path d="M103.8266144,122.9980545c0.0011749,0.3701706,0.0023499,0.7403336,0.003479,1.1104889
		c-0.3691101-0.0012436-0.7381744-0.0024643-1.107399-0.003891
		C103.0905533,123.7356567,103.45858,123.3668518,103.8266144,122.9980545z"/>
	<polygon points="94.2832947,126.3899002 94.382164,126.6907196 94.1049118,126.6519699 	"/>
	<path d="M20.7371044,146.085083c0.1783123,0.1344452,0.3566246,0.2688904,0.3234177,0.2438507
		c0.0240402,0.0333099-0.1069355-0.1481781-0.2379093-0.3296661
		C20.8226128,145.9992676,20.7371025,146.085083,20.7371044,146.085083z"/>
	<path d="M55.900486,146.1802216c-0.1708488,0.1913757-0.3416977,0.3827667-0.5125504,0.5741425
		c0.0926247-0.2690582,0.1852531-0.5381317,0.2778816-0.8071899L55.900486,146.1802216z"/>
	<polygon points="450.1248169,146.5636292 450.3807068,146.4734344 450.3468933,146.7201996 	"/>
	<path d="M54.751133,101.0377197c0.3689728-0.0050735,0.7379417-0.0101547,1.1069145-0.0152283
		C55.4890747,101.027565,55.1201057,101.0326462,54.751133,101.0377197z"/>
	<polygon points="50.2346268,148.7146606 50.1550026,148.4529419 50.3985329,148.4960632 	"/>
	<path d="M65.5352097,130.3013763c-0.0938873-0.2545776-0.1877747-0.5091553-0.2797012-0.7657318
		c0.2574158,0.0881958,0.5128708,0.1783905,0.7683182,0.2686005C65.8615723,129.9705505,65.6987,130.136261,65.5352097,130.3013763z
		"/>
	<path d="M49.3310204,100.2035217c0.1052132,0.1177826,0.2104263,0.2355576,0.3156395,0.3533401
		c-0.1184235,0.1049347-0.2418671,0.2967987-0.3538551,0.290329c-0.111824-0.0064545-0.2121887-0.2114868-0.3175735-0.3294678
		C49.0938301,100.4129944,49.2124252,100.3082581,49.3310204,100.2035217z"/>
	<polygon points="31.491724,97.5764008 31.2125797,97.6735687 31.2470169,97.4100113 	"/>
	<polygon points="22.2463036,164.7900543 22.1184673,164.4419708 22.4521408,164.4809875 	"/>
	<polygon points="78.3244247,129.3818054 78.4125824,129.6507874 78.1589661,129.6119232 	"/>
	<polygon points="51.6986961,94.0892029 51.9519005,94.2155609 51.7845345,94.0038605 	"/>
	<polygon points="40.034565,89.5241852 40.3696632,89.3946991 40.336113,89.720047 	"/>
	<path d="M53.5787659,131.2575531c-0.17976-0.214447-0.35952-0.4289093-0.9034004-1.077774
		c0.7740593,0.3228149,1.0829391,0.4516296,1.391819,0.5804596
		C53.9048805,130.9264984,53.7420769,131.0922699,53.5787659,131.2575531z"/>
	<polygon points="443.2703857,87.7658615 443.1548462,87.4292603 443.46698,87.4689102 	"/>
	<path d="M79.8028488,194.0791626c0.1368866-0.1699066,0.2737808-0.339798,0.1564407-0.1941681
		c0.1435089-0.1200104-0.023819,0.019928-0.1911545,0.1598511L79.8028488,194.0791626z"/>
	<path d="M58.7792625,86.0504303c-0.1310806,0.1615067-0.2621613,0.3230133-0.0915756,0.1128311
		c-0.2015762,0.1809082-0.0468826,0.0420761,0.107811-0.096756L58.7792625,86.0504303z"/>
	<polygon points="67.8341217,199.0939941 67.942688,198.8898468 67.7564621,199.0158234 	"/>
	<path d="M67.7564621,199.0158234c-0.1097565,0.230423-0.2195206,0.4608307-0.329277,0.6912537
		c0.1356506-0.204361,0.2712936-0.4087219,0.4069366-0.6130829L67.7564621,199.0158234z"/>
	<polygon points="62.062294,85.5555573 62.339653,85.4571152 62.3087006,85.7168655 	"/>
	<polygon points="451.1229858,84.5671921 451.3840027,84.4801025 451.3489685,84.7249146 	"/>
	<polygon points="403.4931641,204.5880737 403.1666565,204.7010956 403.2062073,204.3965149 	"/>
	<polygon points="119.0704193,206.5306244 119.3647614,206.4306183 119.3288422,206.7024384 	"/>
	<path d="M104.8553009,123.0975113c-0.3773193,0.0000305-0.7546463,0.0000687-1.1319733,0.0000992
		c0.185051-0.2331543,0.3701096-0.466301,0.5562134-0.6993942
		C104.4721603,122.6313553,104.6637268,122.8644333,104.8553009,123.0975113z"/>
	<path d="M64.8584137,84.0340424c-0.1172104-0.0510025-0.2344208-0.102005-0.3516235-0.1530151
		c0.08638,0.0819016,0.17276,0.1637955,0.25914,0.245697L64.8584137,84.0340424z"/>
	<polygon points="47.5082779,210.5765381 47.2003593,210.6899567 47.2343636,210.3948975 	"/>
	<path d="M85.7368164,122.0856171c0.1171417,0.0495224,0.2342758,0.0990448,0.3514175,0.1485672
		c-0.0937958-0.0729446-0.1875839-0.1458969-0.2813797-0.2188416L85.7368164,122.0856171z"/>
	<polygon points="141.2390747,215.757431 141.1312103,215.4274597 141.4352875,215.4706573 	"/>
	<path d="M381.5368958,215.7985382c0.2279968-0.1386261,0.4559937-0.2772675,0.6839905-0.4159241
		c-0.022522,0.3386688-0.0450134,0.6773529-0.0675354,1.0160217
		C381.9469604,216.1995239,381.7414856,215.9994812,381.5368958,215.7985382z"/>
	<polygon points="75.0799561,80.5351105 75.3575363,80.4415894 75.3223724,80.6986542 	"/>
	<polygon points="79.745491,127.0705872 79.9735184,127.2827225 79.8177109,126.999527 	"/>
	<polygon points="144.2765961,218.3882599 144.3647156,218.6383514 144.1245575,218.6060181 	"/>
	<polygon points="424.3082581,63.3989677 424.4091797,63.6939125 424.1278381,63.6536102 	"/>
	<path d="M388.8332825,220.1153412c-0.0848694,0.1223297-0.1697693,0.2446594-0.2546692,0.3669739
		c0.051178-0.1555634,0.1023254-0.311142,0.1535034-0.4667053
		C388.7321167,220.0156097,388.8332825,220.1153259,388.8332825,220.1153412z"/>
	<path d="M100.8552017,60.0261078c-0.1176987-0.0433159-0.2353897-0.086628-0.3530884-0.1299362
		c0.0905609,0.070694,0.1811142,0.1413918,0.2716751,0.2120895L100.8552017,60.0261078z"/>
	<polygon points="159.2748413,225.3578949 159.3884888,225.6606293 159.0965881,225.6281891 	"/>
	<path d="M96.8106079,59.1371002c0.056366-0.1206932,0.1127319-0.2413864,0.1690979-0.3620834
		c-0.0877304,0.0894318-0.1754532,0.1788597-0.2631836,0.2682877
		C96.7165222,59.0433044,96.8106003,59.1371002,96.8106079,59.1371002z"/>
	<path d="M100.9734421,55.26157c-0.3903427,0.2702332-0.7806778,0.5404625-1.1710205,0.8106956l-0.020813-0.0195732
		c0.2369843-0.4177322,0.4739685-0.8354645,0.7109604-1.2531967C100.6537933,54.952549,100.8140793,55.106575,100.9734421,55.26157z
		"/>
	<polygon points="141.7673187,235.0751343 141.5257416,234.7983093 141.8019714,235.039978 	"/>
	<polygon points="390.7391052,238.0852203 390.9812927,238.2387238 390.8057556,238.0178986 	"/>
	<polygon points="41.320652,136.3236694 41.4275742,136.6321411 41.1417503,136.5967865 	"/>
	<polygon points="59.785656,136.0021515 59.5605621,136.2377625 59.8743286,136.0925751 	"/>
	<polygon points="96.3406525,30.3584862 96.4378357,30.6482906 96.16362,30.6080856 	"/>
	<path d="M55.6219215,160.8913727c0.0752296-0.3761292,0.1504593-0.7522583,0.2256889-1.1284027
		c0.4087563,0.408783,0.8175125,0.8175507,1.2262688,1.2263184c-0.3803673,0.069519-0.7607384,0.1390228-1.1411018,0.2085419
		C55.9327812,161.1978302,55.6219139,160.8913727,55.6219215,160.8913727z"/>
	<path d="M105.8378601,135.0035095c-0.0021744,0.7051697-0.0043488,1.4103394-0.0065231,2.115509
		c-0.5591736-0.2423706-1.1183472-0.4847412-2.381012-1.0320282
		C104.6330948,135.5502319,105.2354736,135.2768707,105.8378601,135.0035095z"/>
	<path d="M105.7501678,137.0037231c0.2290192,0.1930389,0.4580383,0.3860779,0.6871414,0.5802002
		c-0.231781,0.1799927-0.4636459,0.3589172-0.6955109,0.5378265
		C105.7445908,137.7490692,105.7473755,137.3764038,105.7501678,137.0037231z"/>
	<path d="M87.726181,138.0387878c-0.2123566,0.4336243-0.4247208,0.8672333-0.637085,1.3008575
		c-0.1584091-0.1529236-0.3161697-0.3065186-0.4732895-0.4607544c0.3946457-0.2557373,0.7892838-0.5114746,1.1839218-0.7672119
		L87.726181,138.0387878z"/>
	<polygon points="87.7997284,138.1116791 88.0148468,137.8489227 87.726181,138.0387878 	"/>
	<path d="M78.0298615,137.1127625c0.3201065-0.4344025,0.6402054-0.8688049,0.9603043-1.3032227
		c0.1860123,0.1407318,0.3720322,0.2814789,0.5580444,0.4222107c-0.334404,0.4230804-0.668808,0.8461761-1.003212,1.2692566
		C78.373291,137.3715973,78.2015762,137.2421875,78.0298615,137.1127625z"/>
	<polygon points="74.1292191,137.8596039 74.4486389,137.8550262 74.2942505,138.243866 	"/>
	<path d="M109.7561264,135.0632324c0.1950607,0.2310791,0.3901215,0.4621735,0.1540451,0.1824951
		c0.1157532,0.3326416,0.015419,0.0443115-0.0849152-0.2440186L109.7561264,135.0632324z"/>
	<path d="M106.7148972,135.0271301c0.3673019,0.0059967,0.7346115,0.0120087,1.1019135,0.0180054
		C107.4495087,135.0391388,107.0821991,135.0331268,106.7148972,135.0271301z"/>
	<path d="M258.7617798,56.014061c-0.1197205,0.152626-0.2394409,0.3052559-0.2246704,0.2864494
		c-0.0190125,0.0136795,0.1387634-0.0999641,0.2965698-0.2136116
		C258.8336792,56.0869026,258.7617798,56.014061,258.7617798,56.014061z"/>
	<path d="M367.7201843,233.0345459c0.3485413-0.3424072,0.697113-0.6847992,1.0456543-1.0271912
		c0.4651794,0.37323,0.9303589,0.74646,1.7209473,1.3807983C369.1408081,234.1782532,368.3193359,234.56073,367.7201843,233.0345459
		z"/>
	<path d="M67.7453156,88.0776291c0.3617783-0.0158386,0.7235565-0.0316849,1.0853348-0.0475311
		c-0.3674469,0.3407059-0.7348938,0.6814041-1.1023407,1.02211l0.0922318,0.0711212
		c-0.0012741-0.3766022-0.0025482-0.7531967-0.0038223-1.1297989L67.7453156,88.0776291z"/>
</g>
</svg>
